<svg class="w-16 lg:w-auto h-auto ml-s lg:ml-0" width="80" height="37" xmlns="http://www.w3.org/2000/svg" viewBox="0 0 80 37">
    <g fill="none" fill-rule="evenodd">
        <g fill="#000" fill-rule="nonzero">
            <g>
                <path d="M79.789 21.896s-.79-1.108-1.034-1.424c-.17-.207-.377-.45-.912-.085-1.203.803-2.553 1.545-4.218 1.545-1.277 0-2.383-.328-3.21-1.034.353-.159.717-.329 1.082-.536 1.97-1.059 3.61-2.422 4.401-3.213 3.83-3.834 2.639-9.554-2.042-9.554-4.414 0-7.89 4.296-7.89 9.08 0 .717.084 1.752.388 2.835-.255.122-2.006.974-4.097 2.13-1.97-1.473-5.034-.815-5.034-.815 2.845-4.053 7.137-10.37 7.502-10.893.267-.378.219-.743-.037-1.327-.328-.706-.656-.828-1.094-.828h-8.912c-.291 0-.522.134-.608.463-.085.328-.267 1.46-.303 1.838-.037.39.328.633.705.633h6.456l-5.836 8.361c-.037.037-.073.073-.11.122-.85 1.229-2.152 2.945-3.708 2.945-.973 0-2.176-.694-2.176-2.97 0-2.227.9-6.937 1.556-10.613.073-.39-.06-.779-.693-.779h-1.58c-.365 0-.572.22-.62.536-.098.56-.195 1.107-.28 1.643-.778-1.497-2.03-2.35-3.83-2.35-1.678 0-3.307.622-4.644 1.96-3.332 3.335-2.7 8.776-5.58 11.66-1.241 1.242-2.64.864-2.64-1.582 0-2.787 1.07-5.903 2.287-8.848.218-.524-.013-.962-.244-1.29-.328-.475-.45-.719-1.033-.719-.912 0-2.359.573-5.264.573-.62 0-1.204-.025-1.74-.061.037-.438.037-.73.05-.84.024-.414-.122-.67-.56-.67h-1.483c-.535 0-.669.256-.73.682-.255 1.777-.729 8.313-4.012 11.587-.377.377-.608.499-.608.499.815-1.595 1.253-3.688 1.253-5.355 0-4.674-2.76-7.57-6.237-7.57-1.058 0-2.177.34-3.234.997.486-2.848.936-5.513 1.094-6.414.134-.767-.134-1.156-.34-1.473C9.66.232 9.37 0 8.931 0H3.8c-.292 0-.51.207-.584.536-.085.377-.267 1.375-.291 1.837-.025.402.255.56.583.56h3.745C6.658 6.61 5.515 13.73 5.174 15.518 4.738 17.794 3.12 20.581.398 21.58c-.34.122-.474.438-.353.804.122.365.596 1.314.742 1.557.146.256.462.414.754.317 1.41-.5 2.71-1.302 3.732-2.325.255-.255.499-.535.73-.84 1.215 2.751 3.72 3.75 6.26 3.75 2.882 0 5.995-1.011 8.183-3.19 2.554-2.556 3.611-6.767 4.073-9.76.632.084 1.35.157 2.043.157 1.75 0 3.222-.377 3.222-.377s-1.763 4.698-1.763 8.155c0 3.907 1.872 5.014 3.927 5.014 2.127 0 3.623-1.594 4.68-3.578.28.62.694 1.35 1.253 1.91.96.962 2.152 1.668 3.878 1.668 1.97 0 3.66-1.132 4.864-2.884.218.742.547 1.35.997 1.8.607.61 1.726 1.084 3.112 1.084 2.395 0 3.793-1.801 7.526-1.801.474 0 .9.073 1.289.207-1.715 1.046-3.344 2.166-4.34 3.164-3.077 3.08-3.223 7.145-1.204 9.165 2.455 2.459 5.933 1.217 8.121-.962 2.553-2.555 3.295-7.387 1.824-10.686 1.787-.937 3.283-1.63 3.635-1.801 1.119 1.521 2.967 2.714 6.006 2.714 2.176 0 4.377-.767 6.091-2.069.244-.231.304-.609.11-.876zm-66.03-1.047c-.694.694-1.545 1.071-2.408 1.071-.802 0-1.495-.365-2.079-.95-1.97-1.971-1.8-6.827.742-9.371.717-.718 1.592-1.132 2.48-1.132.802 0 1.495.353 2.079.937 1.848 1.862 1.957 6.67-.815 9.445zm28.17 1.059c-2.128 0-3.514-2.568-3.089-5.733.426-3.164 2.493-5.732 4.62-5.732 1.97 0 3.308 2.203 3.162 5.039-.061.413-.11.803-.146 1.192-.572 2.934-2.53 5.234-4.547 5.234zm17.714 11.149c-2.784 2.787-6.334-.767-2.189-4.918.937-.937 2.48-1.971 4.086-2.92.911 2.263.194 5.744-1.897 7.838zM70.816 11.66c2.091-2.094 4.414-1.473 4.414.56 0 1.984-2.371 4.126-5.24 5.781-.28.158-.609.34-.937.511-.11-.499-.17-1.047-.17-1.667-.012-1.704.705-3.956 1.933-5.185z" transform="translate(-96 -31) translate(96 31)"></path>
            </g>
        </g>
    </g>
</svg>