<svg width="157" height="48" viewBox="0 0 157 48" fill="none" xmlns="http://www.w3.org/2000/svg">
<g clip-path="url(#clip0_841_9236)">
<path d="M48.0567 0H0V48H48.0567V0Z" fill="#111439"/>
<path d="M77.8957 13.1428C78.707 13.1581 79.5084 13.3246 80.2585 13.6338L81.4752 8.65607C80.0186 8.11966 78.4786 7.84417 76.9261 7.84229C70.7693 7.84229 68.5396 11.7919 68.5396 16.5987V17.7787H63.8467V23.0737H68.5478V40.562H75.3021V23.0791H80.1335V17.7841H75.3021V16.4088C75.3021 14.0461 76.2662 13.1428 77.8957 13.1428Z" fill="#111439"/>
<path d="M107.001 8.39819H113.744V40.5619H107.001V38.3049C105.388 39.9135 103.723 41.1152 101.523 41.1152C95.8526 41.1152 92.1943 36.6177 92.1943 29.1797C92.1943 21.7416 96.8493 17.2441 101.654 17.2441C104.166 17.2441 105.456 18.1772 107.001 19.6231V8.39819ZM107.001 33.5633V24.1993C105.97 23.2592 104.622 22.7436 103.226 22.7561C101.037 22.7561 99.1197 24.7743 99.1197 29.1064C99.1197 33.5768 100.665 35.5923 103.283 35.5923C104.72 35.5923 105.882 35.0471 107.001 33.5524V33.5633Z" fill="#111439"/>
<path d="M138.399 37.9335L141.446 33.7262C143.513 35.286 145.419 36.1188 147.329 36.1188C149.341 36.1188 150.21 35.3538 150.21 34.1602C150.21 32.6574 147.948 31.9766 145.593 31.0597C142.799 29.9747 139.559 28.1246 139.559 24.3622C139.559 20.1197 143.008 17.2307 148.268 17.2307C151.764 17.2307 154.365 18.6413 156.31 20.1169L153.282 24.1669C151.652 22.9923 150.061 22.222 148.483 22.222C146.737 22.222 145.876 22.9082 145.876 24.0421C145.876 25.4961 148.01 26.0522 150.373 26.9094C153.263 27.9782 156.519 29.5976 156.519 33.7615C156.519 37.9254 153.26 41.1127 147.152 41.1127C144.146 41.1154 140.707 39.8107 138.399 37.9335Z" fill="#111439"/>
<path d="M82.8682 17.7839H89.6279V40.57H82.8682V17.7839Z" fill="#111439"/>
<path d="M86.2657 14.8029C88.1421 14.8029 89.6632 13.2836 89.6632 11.4094C89.6632 9.53519 88.1421 8.01587 86.2657 8.01587C84.3893 8.01587 82.8682 9.53519 82.8682 11.4094C82.8682 13.2836 84.3893 14.8029 86.2657 14.8029Z" fill="#111439"/>
<path d="M127.902 41.2211C126.327 41.2364 124.763 40.9653 123.285 40.4209C121.906 39.9133 120.65 39.1202 119.6 38.0935C118.524 37.0226 117.685 35.7393 117.134 34.3256C116.506 32.7102 116.198 30.9884 116.227 29.2557C116.2 27.5432 116.515 25.8425 117.156 24.2536C117.723 22.8537 118.553 21.5748 119.6 20.4858C120.582 19.4706 121.759 18.6633 123.06 18.1122C124.388 17.5616 125.812 17.282 127.25 17.29C128.687 17.2979 130.109 17.5931 131.43 18.1583C132.624 18.704 133.677 19.516 134.507 20.5319C135.342 21.577 135.965 22.7749 136.34 24.0583C136.753 25.4512 136.958 26.8972 136.949 28.3497C136.951 29.006 136.914 29.6618 136.837 30.3136C136.761 30.924 136.693 31.3634 136.634 31.6374H123.739C124.101 33.0082 124.749 33.9603 125.683 34.4938C126.695 35.0445 127.834 35.3196 128.986 35.2913C129.761 35.2926 130.532 35.1774 131.273 34.9495C132.084 34.6904 132.865 34.3458 133.603 33.9214L136.463 38.3051C135.114 39.2815 133.623 40.0446 132.041 40.5674C130.7 40.9811 129.306 41.2013 127.902 41.2211ZM123.649 26.516H130.344C130.362 25.6992 130.134 24.8957 129.689 24.2102C129.249 23.5538 128.442 23.2255 127.267 23.2255C126.438 23.2106 125.63 23.4861 124.983 24.0041C124.335 24.5177 123.89 25.355 123.649 26.516Z" fill="#111439"/>
</g>
<defs>
<clipPath id="clip0_841_9236">
<rect width="156.522" height="48" fill="white"/>
</clipPath>
</defs>
</svg>
