<svg width="16" height="24" viewBox="0 0 16 24" fill="none" xmlns="http://www.w3.org/2000/svg">
<path fill-rule="evenodd" clip-rule="evenodd" d="M1.65452 17.5671L1.67341 17.6242C1.69784 17.6983 1.72441 17.7737 1.75214 17.8484C1.78918 17.9479 1.82922 18.0476 1.87102 18.1449C1.91239 18.2411 1.95717 18.3387 2.00422 18.4348C2.05113 18.5305 2.10055 18.6253 2.15106 18.7169C2.20182 18.8088 2.25568 18.901 2.31119 18.9911C2.36658 19.0808 2.42477 19.1701 2.48412 19.2565C2.5439 19.3437 2.60629 19.4301 2.66954 19.5133C2.73254 19.5963 2.79902 19.6796 2.86708 19.7608C2.93405 19.8409 3.00449 19.921 3.07621 19.9987C3.14701 20.0755 3.2211 20.1521 3.29648 20.2264C3.37136 20.3002 3.44911 20.3732 3.52747 20.4434C3.60583 20.5136 3.687 20.5829 3.76871 20.6494C3.85054 20.716 3.93505 20.7815 4.01993 20.8441C4.10463 20.9065 4.19231 20.968 4.28048 21.0268C4.36883 21.0856 4.45956 21.143 4.55005 21.1972C4.6412 21.2519 4.73474 21.3049 4.82802 21.3549C4.92247 21.4056 5.01874 21.4542 5.11429 21.4995C5.21062 21.5454 5.30958 21.5896 5.40847 21.6309C5.50742 21.6722 5.60876 21.7116 5.70966 21.7481C5.81105 21.7848 5.91476 21.8195 6.01798 21.8512C6.12187 21.883 6.22765 21.9126 6.33246 21.9393C6.43787 21.9661 6.54584 21.9907 6.65339 22.0125C6.76057 22.0342 6.87049 22.0536 6.97993 22.0701C7.08973 22.0867 7.20136 22.1007 7.31171 22.1117C7.42346 22.123 7.53685 22.1315 7.64873 22.1371C7.8757 22.1484 8.10566 22.1484 8.33215 22.1371C8.44384 22.1315 8.55717 22.123 8.66905 22.1117C8.77921 22.1007 8.89078 22.0867 9.00082 22.0701C9.11038 22.0535 9.22024 22.0341 9.32742 22.0125C9.43491 21.9907 9.54282 21.9661 9.64824 21.9393C9.7531 21.9127 9.85894 21.883 9.96307 21.8511C10.0662 21.8193 10.1698 21.7847 10.271 21.7481C10.3716 21.7118 10.473 21.6723 10.5725 21.6309C10.6715 21.5895 10.7703 21.5454 10.8662 21.4997C10.9619 21.4542 11.0583 21.4055 11.1525 21.355C11.246 21.3049 11.3395 21.2519 11.4307 21.1972C11.5212 21.143 11.6119 21.0856 11.7005 21.0267C11.7883 20.9681 11.8759 20.9067 11.9611 20.8439C12.0459 20.7814 12.1303 20.7159 12.212 20.6494C12.2938 20.5829 12.375 20.5136 12.4533 20.4434C12.4719 20.4267 12.5093 20.3926 12.5093 20.3926L12.5539 20.3519L13.467 21.3192L13.3555 21.4205C13.2609 21.5052 13.1633 21.5885 13.0655 21.6681C12.9673 21.7479 12.866 21.8265 12.7642 21.9015C12.6617 21.9771 12.5564 22.0509 12.4512 22.121C12.3459 22.1911 12.237 22.2601 12.1273 22.3257C12.0177 22.3916 11.9051 22.4553 11.7929 22.5154C11.6799 22.5761 11.564 22.6346 11.4487 22.6894C11.3329 22.7445 11.2141 22.7976 11.0954 22.8471C10.9755 22.8971 10.8535 22.9446 10.7327 22.9883C10.6116 23.032 10.487 23.0737 10.3619 23.1121C10.2368 23.1506 10.1093 23.1863 9.98294 23.2184C9.85553 23.2508 9.72568 23.2805 9.59693 23.3064C9.46714 23.3327 9.33492 23.356 9.20397 23.3758C9.0723 23.3957 8.938 23.4125 8.8048 23.4259C8.67069 23.4394 8.53457 23.4496 8.40015 23.4563C8.26372 23.4632 8.12589 23.4666 7.99038 23.4666C7.8548 23.4666 7.71703 23.4632 7.58072 23.4563C7.44631 23.4496 7.31012 23.4394 7.17595 23.4259C7.04275 23.4125 6.90845 23.3957 6.77678 23.3758C6.64571 23.356 6.51355 23.3327 6.38388 23.3064C6.25501 23.2805 6.12516 23.2508 5.99775 23.2184C5.87144 23.1863 5.74403 23.1506 5.61905 23.1122C5.49414 23.0738 5.36929 23.0321 5.24797 22.9883C5.12684 22.9444 5.00491 22.8969 4.88561 22.8472C4.76703 22.7977 4.64791 22.7446 4.53183 22.6893C4.41673 22.6346 4.30089 22.5761 4.18768 22.5154C4.07556 22.4553 3.96308 22.3916 3.85334 22.3258C3.74433 22.2604 3.63545 22.1915 3.52967 22.1211C3.42413 22.0507 3.3189 21.977 3.2169 21.9018C3.11508 21.8267 3.01357 21.7481 2.91522 21.668C2.81688 21.588 2.71944 21.5048 2.62567 21.4208C2.53128 21.3362 2.43806 21.2486 2.34849 21.1604C2.25776 21.0709 2.16886 20.979 2.08422 20.8872C1.99855 20.7944 1.91416 20.6984 1.8333 20.6019C1.75195 20.5048 1.67219 20.4048 1.59621 20.3048C1.52059 20.2052 1.44577 20.1015 1.37368 19.9965C1.3019 19.892 1.23201 19.7846 1.16578 19.6773C1.09869 19.5686 1.03404 19.4579 0.973476 19.348C0.912482 19.2376 0.853073 19.1235 0.796953 19.009C0.741017 18.8948 0.687153 18.7776 0.636761 18.6603C0.586674 18.544 0.538537 18.4238 0.493691 18.3034C0.460543 18.2144 0.428615 18.1236 0.398818 18.0336L0.379929 17.9765L1.65452 17.5671ZM13.5514 8.92551V15.5918C13.5514 15.7777 13.5418 15.9653 13.5227 16.1492C13.504 16.3309 13.4756 16.5133 13.4384 16.6915C13.4017 16.8677 13.3556 17.0441 13.3013 17.2155C13.2475 17.3852 13.1845 17.5542 13.1141 17.7179C13.0443 17.8802 12.9655 18.0409 12.88 18.1957C12.7952 18.3493 12.7015 18.5009 12.6016 18.6463C12.5025 18.7906 12.395 18.9321 12.2821 19.0668C12.1695 19.2009 12.049 19.3314 11.9238 19.4547C11.7989 19.5777 11.6664 19.6963 11.5299 19.8072C11.3934 19.9182 11.2497 20.024 11.1028 20.1218C10.9554 20.22 10.8013 20.3122 10.645 20.3959C10.4878 20.4801 10.3245 20.5577 10.1596 20.6265C9.99327 20.6959 9.82154 20.7578 9.64944 20.8106C9.47497 20.8642 9.29592 20.9096 9.11718 20.9456C8.93648 20.9822 8.75115 21.0101 8.56636 21.0287C8.3795 21.0474 8.18892 21.0569 7.99999 21.0569C7.81112 21.0569 7.6206 21.0474 7.43374 21.0287C7.24884 21.0101 7.06338 20.9822 6.88268 20.9456C6.70412 20.9096 6.52507 20.8642 6.35066 20.8107C6.17838 20.7578 6.00665 20.6958 5.84035 20.6264C5.67546 20.5577 5.51214 20.4801 5.35487 20.3959C5.19864 20.3122 5.04479 20.2201 4.8974 20.122C4.75019 20.024 4.60646 19.9181 4.47018 19.8073C4.33365 19.6963 4.20109 19.5777 4.07609 19.4546C3.95096 19.3314 3.83048 19.2009 3.71805 19.0668C3.60507 18.9322 3.49751 18.7906 3.39826 18.6461C3.29845 18.5008 3.20475 18.3492 3.11989 18.1955C3.03443 18.0408 2.95567 17.8801 2.88588 17.7179C2.81548 17.5542 2.7524 17.3852 2.69871 17.2155C2.64448 17.0442 2.5983 16.868 2.56158 16.6917C2.52436 16.5133 2.496 16.3308 2.47727 16.1492C2.45817 15.9653 2.44853 15.7777 2.44853 15.5918V13.1295H3.79064V15.5918C3.79064 15.7329 3.79796 15.8754 3.81242 16.0154C3.82664 16.1526 3.84811 16.2908 3.87623 16.4262C3.90417 16.5599 3.93913 16.6932 3.98 16.8223C4.02045 16.9501 4.06809 17.078 4.1216 17.2024C4.17443 17.3251 4.23409 17.4469 4.299 17.5643C4.3633 17.6808 4.43431 17.7957 4.51008 17.9061C4.58554 18.016 4.66729 18.1235 4.75288 18.2256C4.83841 18.3275 4.92997 18.4266 5.02514 18.5204C5.11988 18.6136 5.2206 18.7038 5.32468 18.7884C5.42845 18.8728 5.53764 18.9532 5.64916 19.0275C5.76104 19.102 5.87787 19.1719 5.99622 19.2352C6.11548 19.2991 6.2392 19.3579 6.36384 19.4099C6.48963 19.4624 6.61957 19.5093 6.75006 19.5493C6.88177 19.5897 7.0172 19.624 7.15251 19.6514C7.28916 19.679 7.42947 19.7002 7.56978 19.7143C7.85541 19.7428 8.14494 19.7429 8.43032 19.7142C8.57045 19.7002 8.7107 19.679 8.84735 19.6514C8.98278 19.624 9.11833 19.5897 9.24998 19.5493C9.38035 19.5093 9.51029 19.4624 9.63602 19.4099C9.76066 19.3579 9.88437 19.2992 10.0037 19.2353C10.1222 19.1718 10.2391 19.1018 10.3511 19.0274C10.4623 18.9533 10.5714 18.8728 10.6754 18.7884C10.7794 18.7038 10.8802 18.6136 10.9748 18.5204C11.0699 18.4267 11.1616 18.3275 11.2471 18.2255C11.3328 18.1234 11.4144 18.016 11.4898 17.9062C11.5657 17.7958 11.6367 17.6808 11.7009 17.5645C11.7658 17.447 11.8256 17.3251 11.8784 17.2024C11.9319 17.078 11.9795 16.9502 12.02 16.8224C12.0609 16.693 12.0959 16.5597 12.1237 16.426C12.1519 16.2909 12.1733 16.1527 12.1876 16.0154C12.202 15.8754 12.2093 15.7329 12.2093 15.5918V8.92551H13.5514ZM16 12.54V15.6007C16 15.7348 15.9965 15.8706 15.9896 16.0042C15.9827 16.1378 15.9722 16.2721 15.9586 16.4032C15.9451 16.5341 15.9279 16.6662 15.9077 16.7959C15.8876 16.9253 15.8639 17.0556 15.8372 17.183C15.8106 17.3108 15.7804 17.4387 15.7478 17.5634C15.7148 17.689 15.6785 17.8146 15.6397 17.9366C15.6009 18.0592 15.5585 18.1821 15.5139 18.3018C15.4688 18.4225 15.4205 18.5427 15.3704 18.6591C15.3199 18.7762 15.266 18.8933 15.21 19.0072C15.154 19.1215 15.0945 19.2356 15.0332 19.3462C14.9727 19.4558 14.9079 19.5665 14.8406 19.6753C14.7745 19.7822 14.7045 19.8896 14.6324 19.9944C14.56 20.0996 14.485 20.2032 14.4094 20.3026L14.3728 20.3506L13.2982 19.5594L13.3346 19.5113C13.3978 19.4283 13.4603 19.342 13.5203 19.2548C13.58 19.168 13.6382 19.0788 13.6935 18.9894C13.749 18.8995 13.803 18.8073 13.854 18.7152C13.9046 18.6236 13.9541 18.5287 14.001 18.4332C14.0475 18.3384 14.0923 18.2411 14.1342 18.1439C14.1761 18.0466 14.2163 17.9466 14.2536 17.8468C14.2906 17.7475 14.3258 17.6455 14.3581 17.5436C14.39 17.4429 14.4202 17.3386 14.4478 17.2336C14.4752 17.1291 14.5002 17.0228 14.5221 16.9176C14.5442 16.812 14.5639 16.7037 14.5808 16.5958C14.5977 16.4871 14.6119 16.3771 14.623 16.2692C14.6343 16.1599 14.6431 16.0482 14.6487 15.9371C14.6545 15.8262 14.6575 15.713 14.6575 15.6007V12.54H16ZM5.05454 7.42985L6.33294 7.82079L6.31487 7.87804C6.29771 7.93254 6.28311 7.98859 6.27137 8.0447C6.25963 8.10136 6.25062 8.15939 6.24466 8.21718C6.23857 8.27641 6.23559 8.33654 6.23559 8.39566V15.5898C6.23559 15.649 6.23864 15.7091 6.24472 15.7687C6.25062 15.8261 6.25963 15.884 6.27137 15.9408C6.28311 15.9968 6.29771 16.0529 6.31487 16.1073C6.33166 16.1606 6.35156 16.214 6.37395 16.2664C6.39615 16.318 6.4211 16.369 6.44811 16.4179C6.47513 16.4669 6.50482 16.5152 6.53651 16.5614C6.56791 16.6072 6.60222 16.6523 6.63842 16.6956C6.6742 16.7383 6.71247 16.7798 6.75226 16.819C6.79223 16.8584 6.83439 16.8962 6.87771 16.9314C6.92109 16.9667 6.96684 17.0005 7.01381 17.0317C7.06109 17.0631 7.11007 17.0924 7.15935 17.1188C7.20936 17.1456 7.26113 17.1702 7.31315 17.1919C7.3659 17.2138 7.42036 17.2335 7.47505 17.2503C7.53017 17.2672 7.58694 17.2815 7.64376 17.293C7.70102 17.3046 7.75991 17.3134 7.81887 17.3193C7.93732 17.3312 8.0626 17.3312 8.18105 17.3193C8.23995 17.3134 8.29896 17.3045 8.3564 17.293C8.41316 17.2815 8.46981 17.2672 8.52475 17.2503C8.5795 17.2335 8.63396 17.2139 8.6864 17.192C8.73866 17.1703 8.79056 17.1456 8.84057 17.1188C8.88998 17.0924 8.93883 17.0632 8.98592 17.0318C9.03295 17.0005 9.07865 16.9668 9.12172 16.9317C9.16547 16.8962 9.20769 16.8584 9.24742 16.8192C9.28733 16.78 9.32578 16.7383 9.36174 16.6953C9.39782 16.6522 9.43207 16.6072 9.46347 16.5613C9.49504 16.5152 9.52473 16.467 9.55169 16.4181C9.57882 16.369 9.60383 16.3179 9.62597 16.2663C9.64836 16.214 9.66832 16.1604 9.68517 16.107C9.70227 16.0527 9.71681 15.9968 9.72855 15.9407C9.7403 15.8841 9.74936 15.826 9.75526 15.7683C9.76135 15.709 9.76439 15.6489 9.76439 15.5898V14.3308H11.1029V15.5898C11.1029 15.6936 11.0975 15.7983 11.087 15.9012C11.0764 16.0033 11.0606 16.1056 11.0398 16.2054C11.0194 16.3037 10.9937 16.4022 10.9634 16.4983C10.9334 16.5934 10.8982 16.6882 10.8587 16.78C10.8199 16.8706 10.7759 16.9606 10.7279 17.0477C10.6805 17.1336 10.6283 17.2184 10.5725 17.2997C10.5175 17.38 10.4576 17.459 10.3943 17.5346C10.3309 17.6102 10.2635 17.6833 10.1939 17.7518C10.1243 17.8205 10.0502 17.8868 9.9738 17.949C9.89769 18.0109 9.81744 18.0701 9.73512 18.1247C9.65274 18.1796 9.56665 18.2312 9.47941 18.2778C9.39119 18.3251 9.2998 18.3684 9.20763 18.4068C9.11509 18.4454 9.01908 18.4801 8.92241 18.5097C8.82506 18.5395 8.72491 18.5649 8.62477 18.5851C8.52316 18.6055 8.41949 18.6211 8.31655 18.6314C8.21196 18.6419 8.10549 18.6473 7.99999 18.6473C7.89443 18.6473 7.78796 18.6419 7.68343 18.6315C7.58037 18.6211 7.47676 18.6055 7.37546 18.5851C7.27519 18.5649 7.17492 18.5395 7.07745 18.5097C6.98084 18.48 6.88477 18.4453 6.79186 18.4066C6.69999 18.3684 6.60873 18.3251 6.52051 18.2778C6.43333 18.2312 6.34724 18.1796 6.26455 18.1246C6.18242 18.0699 6.10205 18.0108 6.02575 17.9487C5.94964 17.8867 5.87566 17.8205 5.80575 17.7516C5.73627 17.6831 5.66904 17.6102 5.60595 17.5349C5.54249 17.4592 5.48244 17.38 5.42732 17.2996C5.37159 17.2183 5.31932 17.1335 5.27193 17.0474C5.22405 16.9606 5.18006 16.8706 5.14118 16.78C5.10175 16.6882 5.06659 16.5935 5.03665 16.4987C5.00629 16.4024 4.98056 16.3037 4.96012 16.2054C4.93937 16.1055 4.92355 16.0034 4.91302 15.9016C4.90244 15.7985 4.89708 15.6936 4.89708 15.5898V8.39566C4.89708 8.29188 4.90238 8.18709 4.91296 8.08421C4.92355 7.98212 4.93937 7.87984 4.96012 7.78008C4.98056 7.68176 5.00629 7.5832 5.03653 7.4871L5.05454 7.42985ZM7.5871 0.54342C7.8597 0.529798 8.13589 0.529798 8.40812 0.54342C8.5428 0.550141 8.67931 0.560343 8.81375 0.573785C8.94715 0.587168 9.08177 0.604031 9.2137 0.623954C9.34502 0.643698 9.47744 0.667042 9.60736 0.693207C9.73642 0.719252 9.86658 0.748837 9.99424 0.781183C10.1208 0.813289 10.2485 0.848995 10.3737 0.887342C10.4985 0.925629 10.6234 0.967276 10.7454 1.0112C10.8667 1.05495 10.9889 1.10242 11.1086 1.15223C11.2274 1.20174 11.3467 1.25485 11.463 1.31C11.5783 1.36473 11.6944 1.42318 11.8078 1.48385L11.8615 1.51247L11.2197 2.6723L11.1661 2.64362C11.0716 2.59309 10.9751 2.54448 10.8794 2.49911C10.7829 2.45332 10.6838 2.40916 10.5847 2.36787C10.4854 2.32652 10.3839 2.28709 10.2828 2.25073C10.1814 2.21412 10.0775 2.17949 9.97397 2.14775C9.86988 2.11588 9.76383 2.08624 9.65888 2.05965C9.5532 2.03283 9.44508 2.00822 9.33733 1.9865C9.22988 1.96484 9.1198 1.94545 9.01015 1.92889C8.90014 1.91233 8.78829 1.89834 8.67767 1.8873C8.56576 1.87608 8.45214 1.8675 8.33999 1.86192C8.11263 1.85064 7.88217 1.85064 7.65524 1.86192C7.54333 1.8675 7.42984 1.87608 7.31775 1.88724C7.2073 1.89828 7.09552 1.91233 6.98532 1.92889C6.87555 1.94545 6.76541 1.96484 6.65802 1.9865C6.55039 2.00822 6.44221 2.03283 6.33665 2.05959C6.23158 2.08624 6.12553 2.11588 6.0212 2.14781C5.91777 2.17949 5.81399 2.21412 5.71264 2.25073C5.61191 2.28703 5.51032 2.32646 5.41062 2.36793C5.31141 2.40928 5.21239 2.45338 5.11623 2.49899C5.02038 2.54442 4.92386 2.59309 4.82935 2.64362C4.73582 2.69361 4.64211 2.74666 4.55071 2.80133C4.45999 2.85552 4.36908 2.91289 4.28044 2.97176C4.19246 3.03021 4.10455 3.09172 4.01926 3.15443C3.93428 3.21696 3.84972 3.28237 3.76791 3.34881C3.68561 3.41554 3.60423 3.48485 3.52609 3.55476C3.44745 3.62492 3.36961 3.69789 3.29464 3.77164C3.21924 3.84576 3.145 3.92227 3.07394 3.99914C3.00214 4.0768 2.93163 4.15673 2.86453 4.23673C2.79615 4.31816 2.72961 4.4014 2.66666 4.48409C2.60342 4.56709 2.5409 4.65344 2.48076 4.74076C2.42112 4.82753 2.36281 4.91683 2.30756 5.00618C2.25182 5.09626 2.19785 5.18844 2.147 5.28025C2.09638 5.37183 2.04681 5.46671 1.99992 5.56224C1.95285 5.65808 1.90798 5.75548 1.86659 5.85162C1.82464 5.94889 1.78447 6.04881 1.74717 6.14867C1.71005 6.24799 1.67488 6.34995 1.64265 6.45185C1.61072 6.55248 1.58044 6.65678 1.55278 6.76192C1.52543 6.86634 1.50046 6.97262 1.47848 7.07776C1.45644 7.18338 1.43672 7.29164 1.41987 7.3996C1.40296 7.50834 1.38874 7.61822 1.37756 7.72617C1.36627 7.83545 1.35754 7.94719 1.3518 8.05827C1.34606 8.16917 1.34313 8.28229 1.34313 8.39457V15.5959C1.34313 15.7081 1.34606 15.8213 1.3518 15.9325C1.3576 16.0437 1.36627 16.1552 1.37756 16.264C1.38434 16.33 1.39216 16.3952 1.40089 16.4601L1.40894 16.5197L0.0772911 16.6924L0.0692934 16.6329C0.0588536 16.5549 0.0494516 16.4766 0.0412708 16.3979C0.0277173 16.267 0.0173386 16.133 0.0103787 15.9997C0.00347993 15.8657 0 15.7299 0 15.5959V8.39457C0 8.26051 0.00347993 8.12477 0.0103787 7.99112C0.0173386 7.85754 0.0277784 7.72335 0.0413318 7.59217C0.0548852 7.46123 0.0720407 7.32914 0.0922487 7.19952C0.112457 7.07014 0.136145 6.93985 0.162824 6.81239C0.189443 6.68463 0.219602 6.55668 0.252387 6.4321C0.285293 6.30644 0.321619 6.18084 0.360448 6.05883C0.399276 5.93623 0.441646 5.81339 0.486336 5.69373C0.531514 5.57281 0.579805 5.4526 0.629929 5.33642C0.680296 5.21952 0.734265 5.10244 0.790311 4.98836C0.846417 4.8741 0.905942 4.76002 0.967177 4.64936C1.0278 4.53984 1.09258 4.42912 1.15992 4.32032C1.22603 4.21338 1.29606 4.10602 1.36822 4.00118C1.44057 3.89604 1.51566 3.79235 1.59131 3.69303C1.66713 3.59335 1.74705 3.49349 1.82873 3.39621C1.90975 3.29978 1.99431 3.20382 2.08008 3.1111C2.1647 3.01959 2.25377 2.92777 2.3448 2.83817C2.43449 2.75002 2.52789 2.66246 2.62252 2.57785C2.71709 2.49341 2.81465 2.41024 2.91276 2.33066C3.01112 2.25091 3.11265 2.17241 3.2146 2.09734C3.31735 2.02185 3.42279 1.94809 3.52822 1.878C3.63421 1.80755 3.74337 1.73872 3.85265 1.67336C3.9626 1.60759 4.07537 1.54386 4.1877 1.48379C4.30107 1.42318 4.41713 1.36467 4.5327 1.30988C4.64864 1.25491 4.76769 1.20186 4.88668 1.15229C5.0067 1.10236 5.12887 1.05489 5.24999 1.0112C5.37198 0.967276 5.49701 0.925629 5.62155 0.887402C5.74695 0.848995 5.87467 0.813289 6.00129 0.781183C6.12889 0.748837 6.25899 0.719252 6.38805 0.693207C6.51785 0.667042 6.65027 0.643698 6.78177 0.623894C6.91395 0.603971 7.04851 0.587168 7.18172 0.573785C7.3161 0.560343 7.45249 0.550141 7.5871 0.54342ZM7.97888 7.72067C8.35131 7.72067 8.65435 8.01661 8.65435 8.38043V15.5778C8.65435 15.9416 8.35131 16.2376 7.97888 16.2376C7.60646 16.2376 7.30342 15.9416 7.30342 15.5778V8.38043C7.30342 8.01661 7.60646 7.72067 7.97888 7.72067ZM7.66585 5.32683C7.87702 5.30573 8.09112 5.30573 8.30216 5.32683C8.40575 5.33717 8.50996 5.3528 8.61178 5.37324C8.7125 5.39356 8.81335 5.41899 8.91132 5.44899C9.00843 5.47869 9.10499 5.51343 9.19831 5.55233C9.29066 5.59062 9.38239 5.63408 9.47106 5.6814C9.55875 5.72823 9.64529 5.77993 9.72834 5.83511C9.81095 5.88988 9.89168 5.94927 9.96836 6.01155C10.0449 6.07359 10.1193 6.14008 10.1895 6.20909C10.2594 6.2778 10.327 6.35084 10.3904 6.42635C10.4542 6.50239 10.5145 6.58175 10.5699 6.66236C10.6259 6.74382 10.6785 6.82894 10.7261 6.91527C10.7743 7.00226 10.8185 7.09249 10.8575 7.18338C10.8972 7.27548 10.9325 7.3704 10.9626 7.46551C10.9931 7.56205 11.019 7.661 11.0395 7.75959C11.0604 7.85968 11.0762 7.96218 11.0868 8.06414C11.0975 8.1676 11.1029 8.2728 11.1029 8.37692V13.2463H9.75751V8.37692C9.75751 8.31759 9.75439 8.25717 9.74833 8.19741C9.7424 8.13994 9.73335 8.08187 9.72149 8.02494C9.70974 7.96867 9.69507 7.91247 9.67776 7.85788C9.66094 7.80456 9.64095 7.75094 9.61844 7.69845C9.59606 7.6467 9.57098 7.59554 9.54389 7.54654C9.51674 7.49737 9.48684 7.44892 9.45504 7.40263C9.42342 7.35664 9.38899 7.31137 9.3526 7.26803C9.31665 7.22522 9.27812 7.18356 9.23818 7.14431C9.19801 7.10481 9.15557 7.06688 9.11202 7.03159C9.06842 6.99612 9.02243 6.96234 8.97528 6.93102C8.92777 6.89946 8.87854 6.87006 8.82894 6.84361C8.77867 6.81674 8.72669 6.79215 8.67434 6.77039C8.62138 6.74839 8.56659 6.72867 8.51167 6.71184C8.45627 6.69488 8.39921 6.68046 8.34203 6.66897C8.28449 6.65737 8.22529 6.64854 8.16609 6.64258C8.04696 6.63068 7.92111 6.63074 7.80198 6.64258C7.74284 6.64854 7.68352 6.65737 7.62579 6.66897C7.56874 6.68052 7.51174 6.69488 7.45658 6.71178C7.40154 6.72867 7.34681 6.74833 7.29409 6.77021C7.2415 6.79209 7.1894 6.81674 7.13913 6.84361C7.08947 6.87012 7.0403 6.89946 6.99303 6.93084C6.9457 6.96228 6.89983 6.996 6.85648 7.03123L6.80933 7.06959L5.9525 6.04984L5.99971 6.01155C6.07645 5.94927 6.15724 5.88982 6.23992 5.83493C6.32278 5.77987 6.40932 5.72823 6.49701 5.6814C6.58569 5.63408 6.67754 5.59056 6.77013 5.55215C6.8632 5.51337 6.9597 5.47869 7.05688 5.44893C7.15466 5.41905 7.25538 5.39362 7.35598 5.3733C7.45811 5.3528 7.56232 5.33717 7.66585 5.32683ZM7.43298 2.97119C7.8086 2.93349 8.18958 2.93343 8.56545 2.97119C8.65957 2.98069 8.75448 2.9926 8.84738 3.00673L8.90764 3.01593L8.70324 4.32338L8.64298 4.31418C8.57216 4.30347 8.50031 4.29439 8.42937 4.28724C8.1439 4.25868 7.85434 4.25874 7.569 4.2873C7.42889 4.30143 7.2886 4.32254 7.15202 4.3502C7.01655 4.37762 6.88113 4.41201 6.74938 4.45248C6.61897 4.49259 6.48917 4.53955 6.36339 4.59205C6.23877 4.64406 6.11513 4.70287 5.99582 4.76685C5.87731 4.83041 5.76043 4.90047 5.6485 4.97509C5.53731 5.04923 5.42818 5.12969 5.32418 5.21435C5.22018 5.29902 5.11948 5.38928 5.02487 5.4826C4.92971 5.57647 4.8381 5.67581 4.75258 5.77791C4.66694 5.88014 4.58526 5.98765 4.50993 6.09757C4.43405 6.20816 4.36299 6.32325 4.29888 6.43973C4.23386 6.5574 4.1742 6.67935 4.12138 6.80232C4.06789 6.92686 4.02025 7.05488 3.97981 7.18278C3.93863 7.31284 3.9038 7.44634 3.87605 7.57965C3.84793 7.71495 3.82646 7.85325 3.81225 7.99077C3.79779 8.131 3.79047 8.27369 3.79047 8.41494V12.083H2.44853V8.41494C2.44853 8.22877 2.45817 8.04098 2.4772 7.8568C2.49593 7.67544 2.52429 7.49276 2.5615 7.31387C2.59822 7.13738 2.6444 6.96083 2.69862 6.78915C2.75242 6.61922 2.81537 6.45001 2.88582 6.28615C2.9556 6.12367 3.03441 5.9627 3.11993 5.80768C3.20465 5.65398 3.29828 5.50221 3.39826 5.35657C3.49726 5.21219 3.6048 5.07052 3.7177 4.93558C3.8303 4.80131 3.95077 4.67064 4.07588 4.54719C4.2008 4.42404 4.33334 4.30528 4.4698 4.19421C4.60631 4.08315 4.74996 3.97714 4.89684 3.87918C5.04427 3.78093 5.19828 3.68862 5.35456 3.6048C5.51175 3.52043 5.67504 3.4428 5.83991 3.37395C6.00625 3.30444 6.1779 3.24244 6.35003 3.18953C6.52449 3.13595 6.70351 3.09043 6.88217 3.05435C7.06291 3.01773 7.24822 2.98977 7.43298 2.97119ZM13.0521 2.27815L13.099 2.3164C13.1966 2.39614 13.2939 2.47943 13.388 2.56404C13.4822 2.64877 13.5752 2.7365 13.6646 2.8249C13.7555 2.9148 13.8442 3.00687 13.9283 3.09846C14.0138 3.19142 14.098 3.28758 14.1787 3.38422C14.2599 3.48152 14.3394 3.58158 14.4153 3.68183C14.4908 3.78147 14.5654 3.88532 14.6374 3.99056C14.709 4.09519 14.7787 4.20272 14.8448 4.31024C14.9118 4.41932 14.9764 4.53027 15.0367 4.63996C15.0975 4.75055 15.1568 4.8648 15.2129 4.97954C15.2688 5.0941 15.3225 5.21154 15.3727 5.32868C15.4226 5.44504 15.4707 5.56531 15.5155 5.68613C15.5601 5.80628 15.6023 5.92955 15.6411 6.05259C15.6796 6.17448 15.7158 6.30028 15.7487 6.42627C15.7812 6.55117 15.8113 6.67938 15.8378 6.8074C15.8643 6.93519 15.888 7.06562 15.908 7.19497C15.9282 7.32523 15.9453 7.45782 15.9588 7.5891C15.9723 7.72007 15.9827 7.85435 15.9897 7.98827C15.9965 8.1225 16 8.25858 16 8.39286V11.4598H14.6623V8.39286C14.6623 8.28041 14.6594 8.167 14.6536 8.05557C14.6479 7.9442 14.6393 7.8324 14.628 7.72338C14.6169 7.61508 14.6027 7.50473 14.5858 7.3954C14.5691 7.28758 14.5494 7.17922 14.5274 7.07338C14.5056 6.96796 14.4807 6.86146 14.4534 6.75677C14.4258 6.65135 14.3958 6.5469 14.3641 6.44641C14.3318 6.34412 14.2968 6.24177 14.2598 6.14207C14.2227 6.04231 14.1828 5.94236 14.1411 5.84488C14.0998 5.74849 14.0551 5.65083 14.0082 5.55455C13.9614 5.45876 13.912 5.36368 13.8616 5.2721C13.8109 5.17991 13.7572 5.08754 13.7018 4.99752C13.6468 4.90792 13.5887 4.8185 13.5293 4.73166C13.4696 4.64435 13.4074 4.55781 13.3443 4.47447C13.2814 4.39136 13.215 4.30789 13.1471 4.22653C13.0802 4.14637 13.01 4.06621 12.9384 3.98827C12.8678 3.91142 12.7938 3.83469 12.7186 3.7603C12.6439 3.68634 12.5663 3.61327 12.4881 3.54297C12.4099 3.47262 12.3289 3.40322 12.2474 3.33665L12.2005 3.2984L13.0521 2.27815ZM10.32 3.39989L10.3749 3.42553C10.4724 3.47089 10.5698 3.51981 10.6645 3.57083C10.8199 3.65458 10.9731 3.74687 11.1199 3.84512C11.2664 3.94337 11.4095 4.04945 11.5452 4.16051C11.681 4.27164 11.8131 4.39047 11.9375 4.51381C12.062 4.63721 12.1819 4.76795 12.294 4.90224C12.4064 5.03719 12.5134 5.179 12.6122 5.32376C12.7116 5.4693 12.8048 5.62116 12.8893 5.77512C12.9743 5.93011 13.0527 6.09111 13.1223 6.25362C13.1924 6.41757 13.2551 6.58694 13.3086 6.75697C13.3626 6.92856 13.4085 7.10509 13.4451 7.28168C13.4666 7.3857 13.4852 7.49154 13.5005 7.59616L13.5092 7.65573L12.187 7.84531L12.1784 7.78581C12.1667 7.70663 12.1526 7.62649 12.1364 7.54761C12.1087 7.4144 12.074 7.28083 12.0331 7.15082C11.9929 7.02278 11.9454 6.89469 11.8922 6.77009C11.8396 6.64717 11.7802 6.52515 11.7156 6.40747C11.6516 6.2908 11.5809 6.17565 11.5055 6.06506C11.4303 5.95496 11.3489 5.84732 11.2637 5.74504C11.1786 5.64294 11.0875 5.5436 10.9927 5.44969C10.8984 5.35625 10.7981 5.26594 10.6946 5.18117C10.5911 5.09657 10.4824 5.01595 10.3715 4.94165C10.2603 4.8671 10.144 4.79713 10.026 4.73353C9.95395 4.69466 9.88023 4.65772 9.80693 4.62361L9.75197 4.59804L10.32 3.39989Z" fill="#718096"/>
</svg>
