<svg width="480" height="480" viewBox="0 0 480 480" fill="none" xmlns="http://www.w3.org/2000/svg">
<g id="Hubspot">
<g id="HubSpot">
<g id="Group">
<path id="Path" d="M91.8991 204.415V235.068H64.1506V204.415H51V277.535H64.1506V247.904H91.8991V277.535H105.05V204.415H91.8991Z" fill="#33475B"/>
<path id="Path_2" d="M147.145 253.907C147.145 260.008 142.271 264.955 136.259 264.955C130.247 264.955 125.374 260.008 125.374 253.907V222.615H112.789V253.907C112.789 266.992 123.241 277.599 136.133 277.599C149.026 277.599 159.477 266.992 159.477 253.907V222.615H146.893L147.145 253.907Z" fill="#33475B"/>
<path id="Path_3" d="M239.765 225.808C239.569 223.424 240.454 221.08 242.168 219.439C243.883 217.798 246.241 217.039 248.574 217.378C253.142 217.947 257.338 220.224 260.341 223.764L268.52 213.93C263.823 208.218 256.968 204.786 249.644 204.478C236.053 204.478 226.3 212.525 226.3 225.872C226.3 250.65 256.125 242.795 256.125 256.653C255.759 261.283 251.891 264.816 247.316 264.699C241.937 264.688 236.953 261.832 234.165 257.163L225.104 266.743C230.074 273.428 237.806 277.411 246.057 277.535C258.642 277.535 269.275 269.425 269.275 256.653C269.275 229.192 239.451 237.494 239.451 225.808" fill="#33475B"/>
<path id="Path_4" d="M424.126 265.849C416.764 265.849 414.688 262.656 414.688 257.675V235.706H426.139V224.595H414.688V209.907L402.103 215.654V260.357C402.103 271.788 409.906 277.535 420.602 277.535C422.267 277.566 423.932 277.438 425.573 277.152L428.53 265.657C427.146 265.657 425.51 265.657 424.126 265.657" fill="#33475B"/>
<path id="Shape" fill-rule="evenodd" clip-rule="evenodd" d="M179.99 228.937C183.824 224.888 189.185 222.703 194.713 222.934H194.965C201.974 223.069 208.644 226.024 213.506 231.15C218.368 236.276 221.024 243.153 220.889 250.267C220.792 257.737 217.734 264.852 212.407 270.007C207.079 275.162 199.93 277.921 192.574 277.663C185.544 277.383 178.92 274.25 174.188 268.967C169.456 263.684 167.012 256.693 167.405 249.564V204.862H179.99V228.937ZM181.821 255.903C184.019 261.304 189.208 264.827 194.965 264.827C198.731 264.844 202.348 263.338 205.017 260.641C207.685 257.945 209.185 254.28 209.185 250.458C209.211 244.615 205.762 239.333 200.451 237.079C195.139 234.825 189.012 236.044 184.932 240.167C180.852 244.289 179.624 250.502 181.821 255.903Z" fill="#33475B"/>
<path id="Shape_2" fill-rule="evenodd" clip-rule="evenodd" d="M302.687 222.296C317.78 222.082 330.194 234.31 330.436 249.628H330.687C330.822 256.742 328.166 263.619 323.304 268.745C318.442 273.871 311.773 276.826 304.763 276.961C299.247 277.233 293.889 275.039 290.103 270.958V295.161H277.518V250.458C277.107 243.319 279.543 236.312 284.277 231.014C289.011 225.717 295.646 222.575 302.687 222.296ZM310.065 262.968C315.386 260.738 318.858 255.471 318.858 249.628C318.875 245.806 317.39 242.135 314.734 239.427C312.077 236.718 308.466 235.196 304.701 235.196C298.943 235.17 293.739 238.67 291.518 244.061C289.297 249.452 290.498 255.67 294.56 259.811C298.622 263.952 304.743 265.198 310.065 262.968Z" fill="#33475B"/>
</g>
<path id="Shape_3" fill-rule="evenodd" clip-rule="evenodd" d="M370.856 209.498V222.267C382.352 223.872 391.633 232.569 394.092 244.042C396.552 255.514 391.666 267.319 381.86 273.597C372.053 279.874 359.415 279.288 350.218 272.128L339.994 282.471C340.248 283.32 340.376 284.202 340.373 285.088C340.51 290.128 336.584 294.326 331.603 294.466C326.621 294.606 322.47 290.636 322.33 285.597C322.19 280.557 326.114 276.357 331.096 276.214C331.972 276.264 332.84 276.414 333.683 276.661L344.034 266.191C337.52 256.807 337.344 244.348 343.592 234.78L309.575 208.03C307.946 208.99 306.095 209.497 304.21 209.498C298.222 209.496 293.353 204.615 293.297 198.557C293.241 192.5 298.018 187.527 304.006 187.411C309.993 187.295 314.955 192.079 315.128 198.134C315.131 199.063 315.003 199.987 314.75 200.88L349.335 228.141C353.089 225.031 357.602 223.002 362.399 222.267V209.498C359.073 207.83 356.988 204.38 357.035 200.624C357.035 195.194 361.386 190.793 366.754 190.793C372.121 190.793 376.473 195.194 376.473 200.624C376.474 204.438 374.28 207.903 370.856 209.498ZM352.427 249.847C352.427 257.781 358.785 264.212 366.627 264.212C370.399 264.229 374.02 262.721 376.687 260.023C379.354 257.326 380.844 253.662 380.828 249.847C380.828 241.914 374.47 235.483 366.627 235.483C358.785 235.483 352.427 241.914 352.427 249.847Z" fill="#FF7A59"/>
</g>
</g>
</svg>
