<svg width="480" height="480" viewBox="0 0 480 480" fill="none" xmlns="http://www.w3.org/2000/svg">
<g id="Mailchimp">
<g id="Mailchimp_2">
<path id="Fill 1" fill-rule="evenodd" clip-rule="evenodd" d="M277.256 204.391C278.674 204.221 280.034 204.214 281.282 204.391C282.005 202.733 282.129 199.875 281.479 196.763C280.513 192.138 279.205 189.339 276.502 189.774C273.799 190.21 273.699 193.561 274.665 198.186C275.209 200.789 276.178 203.013 277.256 204.391Z" fill="#1A1919"/>
<path id="Fill 2" fill-rule="evenodd" clip-rule="evenodd" d="M254.051 208.051C255.985 208.9 257.173 209.462 257.639 208.971C257.938 208.664 257.848 208.079 257.386 207.325C256.432 205.767 254.469 204.187 252.385 203.299C248.126 201.465 243.045 202.076 239.126 204.892C237.832 205.84 236.605 207.153 236.781 207.95C236.838 208.208 237.032 208.402 237.486 208.466C238.553 208.588 242.28 206.703 246.574 206.44C249.606 206.255 252.117 207.203 254.051 208.051Z" fill="#1A1919"/>
<path id="Fill 3" fill-rule="evenodd" clip-rule="evenodd" d="M250.161 210.271C247.642 210.669 246.252 211.499 245.361 212.271C244.6 212.937 244.129 213.672 244.133 214.189C244.135 214.435 244.241 214.577 244.326 214.648C244.441 214.75 244.577 214.806 244.74 214.806C245.309 214.806 246.583 214.294 246.583 214.294C250.089 213.04 252.401 213.191 254.693 213.453C255.959 213.595 256.557 213.674 256.835 213.24C256.917 213.115 257.017 212.845 256.763 212.434C256.173 211.477 253.63 209.859 250.161 210.271Z" fill="#1A1919"/>
<path id="Fill 4" fill-rule="evenodd" clip-rule="evenodd" d="M269.42 218.42C271.13 219.26 273.014 218.93 273.627 217.683C274.239 216.436 273.349 214.743 271.64 213.903C269.929 213.063 268.046 213.393 267.433 214.64C266.82 215.887 267.71 217.579 269.42 218.42Z" fill="#1A1919"/>
<path id="Fill 5" fill-rule="evenodd" clip-rule="evenodd" d="M280.415 208.812C279.026 208.789 277.873 210.314 277.841 212.219C277.809 214.124 278.909 215.688 280.298 215.712C281.688 215.735 282.84 214.209 282.873 212.305C282.905 210.399 281.805 208.835 280.415 208.812Z" fill="#1A1919"/>
<g id="Group 9">
<mask id="mask0_0_2229" style="mask-type:alpha" maskUnits="userSpaceOnUse" x="139" y="112" width="184" height="195">
<path id="Clip 7" fill-rule="evenodd" clip-rule="evenodd" d="M139.5 112.544H322.634V306.909H139.5V112.544Z" fill="white"/>
</mask>
<g mask="url(#mask0_0_2229)">
<path id="Fill 6" fill-rule="evenodd" clip-rule="evenodd" d="M187.092 243.167C186.746 242.734 186.178 242.866 185.628 242.994C185.245 243.084 184.81 243.185 184.333 243.176C183.31 243.157 182.445 242.72 181.959 241.974C181.326 241.002 181.363 239.553 182.062 237.893C182.156 237.67 182.267 237.421 182.388 237.151C183.502 234.651 185.367 230.466 183.273 226.479C181.697 223.478 179.127 221.609 176.036 221.216C173.069 220.84 170.015 221.941 168.067 224.09C164.993 227.481 164.513 232.095 165.107 233.726C165.325 234.323 165.666 234.488 165.913 234.521C166.436 234.592 167.209 234.211 167.694 232.909C167.729 232.815 167.775 232.669 167.833 232.485C168.048 231.796 168.45 230.513 169.109 229.485C169.903 228.244 171.139 227.39 172.59 227.08C174.068 226.763 175.579 227.045 176.845 227.873C178.997 229.282 179.827 231.92 178.908 234.438C178.432 235.74 177.661 238.229 177.83 240.275C178.175 244.415 180.722 246.077 183.009 246.254C185.234 246.338 186.788 245.09 187.182 244.176C187.414 243.637 187.218 243.308 187.092 243.167Z" fill="#1A1919"/>
<path id="Fill 8" fill-rule="evenodd" clip-rule="evenodd" d="M208.239 167.128C215.494 158.744 224.426 151.455 232.426 147.363C232.703 147.221 232.997 147.521 232.846 147.794C232.211 148.944 230.988 151.407 230.6 153.276C230.54 153.567 230.857 153.786 231.103 153.619C236.08 150.226 244.739 146.591 252.333 146.123C252.66 146.103 252.817 146.521 252.558 146.721C251.403 147.606 250.14 148.832 249.217 150.073C249.06 150.284 249.208 150.587 249.471 150.589C254.804 150.627 262.322 152.494 267.221 155.241C267.554 155.428 267.317 156.07 266.946 155.985C259.532 154.286 247.396 152.997 234.79 156.071C223.536 158.816 214.946 163.054 208.68 167.612C208.363 167.843 207.983 167.424 208.239 167.128ZM274.292 251.888C274.507 251.798 274.655 251.551 274.63 251.308C274.6 251.008 274.332 250.79 274.033 250.821C274.033 250.821 258.55 253.113 243.923 247.758C245.516 242.58 249.753 244.45 256.156 244.967C267.697 245.655 278.041 243.969 285.685 241.775C292.309 239.873 301.01 236.126 307.767 230.792C310.047 235.799 310.852 241.309 310.852 241.309C310.852 241.309 312.616 240.993 314.091 241.901C315.484 242.758 316.506 244.541 315.808 249.149C314.387 257.758 310.727 264.746 304.577 271.174C300.834 275.204 296.288 278.707 291.087 281.255C288.326 282.706 285.385 283.961 282.279 284.976C259.093 292.548 235.36 284.223 227.71 266.345C227.099 265.001 226.583 263.594 226.176 262.122C222.915 250.341 225.683 236.206 234.336 227.309C234.336 227.309 234.334 227.306 234.335 227.305C234.868 226.738 235.412 226.071 235.412 225.231C235.412 224.529 234.966 223.788 234.579 223.263C231.553 218.873 221.068 211.392 223.172 196.913C224.684 186.512 233.78 179.187 242.261 179.621C242.977 179.658 243.695 179.702 244.41 179.745C248.086 179.962 251.292 180.434 254.317 180.56C259.381 180.779 263.935 180.043 269.328 175.549C271.147 174.033 272.605 172.719 275.074 172.3C275.333 172.256 275.978 172.025 277.268 172.085C278.585 172.156 279.838 172.517 280.965 173.267C285.288 176.144 285.901 183.113 286.125 188.21C286.253 191.12 286.605 198.16 286.725 200.181C287 204.802 288.215 205.454 290.673 206.263C292.055 206.718 293.338 207.057 295.229 207.588C300.952 209.195 304.345 210.825 306.484 212.919C307.76 214.228 308.353 215.618 308.536 216.944C309.211 221.868 304.714 227.95 292.809 233.475C279.794 239.516 264.007 241.045 253.099 239.83C252.261 239.737 249.287 239.4 249.277 239.398C240.551 238.223 235.574 249.5 240.81 257.226C244.185 262.204 253.378 265.445 262.576 265.447C283.665 265.45 299.874 256.444 305.904 248.666C306.084 248.433 306.102 248.408 306.387 247.979C306.683 247.531 306.438 247.285 306.069 247.538C301.142 250.909 279.262 264.291 255.857 260.265C255.857 260.265 253.012 259.797 250.417 258.787C248.353 257.984 244.036 255.999 243.511 251.568C262.399 257.41 274.292 251.888 274.292 251.888ZM170.547 207C163.979 208.277 158.189 212 154.648 217.143C152.533 215.378 148.59 211.961 147.894 210.63C142.242 199.897 154.063 179.031 162.32 167.247C182.728 138.124 214.691 116.081 229.487 120.08C231.892 120.761 239.859 129.998 239.859 129.998C239.859 129.998 225.069 138.204 211.352 149.643C192.871 163.874 178.911 184.557 170.547 207ZM181.585 256.249C180.591 256.419 179.577 256.486 178.554 256.462C168.671 256.197 157.994 247.299 156.934 236.746C155.761 225.082 161.721 216.106 172.272 213.978C173.534 213.723 175.059 213.577 176.702 213.662C182.615 213.986 191.327 218.526 193.317 231.405C195.08 242.812 192.28 254.426 181.585 256.249ZM315.473 235.596C315.388 235.296 314.838 233.28 314.08 230.851C313.321 228.421 312.537 226.711 312.537 226.711C315.576 222.16 315.631 218.089 315.227 215.785C314.795 212.927 313.606 210.492 311.208 207.975C308.81 205.458 303.907 202.88 297.015 200.945C296.227 200.724 293.628 200.011 293.399 199.941C293.382 199.792 293.209 191.416 293.052 187.821C292.938 185.222 292.715 181.165 291.456 177.168C289.956 171.758 287.342 167.025 284.078 163.996C293.083 154.661 298.705 144.379 298.691 135.557C298.665 118.593 277.831 113.459 252.156 124.091C252.129 124.102 246.754 126.381 246.716 126.4C246.692 126.377 236.881 116.751 236.734 116.622C207.461 91.0895 115.935 192.822 145.197 217.53L151.593 222.947C149.933 227.245 149.282 232.168 149.814 237.462C150.498 244.262 154.006 250.781 159.691 255.818C165.087 260.599 172.184 263.625 179.069 263.619C190.457 289.861 216.475 305.96 246.982 306.865C279.706 307.837 307.176 292.482 318.686 264.899C319.439 262.963 322.634 254.24 322.634 246.541C322.634 238.803 318.26 235.596 315.473 235.596Z" fill="#1A1919"/>
</g>
</g>
<path id="Fill 10" fill-rule="evenodd" clip-rule="evenodd" d="M166.37 337.258C162.768 337.258 160.986 340.093 160.168 341.921C159.711 342.942 159.584 343.749 159.213 343.749C158.691 343.749 159.065 343.048 158.638 341.492C158.076 339.445 156.381 337.258 152.782 337.258C148.998 337.258 147.378 340.455 146.61 342.212C146.084 343.413 146.084 343.749 145.679 343.749C145.094 343.749 145.579 342.795 145.843 341.674C146.361 339.465 145.967 337.777 145.967 337.777H139.968V360.334H148.156C148.156 360.334 148.156 350.907 148.156 349.111C148.156 346.898 149.082 344.089 150.669 344.089C152.503 344.089 152.87 345.497 152.87 348.105C152.87 350.47 152.87 360.339 152.87 360.339H161.091C161.091 360.339 161.091 350.855 161.091 349.111C161.091 347.141 161.896 344.089 163.616 344.089C165.476 344.089 165.805 346.067 165.805 348.105C165.805 350.143 165.805 360.334 165.805 360.334H173.879C173.879 360.334 173.879 351.397 173.879 347.069C173.879 341.183 171.803 337.258 166.37 337.258Z" fill="#0A0B09"/>
<path id="Fill 11" fill-rule="evenodd" clip-rule="evenodd" d="M305.349 337.258C301.747 337.258 299.965 340.093 299.148 341.921C298.691 342.942 298.563 343.749 298.193 343.749C297.671 343.749 298.02 342.858 297.618 341.492C297.017 339.455 295.525 337.258 291.762 337.258C287.978 337.258 286.358 340.455 285.589 342.212C285.064 343.413 285.063 343.749 284.659 343.749C284.074 343.749 284.558 342.795 284.822 341.674C285.341 339.465 284.946 337.777 284.946 337.777H278.948V360.334H287.136C287.136 360.334 287.136 350.907 287.136 349.111C287.136 346.898 288.062 344.089 289.649 344.089C291.483 344.089 291.85 345.497 291.85 348.105C291.85 350.47 291.85 360.339 291.85 360.339H300.071C300.071 360.339 300.071 350.855 300.071 349.111C300.071 347.141 300.875 344.089 302.596 344.089C304.456 344.089 304.785 346.067 304.785 348.105C304.785 350.143 304.785 360.334 304.785 360.334H312.858C312.858 360.334 312.858 351.397 312.858 347.069C312.858 341.183 310.783 337.258 305.349 337.258Z" fill="#0A0B09"/>
<path id="Fill 12" fill-rule="evenodd" clip-rule="evenodd" d="M185.866 355.063C183.908 355.515 182.893 354.912 182.893 353.613C182.893 351.835 184.732 351.124 187.356 351.124C188.513 351.124 189.602 351.224 189.602 351.224C189.602 351.985 187.95 354.582 185.866 355.063ZM187.859 337.263C181.587 337.263 177.087 339.569 177.087 339.569V346.347C177.087 346.347 182.057 343.49 186.089 343.49C189.307 343.49 189.702 345.225 189.555 346.666C189.555 346.666 188.628 346.421 185.795 346.421C179.122 346.421 175.753 349.453 175.753 354.317C175.753 358.93 179.539 360.859 182.729 360.859C187.383 360.859 189.429 357.731 190.059 356.247C190.495 355.217 190.574 354.524 190.966 354.524C191.413 354.524 191.263 355.021 191.241 356.045C191.203 357.84 191.288 359.197 191.572 360.339H197.743V349.238C197.743 342.307 195.291 337.263 187.859 337.263Z" fill="#0A0B09"/>
<path id="Fill 13" fill-rule="evenodd" clip-rule="evenodd" d="M211.231 360.339H219.419V330.949H211.231V360.339Z" fill="#0A0B09"/>
<path id="Fill 14" fill-rule="evenodd" clip-rule="evenodd" d="M228.432 349.061C228.432 347.033 230.316 345.187 233.775 345.187C237.544 345.187 240.576 347.002 241.256 347.414V339.569C241.256 339.569 238.861 337.263 232.975 337.263C226.769 337.263 221.602 340.894 221.602 348.71C221.602 356.525 226.291 360.859 232.958 360.859C238.165 360.859 241.269 357.997 241.269 357.997V350.546C240.287 351.096 237.551 352.994 233.813 352.994C229.855 352.994 228.432 351.174 228.432 349.061Z" fill="#0A0B09"/>
<path id="Fill 15" fill-rule="evenodd" clip-rule="evenodd" d="M257.843 337.263C253.103 337.263 251.3 341.755 250.936 342.535C250.571 343.315 250.392 343.763 250.094 343.754C249.576 343.737 249.937 342.796 250.139 342.187C250.52 341.037 251.328 338.018 251.328 334.307C251.328 331.791 250.987 330.949 250.987 330.949H243.919V360.339H252.107C252.107 360.339 252.107 350.944 252.107 349.117C252.107 347.289 252.837 344.093 254.899 344.093C256.608 344.093 257.143 345.36 257.143 347.909C257.143 350.458 257.143 360.339 257.143 360.339H265.331C265.331 360.339 265.331 353.465 265.331 348.4C265.331 342.609 264.371 337.263 257.843 337.263Z" fill="#0A0B09"/>
<path id="Fill 16" fill-rule="evenodd" clip-rule="evenodd" d="M267.992 337.808V360.339H276.18V337.808C276.18 337.808 274.804 338.614 272.095 338.614C269.386 338.614 267.992 337.808 267.992 337.808Z" fill="#0A0B09"/>
<path id="Fill 17" fill-rule="evenodd" clip-rule="evenodd" d="M272.062 330.721C269.294 330.721 267.05 332.185 267.05 333.992C267.05 335.799 269.294 337.263 272.062 337.263C274.83 337.263 277.074 335.799 277.074 333.992C277.074 332.185 274.83 330.721 272.062 330.721Z" fill="#0A0B09"/>
<path id="Fill 18" fill-rule="evenodd" clip-rule="evenodd" d="M200.394 337.808V360.339H208.582V337.808C208.582 337.808 207.205 338.614 204.496 338.614C201.786 338.614 200.394 337.808 200.394 337.808Z" fill="#0A0B09"/>
<path id="Fill 19" fill-rule="evenodd" clip-rule="evenodd" d="M204.463 330.721C201.695 330.721 199.451 332.185 199.451 333.992C199.451 335.799 201.695 337.263 204.463 337.263C207.231 337.263 209.475 335.799 209.475 333.992C209.475 332.185 207.231 330.721 204.463 330.721Z" fill="#0A0B09"/>
<path id="Fill 20" fill-rule="evenodd" clip-rule="evenodd" d="M326.879 355.492C325.001 355.492 323.619 353.11 323.619 349.792C323.619 346.569 325.038 344.093 326.814 344.093C329.093 344.093 330.064 346.183 330.064 349.792C330.064 353.546 329.169 355.492 326.879 355.492ZM329.126 337.258C324.917 337.258 322.988 340.414 322.15 342.212C321.595 343.4 321.623 343.749 321.219 343.749C320.634 343.749 321.119 342.795 321.382 341.674C321.901 339.465 321.507 337.777 321.507 337.777H315.508V366.564H323.696C323.696 366.564 323.696 361.854 323.696 357.437C324.665 359.081 326.46 360.837 329.227 360.837C335.147 360.837 338.128 355.827 338.128 349.059C338.128 341.387 334.56 337.258 329.126 337.258Z" fill="#0A0B09"/>
</g>
</g>
</svg>
