<svg width="480" height="480" viewBox="0 0 480 480" fill="none" xmlns="http://www.w3.org/2000/svg">
<g id="Mariadb">
<g id="https___mariadb.com_wp-content_uploads_2019_11_mariadb-logo-vertical_blue">
<path id="Path" d="M147.868 315.575L158.268 355.797H150.417L143.49 326.824L130.431 355.797H123.8L110.814 326.99L103.684 355.797H96L106.307 315.575H113.105L127.143 346.718L141.126 315.575H147.868Z" fill="#003545"/>
<path id="Shape" fill-rule="evenodd" clip-rule="evenodd" d="M187.924 326.436V331.119C185.753 327.665 181.181 325.818 175.668 325.753C165.998 325.753 160.456 332.338 160.456 340.53C160.456 349.027 166.303 356.416 176.785 356.416C181.8 356.416 185.919 354.467 187.924 351.068V355.797H195.506V326.436H187.924ZM178.503 350.957C171.927 350.957 168.528 346.33 168.528 340.927H168.538C168.538 335.737 171.826 331.174 178.143 331.174C184.737 331.174 188.302 335.746 188.302 341.094C188.302 346.441 184.848 350.957 178.503 350.957Z" fill="#003545"/>
<path id="Path_2" d="M212.602 355.797H205.028V326.436H212.602V333.012C214.372 328.712 218.536 325.882 223.186 325.818C224.799 325.796 226.402 326.058 227.924 326.594L226.308 332.135C224.999 331.788 223.653 331.602 222.299 331.581C216.832 331.581 212.602 335.7 212.602 341.74V355.797Z" fill="#003545"/>
<path id="Shape_2" fill-rule="evenodd" clip-rule="evenodd" d="M232.875 315.819C232.103 316.57 231.681 317.611 231.711 318.688C231.676 319.771 232.095 320.82 232.866 321.583C233.637 322.345 234.691 322.752 235.774 322.705C236.852 322.789 237.916 322.413 238.702 321.671C239.488 320.928 239.924 319.889 239.903 318.808C239.924 317.711 239.493 316.655 238.713 315.885C237.932 315.115 236.87 314.699 235.774 314.735C234.699 314.675 233.647 315.068 232.875 315.819ZM239.626 326.436H232.043V348.334C232.043 355.547 235.442 356.471 238.619 356.471C240.335 356.49 242.038 356.177 243.634 355.547L242.461 350.006C241.984 350.105 241.498 350.16 241.011 350.172C239.903 350.172 239.626 349.221 239.626 347.891V326.436Z" fill="#003545"/>
<path id="Shape_3" fill-rule="evenodd" clip-rule="evenodd" d="M273.493 326.436V331.119C271.323 327.665 266.751 325.818 261.265 325.753C251.595 325.753 246.053 332.338 246.053 340.53C246.053 349.027 251.909 356.416 262.382 356.416C267.397 356.416 271.516 354.467 273.521 351.068V355.797H281.103V326.436H273.493ZM264.072 350.957C257.497 350.957 254.098 346.33 254.098 340.927H254.107C254.107 335.737 257.395 331.174 263.722 331.174C270.307 331.174 273.881 335.746 273.881 341.094C273.881 346.441 270.427 350.957 264.072 350.957Z" fill="#003545"/>
<path id="Shape_4" fill-rule="evenodd" clip-rule="evenodd" d="M310.88 315.575H292.713V355.797H312.219C325.352 355.797 333.775 347.836 333.664 335.681C333.775 323.989 326.146 315.575 310.88 315.575ZM297.728 352.287V319.14H311.581C322.563 319.14 328.354 325.937 328.354 335.57C328.354 344.095 323.726 352.287 311.581 352.287H297.728Z" fill="#003545"/>
<path id="Shape_5" fill-rule="evenodd" clip-rule="evenodd" d="M364.641 355.797H341.551V315.575H362.378C370.339 315.575 377.922 317.071 377.811 325.993C377.811 332.282 373.904 334.019 369.785 334.684C375.631 335.182 379.15 338.914 379.15 344.935C379.187 353.959 371.272 355.797 364.641 355.797ZM362.914 333.123C370.884 333.123 372.667 330.057 372.667 326.159C372.667 320.304 369.102 318.974 362.914 318.974H346.363V333.123H362.914ZM346.363 336.522H363.135C367.984 336.522 373.941 337.473 373.941 344.603C373.941 350.782 368.76 352.398 363.856 352.398H346.363V336.522Z" fill="#003545"/>
<path id="Path_3" d="M380.924 123.877C380.188 123.271 379.253 122.958 378.301 123C375.687 123 372.307 124.773 370.487 125.725L369.767 126.094C366.715 127.571 363.392 128.408 360.005 128.551C356.532 128.662 353.54 128.865 349.642 129.271C326.553 131.645 316.255 149.34 306.336 166.454C300.933 175.764 295.354 185.434 287.707 192.822C286.125 194.357 284.443 195.785 282.673 197.099C274.758 202.982 264.821 207.184 257.09 210.158C249.646 213.003 241.519 215.561 233.668 218.036C226.474 220.299 219.685 222.442 213.442 224.76C210.625 225.803 208.233 226.607 206.118 227.309C200.429 229.156 196.328 230.569 190.334 234.697C187.998 236.295 185.652 238.022 184.063 239.315C179.305 243.112 175.094 247.547 171.549 252.495C168.5 257.059 164.977 261.288 161.038 265.111C159.773 266.348 157.529 266.958 154.167 266.958C150.232 266.958 145.458 266.145 140.406 265.286C135.197 264.363 129.812 263.485 125.194 263.485C121.445 263.485 118.572 264.095 116.43 265.333C116.43 265.333 112.818 267.438 111.294 270.163L112.791 270.837C115.111 272.095 117.259 273.647 119.182 275.455C121.188 277.308 123.423 278.897 125.832 280.184C126.601 280.466 127.3 280.91 127.882 281.486C127.254 282.409 126.33 283.601 125.361 284.875C120.031 291.848 116.919 296.254 118.702 298.655C119.556 299.099 120.51 299.315 121.472 299.283C133.091 299.283 139.334 296.263 147.231 292.44C149.521 291.331 151.849 290.195 154.619 289.022C159.237 287.018 164.206 283.823 169.48 280.442C176.379 275.944 183.592 271.327 190.593 269.101C196.346 267.346 202.339 266.505 208.353 266.607C215.742 266.607 223.518 267.595 231.018 268.556C236.605 269.276 242.396 270.015 248.076 270.357C250.284 270.486 252.325 270.551 254.31 270.551C256.967 270.559 259.621 270.42 262.262 270.135L262.9 269.913C266.88 267.466 268.746 262.211 270.556 257.131C271.72 253.862 272.699 250.925 274.25 249.059C274.342 248.968 274.441 248.885 274.546 248.81C274.696 248.726 274.883 248.757 274.999 248.884C274.999 248.884 274.999 248.93 274.999 249.031C274.075 268.898 266.077 281.514 257.986 292.726L252.583 298.517C252.583 298.517 260.147 298.517 264.451 296.854C280.152 292.162 292.002 281.818 300.628 265.323C302.755 261.089 304.657 256.745 306.326 252.31C306.474 251.941 307.832 251.257 307.702 253.169C307.656 253.732 307.619 254.36 307.573 255.016C307.573 255.404 307.573 255.801 307.499 256.198C307.278 258.969 306.622 264.825 306.622 264.825L311.471 262.229C323.163 254.841 332.177 239.934 339.012 216.743C341.856 207.082 343.944 197.487 345.781 189.036C347.98 178.876 349.873 170.167 352.043 166.787C355.451 161.485 360.651 157.902 365.685 154.42C366.368 153.949 367.061 153.497 367.735 152.998C374.061 148.555 380.351 143.43 381.736 133.871V133.658C382.743 126.528 381.893 124.709 380.924 123.877Z" fill="#003545"/>
</g>
</g>
</svg>
