<svg width="480" height="480" viewBox="0 0 480 480" fill="none" xmlns="http://www.w3.org/2000/svg">
<g id="Mongodb">
<g id="MongoDB">
<path id="Path" d="M95.0964 228.942C89.8401 205.754 78.8846 199.581 76.0899 195.218C74.9375 193.295 73.9167 191.297 73.0344 189.237C72.8867 191.297 72.6155 192.595 70.8645 194.157C67.3489 197.291 52.4177 209.459 51.1612 235.805C49.9904 260.37 69.22 275.518 71.7606 277.083C73.7141 278.045 76.0934 277.104 77.2538 276.222C86.5236 269.86 99.1888 252.9 95.1067 228.942" fill="#10AA50"/>
<path id="Path_2" d="M73.8307 264.003C73.3466 270.083 72.9999 273.616 71.7708 277.09C71.7708 277.09 72.5776 282.879 73.144 289.01H75.1491C75.6273 284.692 76.3576 280.406 77.336 276.173C74.7405 274.896 73.9303 269.338 73.8307 264.003Z" fill="#B8C4C2"/>
<path id="Path_3" d="M77.333 276.177C74.71 274.965 73.9513 269.29 73.8345 264.003C74.4832 255.281 74.6723 246.531 74.401 237.79C74.2637 233.203 74.4663 195.307 73.2715 189.759C74.0888 191.638 75.0304 193.46 76.0902 195.214C78.8848 199.581 89.8437 205.754 95.0966 228.942C99.189 252.858 86.5925 269.774 77.333 276.177Z" fill="#12924F"/>
<path id="Shape" fill-rule="evenodd" clip-rule="evenodd" d="M417.366 262.123C417.38 265.258 419.925 267.793 423.061 267.793C424.591 267.813 426.064 267.209 427.139 266.119C428.214 265.029 428.798 263.548 428.756 262.018C428.713 258.883 426.144 256.373 423.009 256.402C419.874 256.431 417.351 258.988 417.366 262.123ZM418.248 260.09C419.062 258.155 420.962 256.903 423.061 256.916C424.439 256.902 425.765 257.447 426.735 258.426C427.705 259.406 428.238 260.736 428.211 262.114C428.205 264.213 426.935 266.101 424.993 266.897C423.051 267.693 420.821 267.24 419.344 265.749C417.867 264.258 417.434 262.024 418.248 260.09ZM424.434 265.699L422.965 262.53H421.78V265.699H420.918V258.489H423.044C424.626 258.489 425.285 259.176 425.285 260.504C425.285 261.562 424.788 262.221 423.861 262.423L425.378 265.688L424.434 265.699ZM423.061 261.785H421.814V259.289H422.951C424.087 259.289 424.455 259.601 424.455 260.521C424.455 261.441 424.07 261.785 423.061 261.785Z" fill="#21313C"/>
<path id="Shape_2" fill-rule="evenodd" clip-rule="evenodd" d="M326.709 222.364C325.364 222.318 324.186 222.278 323.651 222.278H323.62C323.253 222.704 322.127 224.671 322.271 225.107C323.655 225.253 325.03 225.471 326.391 225.76C328.31 226.196 329.258 226.776 329.481 229.021C329.592 231.089 329.575 236.597 329.561 241.007C329.557 242.324 329.553 243.543 329.553 244.543C329.553 245.781 329.556 246.99 329.559 248.167C329.57 252.782 329.58 256.917 329.405 260.501C329.258 262.894 328.945 263.573 327.613 264.119C326.823 264.445 326.37 264.514 324.654 264.706C324.139 264.765 323.304 267.027 323.6 267.607H323.73C325.963 267.633 328.353 267.668 330.703 267.702C334.992 267.764 339.152 267.824 341.995 267.824C350.266 267.824 356.071 265.939 360.534 262.602C365.022 259.412 369.485 253.754 369.485 243.963C369.485 237.072 366.972 231.418 362.275 227.353C358.392 224.019 352.961 222.278 346.506 222.278C342.059 222.278 339.23 222.35 336.841 222.411C335.093 222.456 333.58 222.495 331.839 222.495C330.581 222.495 328.498 222.424 326.709 222.364ZM345.627 264.342C342.912 264.342 339.832 263.834 338.29 262.602V262.615C337.339 261.973 336.9 260.442 336.824 259.57C336.68 258.54 336.68 250.143 336.68 244.121C336.68 238.246 336.68 228.311 336.824 227.006C336.925 226.598 337.158 226.236 337.487 225.976C338.29 225.612 339.705 225.54 341.078 225.54C345.847 225.54 350.029 226.34 353.256 228.369C358.976 231.85 361.764 237.797 361.764 245.123C361.764 252.748 359.401 257.524 355.968 260.645C352.597 263.69 349.146 264.342 345.627 264.342Z" fill="#21313C"/>
<path id="Shape_3" fill-rule="evenodd" clip-rule="evenodd" d="M375.252 222.443C374.858 222.421 374.589 222.405 374.412 222.405H374.415C374.051 222.694 372.922 224.87 373.289 225.234C373.767 225.305 374.284 225.375 374.801 225.446C375.872 225.592 376.946 225.739 377.687 225.887C379.081 226.247 379.816 226.903 379.888 228.932C379.934 230.548 379.923 233.189 379.908 236.823C379.899 239.064 379.888 241.682 379.888 244.67C379.888 250.4 379.888 258.451 379.74 260.7C379.52 263.312 379.311 263.879 377.553 264.312C376.47 264.623 375.353 264.799 374.226 264.833C373.787 265.194 372.801 267.518 373.316 267.734C376.24 267.702 380.554 267.81 384.264 267.903C386.791 267.967 389.039 268.023 390.376 268.023C394.692 268.023 398.959 267.518 402.393 265.994C408.04 263.529 411.927 259.611 411.927 253.373C411.927 246.991 407.161 243.65 401.733 242.277C401.514 242.205 401.514 242.061 401.733 241.989C405.548 240.392 408.48 237.041 408.48 232.921C408.48 224.51 400.707 222.477 395.059 222.477C392.809 222.477 390.737 222.513 388.647 222.549C386.522 222.585 384.379 222.622 382.013 222.622C378.357 222.622 376.333 222.506 375.252 222.443ZM387.664 225.959C387.372 226.031 387.005 226.759 387.005 227.119C386.929 229.732 386.857 236.547 386.857 241.261C386.895 241.445 387.04 241.588 387.225 241.625C388.176 241.697 390.524 241.772 392.505 241.772C395.293 241.772 396.906 241.408 397.785 240.972C400.134 239.812 401.218 237.271 401.218 234.518C401.218 228.208 396.817 225.815 390.29 225.815C389.408 225.803 388.526 225.852 387.65 225.959H387.664ZM404.301 254.97C404.301 248.587 399.605 244.962 391.022 244.962C390.963 244.962 390.843 244.96 390.681 244.957H390.681C389.834 244.944 387.827 244.913 387.283 245.034C387.063 245.106 386.843 245.25 386.843 245.398C386.843 246.272 386.841 247.247 386.838 248.273V248.274V248.274C386.825 252.608 386.811 257.846 386.991 260.192C387.139 261.424 388.021 263.165 389.116 263.673C390.29 264.325 392.931 264.469 394.764 264.469C399.825 264.469 404.301 261.644 404.301 254.97Z" fill="#21313C"/>
<path id="Path_4" d="M111.339 267.793C111.15 267.329 111.074 266.826 111.116 266.327C111.1 265.986 111.177 265.648 111.339 265.348C112.288 265.212 113.228 265.02 114.155 264.775C115.452 264.452 115.94 263.745 116.015 262.09C116.228 258.18 116.242 250.843 116.167 245.686V245.535C116.167 244.979 116.167 244.224 115.48 243.691C114.273 242.934 112.963 242.356 111.59 241.975C110.975 241.793 110.636 241.47 110.653 241.093C110.67 240.715 111.058 240.269 111.858 240.111C113.983 239.894 119.552 238.566 121.739 237.556C121.964 237.85 122.068 238.218 122.03 238.586C122.03 238.813 121.996 239.053 121.972 239.3C121.91 240.028 121.842 240.856 121.842 241.68C121.869 241.884 122.01 242.055 122.205 242.121C122.4 242.187 122.616 242.137 122.762 241.992C126.926 238.727 130.658 237.563 132.571 237.563C135.719 237.563 138.17 239.067 140.069 242.164C140.157 242.316 140.319 242.411 140.494 242.414C140.654 242.413 140.803 242.333 140.893 242.201C144.721 239.297 148.515 237.563 151.055 237.563C157.056 237.563 160.644 242.057 160.644 249.579C160.644 251.742 160.624 254.486 160.603 257.043C160.586 259.289 160.569 261.393 160.569 262.849C160.569 263.192 161.042 264.181 161.753 264.377C162.632 264.806 163.899 265.026 165.502 265.3H165.564C165.684 265.733 165.43 267.412 165.186 267.755C164.788 267.755 164.239 267.721 163.552 267.686C162.306 267.625 160.596 267.539 158.608 267.539C154.619 267.539 152.535 267.614 150.544 267.745C150.393 267.247 150.341 265.64 150.523 265.304C151.348 265.175 152.164 264.997 152.967 264.772C154.238 264.353 154.605 263.776 154.684 262.09C154.715 260.892 154.945 250.335 154.536 247.829C154.159 245.23 152.202 242.188 147.921 242.188C146.331 242.188 143.766 242.85 141.322 244.704C141.17 244.876 141.085 245.097 141.082 245.326V245.377C141.37 246.73 141.37 248.309 141.37 250.695C141.37 252.069 141.37 253.5 141.353 254.932C141.336 257.843 141.322 260.59 141.37 262.667C141.37 264.082 142.225 264.421 142.915 264.693C143.289 264.775 143.584 264.847 143.883 264.916C144.456 265.057 145.054 265.201 145.943 265.342C146.075 265.945 146.063 266.57 145.909 267.168C145.872 267.392 145.784 267.605 145.651 267.789C143.433 267.714 141.157 267.649 137.871 267.649C136.876 267.649 135.252 267.69 133.817 267.728C132.653 267.759 131.554 267.789 130.929 267.793C130.76 267.394 130.685 266.962 130.71 266.529C130.675 266.122 130.754 265.713 130.94 265.348L131.822 265.187C132.591 265.05 133.257 264.933 133.882 264.775C134.967 264.432 135.376 263.841 135.454 262.458C135.667 259.23 135.832 249.93 135.375 247.602C134.6 243.867 132.474 241.971 129.055 241.971C127.053 241.971 124.523 242.936 122.456 244.485C122.054 244.876 121.834 245.417 121.849 245.978C121.849 247.087 121.849 248.405 121.849 249.82C121.849 254.489 121.818 260.302 121.931 262.815C122 263.591 122.274 264.511 123.727 264.847C124.046 264.94 124.595 265.029 125.234 265.136C125.601 265.197 126.003 265.263 126.418 265.338C126.55 266.16 126.483 267.002 126.222 267.793C125.584 267.793 124.798 267.752 123.898 267.714C122.525 267.652 120.808 267.577 118.868 267.577C116.575 267.577 114.979 267.652 113.698 267.714C112.836 267.755 112.091 267.789 111.346 267.793" fill="#21313C"/>
<path id="Shape_4" fill-rule="evenodd" clip-rule="evenodd" d="M171.188 252.796C171.188 260.36 175.112 268.445 186.132 268.445C189.188 268.445 192.892 267.034 195.025 265.729C199.464 262.825 201.809 258.176 201.809 252.292C201.809 243.63 195.934 237.584 187.526 237.584C184.017 237.656 180.592 238.668 177.608 240.516C173.347 243.382 171.188 247.513 171.188 252.796ZM181.463 241.652C182.507 240.984 183.726 240.641 184.965 240.667H184.958C191.155 240.667 195.32 246.301 195.32 254.681C195.32 259.055 194.324 262.179 192.45 263.707C191.211 264.777 189.615 265.342 187.979 265.29C181.879 265.29 177.618 259.347 177.618 250.839C177.618 246.294 178.916 243.201 181.463 241.652Z" fill="#21313C"/>
<path id="Shape_5" fill-rule="evenodd" clip-rule="evenodd" d="M283.393 252.8C283.393 260.36 287.317 268.445 298.338 268.445C301.394 268.445 305.098 267.034 307.23 265.726C311.669 262.825 314.014 258.18 314.014 252.288C314.014 243.633 308.14 237.584 299.732 237.584C296.224 237.654 292.799 238.667 289.817 240.516C285.553 243.382 283.393 247.509 283.393 252.8ZM293.655 241.652C294.7 240.982 295.922 240.639 297.164 240.667C303.361 240.667 307.522 246.301 307.522 254.681C307.522 259.055 306.53 262.179 304.655 263.707C303.413 264.78 301.812 265.345 300.171 265.29C294.07 265.29 289.81 259.347 289.81 250.839C289.81 246.294 291.108 243.201 293.655 241.652Z" fill="#21313C"/>
<path id="Shape_6" fill-rule="evenodd" clip-rule="evenodd" d="M250.845 283.143C253.28 285.017 256.129 285.852 260.084 285.852L260.07 285.804C263.051 285.816 265.995 285.155 268.684 283.871C274.387 281.117 277.793 276.613 277.793 271.823C277.852 268.705 275.905 265.899 272.962 264.864C270.808 264.136 266.239 263.816 262.566 263.559L262.522 263.556L260.716 263.429C257.925 263.216 257.341 262.039 257.341 261.091C257.341 259.948 258.632 259.333 259.126 259.196H259.192C259.248 259.196 259.595 259.165 259.911 259.136C259.957 259.132 260.003 259.128 260.046 259.124C260.582 259.076 260.867 259.052 260.925 259.052C263.664 258.79 266.278 257.778 268.478 256.127C270.755 254.403 272.859 252.079 272.859 246.74C272.788 245.805 272.652 244.876 272.451 243.959C272.441 243.92 272.427 243.882 272.41 243.846L272.406 243.837C272.336 243.656 272.281 243.514 272.368 243.386L272.65 243.286C273.212 243.435 273.787 243.53 274.366 243.571C274.487 243.588 274.597 243.588 274.71 243.588C275.812 243.588 277.017 243.073 277.529 242.363C278.116 241.484 278.403 240.438 278.346 239.383C278.339 238.94 278.258 238.501 278.105 238.085C277.165 239.009 276.069 239.802 273.567 239.802C272.139 239.847 270.715 239.621 269.371 239.136L269.336 239.123C266.992 238.257 265.288 237.628 262.278 237.556H262.106C259.164 237.556 254.622 239.276 252.813 240.708C250.181 242.583 248.63 245.624 248.658 248.855C248.658 253.96 250.924 257.301 255.422 258.811C255.553 258.883 255.645 259.011 255.669 259.159C255.693 259.307 255.647 259.457 255.545 259.567C254.609 260.276 253.624 260.917 252.596 261.486C251.868 261.915 251.189 262.32 250.763 262.622C250.211 263.017 250.292 263.401 250.378 263.805L250.378 263.807C250.409 263.872 250.409 263.93 250.409 263.968C250.687 264.998 251.604 266.924 254.643 268.088C254.781 268.122 254.878 268.247 254.876 268.39C254.876 268.517 254.801 268.632 254.684 268.682C250.993 271.219 249.397 272.685 248.71 273.468C247.899 274.363 247.438 275.522 247.412 276.73C247.412 278.604 248.476 281.316 250.845 283.143ZM260.057 240.378C256.661 240.378 254.464 243.06 254.464 247.211C254.464 251.361 256.356 256.295 261.674 256.295C262.587 256.295 264.242 255.89 265.062 254.987C266.298 253.85 267.122 251.502 267.122 249.023C267.122 243.609 264.486 240.378 260.074 240.378H260.057ZM259.634 269.025C258.675 269.015 257.729 269.251 256.888 269.712C254.2 271.429 252.953 273.145 252.953 275.14C252.953 277.008 253.678 278.494 255.236 279.813C257.125 281.413 259.672 282.192 263.02 282.192C269.608 282.192 272.561 278.649 272.561 275.14C272.561 272.696 271.335 271.058 268.812 270.131C266.868 269.42 263.62 269.029 259.645 269.029L259.634 269.025Z" fill="#21313C"/>
<path id="Path_5" d="M243.214 265.239C241.6 265.022 240.422 264.803 239.032 264.15C238.759 263.868 238.579 263.508 238.517 263.12C238.369 260.872 238.369 254.345 238.369 250.074C238.369 246.589 237.786 243.551 236.309 241.371C234.548 238.902 232.056 237.453 228.828 237.453C225.968 237.453 222.154 239.41 219.002 242.095C218.927 242.167 218.443 242.627 218.453 241.913C218.463 241.199 218.573 239.75 218.642 238.823C218.704 238.324 218.525 237.825 218.161 237.477C216.101 238.507 210.323 239.881 208.184 240.09C206.626 240.392 206.231 241.893 207.896 242.411H207.92C209.253 242.779 210.525 243.338 211.696 244.073C212.356 244.581 212.283 245.305 212.283 245.885C212.356 250.743 212.356 258.214 212.136 262.276C212.064 263.872 211.621 264.452 210.447 264.744L210.557 264.706C209.662 264.931 208.756 265.1 207.841 265.215C207.474 265.575 207.474 267.68 207.841 268.116C208.576 268.116 212.304 267.899 215.394 267.899C219.644 267.899 221.845 268.116 222.947 268.116C223.39 267.608 223.534 265.651 223.242 265.215C222.227 265.169 221.218 265.023 220.231 264.779C219.061 264.49 218.765 263.907 218.693 262.605C218.549 259.193 218.549 251.942 218.549 247.008C218.549 245.635 218.913 244.979 219.353 244.605C220.819 243.3 223.242 242.432 225.368 242.432C227.428 242.432 228.801 243.084 229.831 243.952C231.03 244.999 231.783 246.467 231.932 248.052C232.224 250.798 232.148 256.322 232.148 261.098C232.148 263.711 231.932 264.367 230.977 264.655C230.538 264.871 229.364 265.091 227.97 265.235C227.531 265.671 227.675 267.7 227.97 268.136C229.875 268.136 232.09 267.92 235.303 267.92C239.337 267.92 241.906 268.136 242.932 268.136C243.372 267.628 243.519 265.733 243.227 265.235" fill="#21313C"/>
</g>
</g>
</svg>
