<svg width="480" height="480" viewBox="0 0 480 480" fill="none" xmlns="http://www.w3.org/2000/svg">
<g id="MySQL">
<g id="MySQL_2">
<path id="Shape" fill-rule="evenodd" clip-rule="evenodd" d="M149.771 321.88H161.103C160.51 300.777 158.807 277.48 155.844 252.065H142.29L125.699 303.348L109.257 252.065H95.0364C92.3207 273.799 90.6419 297.07 90 321.88H100.591C100.888 301.457 101.678 282.926 102.961 266.285L120.219 321.88H129.032L146.438 266.285C148.265 283.632 149.376 302.163 149.771 321.88ZM192.21 326.645C201.792 309.249 208.051 290.152 210.652 270.37L199.987 270.445C198.213 285.456 194.733 300.204 189.618 314.391C189.672 309.556 188.817 304.754 187.099 300.247L178.138 270.445H167.102L179.693 310.231C181.077 314.066 182.021 318.051 182.507 322.107C182.41 325.041 181.09 327.794 178.878 329.671C176.42 331.685 173.263 332.587 170.139 332.167C168.536 332.294 166.927 332.294 165.324 332.167V338.369C167.648 339.468 170.17 340.06 172.731 340.109C181.051 339.316 188.397 334.238 192.21 326.645Z" fill="#5D87A1"/>
<path id="Shape_2" fill-rule="evenodd" clip-rule="evenodd" d="M257.307 316.413C261.496 312.858 263.854 307.648 263.739 302.205L264.262 302.058C264.447 296.178 261.347 290.669 256.185 287.703C256.185 287.703 246.612 282.624 241.227 279.532C235.842 276.44 232.925 273.128 232.925 269.079C232.924 266.584 234.081 264.225 236.066 262.674C238.357 260.836 241.268 259.916 244.218 260.098C248.785 260.147 253.292 261.124 257.456 262.969L260.149 257.08C254.938 253.762 248.853 252.021 242.648 252.074C237.2 251.923 231.883 253.728 227.69 257.153C223.757 260.475 221.582 265.381 221.781 270.478C221.382 276.356 224.242 281.988 229.26 285.2L243.769 293.298C249.005 296.316 251.847 299.629 251.847 303.678C251.871 306.58 250.48 309.317 248.107 311.039C245.286 313.03 241.848 313.993 238.385 313.763C233.142 313.603 228.015 312.215 223.426 309.714L220.435 315.603C226.166 319.615 232.998 321.822 240.03 321.934C246.285 322.264 252.442 320.297 257.307 316.413ZM312.801 316.487L325.441 322.67L321.253 330.326L304.724 320.903C301.808 321.731 298.783 322.128 295.749 322.081C288.376 322.683 281.121 319.978 276.004 314.72C270.485 307.081 267.84 297.789 268.525 288.439C267.813 278.609 270.676 268.851 276.603 260.908C281.704 255.002 289.304 251.765 297.17 252.148C315.07 252.148 324.02 263.361 324.02 285.789C324.742 295.666 321.88 305.474 315.942 313.468C314.99 314.566 313.939 315.576 312.801 316.487ZM334.042 321.051H366.8L367.174 312.438H345.485V253.105H334.042V321.051ZM284.381 307.432C281.117 300.797 279.673 293.438 280.192 286.084C280.192 269.005 285.503 260.466 296.048 260.466C300.923 260.146 305.58 262.495 308.164 266.576C311.45 273.124 312.897 280.419 312.352 287.703C312.352 304.929 307.117 313.542 296.572 313.542C291.671 313.89 286.977 311.538 284.381 307.432Z" fill="#F8981D"/>
<path id="Shape_3" fill-rule="evenodd" clip-rule="evenodd" d="M363.826 233.606C369.059 231.639 374.659 230.82 380.241 231.205L381.074 231.13C380.842 229.869 378.359 228.346 376.593 227.262C376.047 226.927 375.57 226.634 375.249 226.404C372.525 224.454 369.651 222.428 366.852 220.703C365.81 220.112 364.605 219.683 363.259 219.204C362.553 218.952 361.808 218.687 361.027 218.377C360.372 218.117 359.485 217.852 358.522 217.563C356.148 216.852 353.318 216.004 352.403 214.776C349.982 211.292 347.976 207.541 346.427 203.599C345.588 201.646 344.627 199.675 343.66 197.696C342.622 195.569 341.579 193.432 340.678 191.296C340.284 190.416 339.976 189.594 339.672 188.785C339.277 187.73 338.89 186.698 338.333 185.594C332.257 173.929 323.174 164.067 312.008 157.012C308.23 154.597 304.164 152.657 299.904 151.236C298.475 150.736 296.907 150.699 295.341 150.662C294.087 150.632 292.836 150.602 291.659 150.336H289.843C288.855 150.091 287.996 149.302 287.182 148.554C286.749 148.157 286.329 147.771 285.909 147.485C283.281 145.818 280.494 144.411 277.588 143.284C276.454 142.534 272.822 142.309 272.217 142.534C271.896 142.653 271.873 142.688 271.775 142.841C271.688 142.976 271.543 143.202 271.083 143.659C270.115 144.618 270.685 146.085 271.064 147.061C271.07 147.078 271.076 147.094 271.083 147.11C272.428 149.408 273.999 151.569 275.773 153.561C277.352 155.584 278.745 157.743 279.933 160.013C281.125 162.58 281.982 165.28 282.831 167.957C283.545 170.207 284.255 172.442 285.153 174.566C285.996 176.43 287.009 178.212 288.179 179.893C288.594 180.431 289.049 180.942 289.51 181.46C290.143 182.171 290.787 182.895 291.356 183.719C292.16 184.884 290.638 188.907 289.725 191.32C289.522 191.859 289.348 192.317 289.238 192.646C287.036 200.032 287.301 207.927 289.994 215.151C290.04 215.264 290.086 215.377 290.133 215.49C291.074 217.8 292.085 220.284 294.609 220.928C294.786 216.638 295.575 212.395 296.954 208.325C298.052 206.27 299.398 204.355 300.963 202.623C301.479 202.949 301.675 203.65 301.876 204.368C301.999 204.808 302.124 205.254 302.325 205.624C302.53 206.098 302.735 206.577 302.941 207.06C303.877 209.248 304.84 211.5 305.956 213.651C308.704 218.892 311.866 223.909 315.412 228.655C316.726 230.452 318.194 232.134 319.799 233.681C320.518 234.122 321.158 234.68 321.691 235.331C320.129 234.768 318.923 233.53 317.739 232.315C317.029 231.587 316.328 230.867 315.563 230.305C311.301 227.215 307.593 223.436 304.594 219.127C303.933 217.674 303.212 216.25 302.487 214.819C302.052 213.96 301.616 213.098 301.19 212.226C300.585 212.826 300.585 213.501 300.585 214.551C300.247 215.782 300.123 217.052 300.005 218.275C299.726 221.153 299.473 223.768 296.5 224.979C292.264 226.704 289.011 222.128 287.649 220.028C283.151 211.355 282.282 201.275 285.229 191.971C285.575 189.787 286.237 187.665 287.195 185.669C286.999 184.694 286.45 184.194 285.904 183.696C285.609 183.427 285.316 183.16 285.077 182.818C283.884 181.192 282.846 179.459 281.976 177.642C280.234 174.03 278.768 170.294 277.588 166.464C277.292 165.73 277.104 164.995 276.919 164.269C276.726 163.513 276.535 162.766 276.227 162.038C275.001 159.803 273.557 157.692 271.915 155.737C271.61 155.319 271.219 154.836 270.783 154.298C268.403 151.364 264.701 146.799 266.619 142.234C270.175 133.606 282.505 140.133 287.347 143.134C288.552 144.21 289.842 145.188 291.205 146.059L297.559 146.435C301.28 147.06 304.896 148.197 308.301 149.81C321.82 157.091 333.09 167.878 340.905 181.018C342.541 184.102 343.981 187.284 345.217 190.545C347.335 195.422 349.68 200.523 352.176 205.099C353.067 207.368 354.209 209.531 355.581 211.55C355.967 212.078 356.818 212.36 357.638 212.632C358.101 212.786 358.554 212.936 358.909 213.126C361.906 214.374 364.835 215.776 367.684 217.327C372.648 220.348 377.376 223.733 381.83 227.454C382.685 228.222 383.387 229.142 384.089 230.061C384.691 230.85 385.292 231.638 385.991 232.331V233.681L381.981 234.881C380.513 235.255 379.12 235.405 377.736 235.554C376.34 235.705 374.953 235.855 373.509 236.232C371.598 236.804 369.653 237.256 367.684 237.582C368.467 239.91 371.892 241.869 374.727 243.491C375.728 244.063 376.656 244.594 377.367 245.084C380.686 247.449 383.642 250.279 386.142 253.486L388.638 255.961C388.933 256.363 389.12 256.817 389.304 257.264C389.498 257.737 389.689 258.202 390 258.587C389.363 258.35 389.145 258.113 388.816 257.755C388.521 257.434 388.136 257.015 387.277 256.411C386.534 255.89 385.778 255.33 385.02 254.769C383.926 253.958 382.827 253.145 381.754 252.435C380.189 251.497 378.519 250.732 376.845 249.966C375.04 249.139 373.23 248.31 371.542 247.259C369.674 246.095 367.88 244.817 366.171 243.433C364.376 242.044 362.884 240.309 361.784 238.332C361.601 238.061 361.391 237.864 361.191 237.677C360.727 237.243 360.316 236.859 360.422 235.706C360.537 234.446 361.756 234.148 362.865 233.877C363.208 233.793 363.54 233.712 363.826 233.606ZM294.231 158.588C294.205 158.587 294.18 158.587 294.155 158.588H294.231ZM293.931 158.59C293.93 158.589 293.929 158.588 293.928 158.588H294.155C294.08 158.588 294.005 158.589 293.931 158.59ZM293.931 158.59C294.228 158.885 294.612 159.179 294.988 159.468C295.472 159.839 295.942 160.201 296.197 160.538C296.402 160.808 296.529 161.063 296.656 161.316C296.811 161.626 296.965 161.933 297.257 162.263C297.435 163.882 296.746 165.476 295.441 166.464L293.474 162.488C292.509 161.403 291.624 160.25 290.827 159.038C291.839 158.762 292.882 158.612 293.931 158.59Z" fill="#5D87A1"/>
<path id="Shape_4" fill-rule="evenodd" clip-rule="evenodd" d="M375.105 323.804H373.172V323.551V315.708H370.435V314.021H377.681V315.961H375.105V323.804ZM390 323.804H388.47V316.551L385.894 323.804H384.525L381.949 316.551V323.551H379.775V314.021H382.432L384.928 320.515L387.182 314.021H390V323.804Z" fill="#F8981D"/>
</g>
</g>
</svg>
