<svg width="480" height="480" viewBox="0 0 480 480" fill="none" xmlns="http://www.w3.org/2000/svg">
<g id="Postgresql">
<g id="PostgreSQL">
<path id="Path" d="M286.329 262.616C287.663 251.626 287.218 249.911 295.414 251.817L297.637 252.261C304.144 252.484 310.628 251.382 316.695 249.021C327.114 244.193 333.276 236.316 323.048 238.222C299.67 243.05 298.082 235.109 298.082 235.109C323.048 198.263 333.149 151.697 324.255 140.325C299.924 109.26 257.869 123.935 257.17 124.316C252.045 123.285 246.833 122.754 241.605 122.728C232.762 122.239 224.024 124.844 216.893 130.097C216.893 130.097 141.549 99.2227 145.17 169.04C145.932 183.905 166.452 281.421 190.974 251.944C199.804 241.207 208.698 232.059 208.698 232.059C213.066 235.004 218.317 236.351 223.564 235.871L224.008 235.49C223.821 236.881 223.821 238.291 224.008 239.683C217.655 246.798 219.561 248.005 206.919 250.61C194.277 253.214 201.71 257.915 206.602 259.122C217.218 262.54 228.829 258.747 235.38 249.72L235.062 251.245C237.54 253.214 237.349 265.475 237.667 274.242C237.652 281.575 238.591 288.878 240.462 295.968C242.241 300.797 244.401 313.185 260.981 309.627C274.831 306.641 285.44 302.385 286.393 262.616" fill="black"/>
<path id="Shape" fill-rule="evenodd" clip-rule="evenodd" d="M240.462 312.74C244.568 316.475 249.971 318.459 255.518 318.267L255.455 318.013C257.826 318.016 260.191 317.76 262.506 317.251C271.382 316.192 279.461 311.614 284.932 304.545C291.284 296.096 293.826 283.327 294.651 263.76V262.108V260.393H296.748H297.065C304.952 260.755 312.823 259.389 320.126 256.391C324.7 254.294 339.248 246.607 335.945 236.507C335.055 233.965 332.006 228.311 321.46 230.471C317.625 231.352 313.706 231.821 309.771 231.869C319.387 215.864 326.701 198.584 331.498 180.539C334.674 168.341 338.74 146.233 330.545 135.751C318.803 120.924 300.791 112.459 281.882 112.881C273.279 112.812 264.713 114.032 256.471 116.502C251.52 115.633 246.506 115.165 241.479 115.105C232.41 114.707 223.416 116.911 215.559 121.458C204.569 117.709 174.33 109.387 154.445 123.49C141.803 132.384 135.959 147.949 137.039 169.675C139.021 185.883 142.488 201.874 147.394 217.448C150.255 227.253 153.997 236.779 158.575 245.909C161.791 254.318 168.145 261.15 176.299 264.967C182.572 266.986 189.446 265.261 194.023 260.52C196.804 263.794 200.61 266.033 204.823 266.873C210.21 268.303 215.837 268.584 221.34 267.699C224.23 267.257 227.036 266.379 229.662 265.094V269.541V274.496C229.59 282.677 230.681 290.827 232.902 298.7L233.347 300.034C234.577 304.815 237.029 309.194 240.462 312.74ZM245.608 269.16C245.227 255.883 244.782 248.704 240.081 244.956L239.954 245.273L236.841 249.149L229.472 245.718L229.789 245.4L232.267 242.542L231.695 238.794C231.616 238.076 231.616 237.351 231.695 236.634L233.665 216.813L220.26 228.248C217.624 228.06 215.083 227.183 212.891 225.707L207.301 221.959L202.663 226.85C202.345 226.85 193.706 235.998 184.685 247.306C183.287 249.022 181.889 249.911 181.381 249.911C178.268 248.895 170.899 240.064 162.768 213.446C158.258 198.933 155.027 184.053 153.111 168.976C152.285 153.094 155.843 142.231 163.657 136.704C177.76 126.73 204.505 134.163 213.59 137.911L217.783 139.372L221.404 136.577C227.201 132.326 234.303 130.236 241.479 130.669C246.216 130.703 250.938 131.193 255.582 132.13L257.106 132.448L260.156 131.876L260.728 131.559C264.031 130.351 298.209 119.742 317.903 145.153C319.427 147.059 320.888 156.97 315.997 176.028C310.867 195.379 302.582 213.752 291.475 230.408L289.569 233.203L290.268 236.507C290.922 239.352 292.623 241.846 295.033 243.495C291.37 242.571 287.489 243.191 284.296 245.21C279.938 248.368 279.348 253.285 278.592 259.587L278.579 259.694V261.664L286.202 261.981H278.134C278.134 278.308 275.657 289.362 271.781 294.889C268.617 298.685 264.011 300.988 259.076 301.241C251.227 303.267 250.316 300.5 248.487 294.951L248.467 294.889C248.397 294.658 248.294 294.427 248.192 294.196C248.011 293.791 247.831 293.387 247.831 292.983C246.382 286.733 245.636 280.34 245.608 273.924V269.16Z" fill="black"/>
<path id="Path-2" d="M298.145 234.855C323.048 198.263 333.149 151.697 324.255 140.325C299.924 109.26 257.869 123.935 257.17 124.316C252.045 123.285 246.833 122.754 241.605 122.728C232.762 122.239 224.024 124.844 216.893 130.097C216.893 130.097 141.549 99.2227 145.17 169.04C145.932 183.905 166.452 281.421 190.974 251.944C199.804 241.207 208.698 232.059 208.698 232.059C213.066 235.004 218.317 236.351 223.564 235.871L224.008 235.49C223.821 236.881 223.821 238.291 224.008 239.683C217.655 246.798 219.561 248.005 206.919 250.61C194.277 253.214 201.646 257.915 206.602 259.122C217.218 262.54 228.829 258.747 235.38 249.72L234.999 251.245C237.476 253.214 239.255 263.95 238.937 273.988C238.183 281.348 238.699 288.783 240.462 295.968C242.431 301.241 244.337 313.185 260.981 309.627C274.831 306.641 282.009 298.954 283.026 286.122C283.724 277.037 285.313 278.371 285.44 270.176L286.71 266.301C288.171 253.977 286.71 249.974 295.477 251.817L297.637 252.261C304.144 252.484 310.628 251.382 316.695 249.021C327.114 244.193 333.276 236.316 323.048 238.222C299.733 242.796 298.145 234.855 298.145 234.855Z" fill="#336791"/>
<path id="Shape-2" fill-rule="evenodd" clip-rule="evenodd" d="M297.955 237.269C297.433 237.278 296.922 237.122 296.494 236.824C295.336 235.999 295.005 234.424 295.731 233.203C296.582 231.936 297.415 230.66 298.228 229.377C299.25 230.695 300.039 232.182 300.559 233.774C300.559 233.863 300.741 234.178 301.253 234.562C300.898 235.106 300.539 235.648 300.178 236.189C299.704 236.957 298.858 237.417 297.955 237.396V237.269ZM290.957 253.152C293.595 254.115 296.405 254.549 299.225 254.421L299.479 254.294C305.836 254.336 312.139 253.127 318.03 250.736C322.985 248.322 332.387 242.414 330.735 237.396C329.846 234.918 327.114 233.965 322.413 234.918C308.224 237.843 302.942 235.829 301.253 234.562C312.493 217.367 320.924 198.488 326.225 178.632C331.18 159.51 331.18 144.835 326.225 138.483C315.464 124.987 299.011 117.301 281.755 117.709C273.129 117.586 264.542 118.895 256.344 121.584H255.934C251.171 120.367 246.235 119.717 241.224 119.678C232.269 119.171 223.475 121.673 216.188 126.675C209.041 123.954 177.155 113.305 157.431 127.238C146.377 135.116 141.295 149.092 142.311 168.913C144.243 184.816 147.624 200.509 152.412 215.796C160.29 241.652 168.803 256.263 177.824 259.249C178.962 259.672 180.167 259.887 181.381 259.884L181.318 259.694C185.875 259.41 190.058 257.074 192.689 253.341C199.872 244.701 206.628 237.425 208.835 235.078C212.482 237.093 216.59 238.232 220.832 238.349V238.746C220.224 239.459 219.701 240.114 219.237 240.694L219.237 240.694C219.038 240.943 218.851 241.178 218.672 241.398C215.877 245.146 215.305 245.908 206.284 247.751C203.806 248.195 197.136 250.038 197.072 254.103C197.009 258.169 202.536 260.647 205.839 261.473C208.854 262.216 211.946 262.6 215.051 262.616C221.959 262.745 228.557 260.194 233.543 255.641C233.398 273.978 234.154 292.624 236.333 297.938C238.789 306.978 246.976 313.268 256.344 313.311C258.607 313.308 260.863 313.074 263.078 312.613C277.499 309.436 283.788 303.083 286.266 289.234C287.617 281.49 289.946 262.691 290.957 253.152ZM286.052 248.301C286.3 249.99 287.343 251.467 288.87 252.261C289.551 252.596 290.248 252.893 290.957 253.152C291.182 251.031 291.342 249.368 291.411 248.386C291.428 248.165 291.416 247.944 291.379 247.729C294.378 249.059 297.695 249.507 300.941 249.021C305.955 248.84 310.899 247.787 315.552 245.908C318.802 244.468 321.787 242.492 324.382 240.064H323.556C311.677 242.478 303.291 242.16 298.59 239.111L297.637 238.666L296.367 239.111C293.747 239.797 291.065 240.606 291.27 247.311C291.16 246.995 290.99 246.699 290.767 246.442C290.302 245.905 289.642 245.576 288.934 245.527C288.226 245.475 287.526 245.707 286.989 246.172C286.453 246.637 286.124 247.296 286.075 248.005L286.061 248.188L286.052 248.301ZM238.995 248.01C238.482 270.936 239.153 291.271 241.288 295.968C242.284 300.364 245.108 304.125 249.051 306.309C252.993 308.492 257.68 308.89 261.934 307.403C274.259 304.735 278.896 300.098 280.993 288.345C282.553 279.361 285.583 254.079 286.052 248.301C286.034 248.182 286.021 248.062 286.012 247.941C285.376 236.633 291.602 234.664 294.778 233.774L293.063 231.551C290.467 228.463 288.328 225.019 286.71 221.323C286.424 220.637 285.624 219.179 284.679 217.458L284.36 216.876C278.325 206.076 265.81 183.651 273.878 172.407C277.562 167.07 284.995 165.037 295.922 166.054C292.682 156.334 277.372 125.714 241.161 125.205C231.278 124.624 221.61 128.246 214.543 135.179C203.761 146.052 200.993 163.243 200.291 172.222C195.167 175.218 195.167 177.079 195.167 177.806C195.137 178.384 195.124 178.963 195.129 179.542C194.871 179.131 194.722 178.645 194.722 178.124L194.721 177.987C194.701 175.488 194.483 147.611 210.731 131.177C210.906 131.005 211.082 130.834 211.26 130.666C213.962 131.55 215.559 132.193 215.559 132.193C216.216 132.466 216.954 132.465 217.61 132.19C218.266 131.916 218.786 131.391 219.053 130.732C219.325 130.075 219.324 129.337 219.05 128.681C218.776 128.025 218.251 127.506 217.592 127.238C217.443 127.17 216.96 126.969 216.188 126.675C214.454 127.866 212.805 129.198 211.26 130.666C201.196 127.373 175.805 120.741 160.48 131.558C151.015 138.292 146.695 150.617 147.775 168.531C149.612 184.001 152.866 199.269 157.495 214.144C164.546 237.269 172.551 251.816 179.475 254.103C180.555 254.485 183.922 255.565 188.623 249.911C195.026 242.181 201.067 235.703 203.996 232.562L204.47 232.054C205.825 233.212 207.289 234.224 208.835 235.078C209.322 234.561 209.587 234.283 209.587 234.283C210.096 233.792 210.383 233.115 210.383 232.409C210.383 231.702 210.096 231.025 209.587 230.535C209.097 230.026 208.42 229.739 207.713 229.739C207.007 229.739 206.33 230.026 205.839 230.535C205.809 230.61 205.319 231.142 204.47 232.054C203.751 231.44 203.063 230.785 202.409 230.09C195.998 223.292 193.09 213.911 194.531 204.679C195.52 196.756 195.732 188.756 195.167 180.792C195.145 180.376 195.133 179.959 195.129 179.542C195.601 180.293 196.437 180.792 197.39 180.792C198.699 180.792 199.788 179.849 200.015 178.606L200.249 178.886V180.792C200.879 189.115 200.666 197.479 199.614 205.759C198.462 213.25 200.802 220.857 205.966 226.405C209.923 230.466 215.353 232.757 221.022 232.758C221.749 229.927 222.662 227.147 223.754 224.436L224.199 223.229C224.58 222.133 225.068 221.037 225.557 219.941C225.72 219.576 225.882 219.211 226.041 218.845C229.408 211.413 233.601 202.138 228.773 179.966C228.324 176.127 225.495 172.991 221.721 172.152C213.974 171.565 206.277 173.793 200.042 178.423C200.053 178.325 200.058 178.225 200.058 178.124L200.058 178.096C200.054 177.819 200.026 175.603 200.291 172.222C200.984 171.818 201.77 171.392 202.663 170.945C207.006 168.676 211.716 167.193 216.576 166.562C220.567 165.847 224.677 166.772 227.978 169.127C231.278 171.483 233.488 175.07 234.109 179.077C239.255 202.963 234.49 213.573 230.996 221.259C230.851 221.593 230.706 221.92 230.564 222.242C230.081 223.33 229.624 224.359 229.281 225.389L228.836 226.532C227.607 229.039 226.754 231.704 226.299 234.443C224.575 234.992 223.037 236.057 221.912 237.523C221.524 237.946 221.165 238.355 220.832 238.746V239.683C221.071 240.979 222.183 241.932 223.5 241.97H223.691C225.128 241.711 226.107 240.368 225.914 238.92C225.925 237.416 226.054 235.919 226.299 234.443C227.052 234.203 227.84 234.062 228.646 234.029C229.99 234.071 231.31 234.396 232.521 234.982C235.659 236.397 237.992 239.15 238.874 242.478C239.464 244.292 239.493 246.216 238.995 248.01ZM233.79 244.506C233.904 243.992 234.168 243.519 234.554 243.151C235.067 242.662 235.752 242.397 236.46 242.414C237.173 242.413 237.856 242.705 238.348 243.222C238.84 243.738 239.099 244.433 239.064 245.146C239.039 246.105 239.016 247.06 238.995 248.01C238.715 249.016 238.271 249.981 237.667 250.863C236.472 252.634 235.085 254.233 233.543 255.641C233.566 252.701 233.613 249.769 233.68 246.901C233.934 246.131 233.975 245.302 233.79 244.506ZM233.79 244.506C233.756 244.358 233.714 244.211 233.665 244.066C233.213 242.346 232.06 240.894 230.488 240.064C229.917 239.756 229.291 239.562 228.646 239.492C228.646 239.492 227.439 239.492 225.914 241.207C224.389 242.923 223.691 243.812 222.928 244.828C219.371 249.275 217.783 250.8 207.364 252.96C205.752 253.167 204.185 253.639 202.726 254.358H202.917C204.176 255.262 205.601 255.909 207.11 256.263C209.703 256.936 212.372 257.277 215.051 257.28C222.315 257.453 229.166 253.908 233.22 247.878C233.414 247.569 233.568 247.24 233.68 246.901C233.695 246.27 233.711 245.643 233.728 245.019C233.732 244.845 233.753 244.673 233.79 244.506ZM200.042 178.423L199.931 178.505L200.015 178.606C200.026 178.545 200.035 178.484 200.042 178.423ZM291.27 247.311C291.317 247.447 291.354 247.587 291.379 247.729L291.284 247.687L291.277 247.518L291.27 247.311ZM264.922 124.64C270.628 123.393 276.472 122.834 282.327 122.982C297.764 122.595 312.471 129.547 321.968 141.723C329.148 150.927 321.272 193.026 298.228 229.377C297.924 228.985 297.6 228.608 297.256 228.248C297.141 228.116 297.026 227.983 296.913 227.849C301.489 219.359 302.821 209.47 300.623 200.041C300.15 196.716 299.917 193.362 299.924 190.004C300.089 187.004 300.407 184.014 300.877 181.046C301.59 177.341 301.893 173.569 301.781 169.799C301.961 169.285 302.009 168.719 301.893 168.15C299.43 158.299 294.588 149.203 287.79 141.659C281.537 134.18 273.675 128.394 264.922 124.64ZM293.409 222.851C294.422 224.618 295.594 226.291 296.913 227.849C296.656 228.325 296.389 228.797 296.112 229.264C295.566 229.919 294.74 230.273 293.889 230.217V230.535C293.367 230.544 292.856 230.388 292.428 230.09C291.822 229.701 291.399 229.083 291.255 228.377C291.112 227.671 291.26 226.937 291.665 226.342C292.314 225.206 292.895 224.041 293.409 222.851ZM296.453 171.452C296.456 170.86 296.448 170.267 296.43 169.675C296.373 168.722 296.829 167.811 297.627 167.285C298.424 166.759 299.441 166.698 300.295 167.126C301.149 167.553 301.71 168.404 301.766 169.357C301.772 169.504 301.777 169.652 301.781 169.799C301.454 170.732 300.688 171.491 299.67 171.771H298.654C297.901 171.65 297.168 171.544 296.453 171.452ZM296.453 171.452C296.439 174.478 296.156 177.497 295.604 180.475C295.04 183.644 294.7 186.85 294.588 190.067C294.557 193.703 294.812 197.335 295.35 200.931C297.08 208.289 296.378 215.974 293.409 222.851C292.761 221.722 292.179 220.554 291.665 219.354C290.877 217.629 289.986 215.953 288.997 214.335L288.554 213.533C283.309 204.057 272.089 183.785 278.261 175.329C280.918 171.55 287.033 170.24 296.453 171.452ZM264.922 124.64C262.016 123.393 259.011 122.371 255.934 121.584H255.582C254.248 122.216 253.68 123.809 254.311 125.142C254.943 126.475 256.535 127.044 257.869 126.412H258.313C260.49 125.717 262.696 125.126 264.922 124.64ZM220.514 182.507H221.15V182.444C223.38 182.477 225.389 181.103 226.168 179.013C226.232 178.569 226.105 177.616 224.58 176.726C223.527 176.191 222.387 175.847 221.213 175.71H219.561C217.211 175.71 215.559 176.472 215.559 177.679C215.577 178.511 215.867 179.315 216.385 179.966C217.371 181.326 218.856 182.24 220.514 182.507ZM290.586 176.155C290.586 177.108 288.87 179.585 286.393 179.966C284.445 180.199 282.57 179.146 281.755 177.362C281.755 176.409 283.47 175.392 285.948 175.011C288.426 174.63 290.268 174.884 290.395 176.028L290.586 176.155ZM281.31 177.425C282.048 179.26 283.843 180.448 285.821 180.411L286.456 180.475C287.728 180.235 288.887 179.588 289.76 178.632C290.502 178.013 290.961 177.119 291.03 176.155C290.903 175.138 289.506 174.567 287.409 174.567H285.884C283.47 174.948 281.31 176.028 281.31 177.425ZM285.821 175.456C283.343 175.774 281.946 176.79 282.009 177.298C282.702 178.661 284.101 179.52 285.63 179.522H286.139C287.224 179.327 288.211 178.767 288.934 177.933C289.46 177.469 289.817 176.844 289.95 176.155C289.95 175.837 288.997 175.392 287.219 175.392L285.821 175.456Z" fill="white"/>
<path id="Shape-3" fill-rule="evenodd" clip-rule="evenodd" d="M112.898 319.156C115.902 318.672 118.94 318.438 121.983 318.457C125.737 318.108 129.484 319.198 132.465 321.507C134.589 323.46 135.751 326.246 135.641 329.13C135.685 332.058 134.539 334.878 132.465 336.944C129.443 339.754 125.402 341.2 121.284 340.946C120.005 340.981 118.727 340.874 117.472 340.629V355.304H112.771V319.156H112.898ZM117.599 336.817C118.908 336.967 120.229 336.967 121.538 336.817C127.192 336.817 130.686 334.085 130.686 329.067C130.686 324.048 127.255 322.142 122.046 322.142C120.554 322.084 119.06 322.212 117.599 322.523V336.817ZM160.582 351.883C163.088 349.219 164.324 345.604 163.974 341.963L164.229 342.026C164.457 338.516 163.22 335.068 160.812 332.503C158.404 329.939 155.041 328.487 151.523 328.495C147.836 328.295 144.245 329.708 141.684 332.367C139.123 335.026 137.844 338.667 138.182 342.344C137.953 345.854 139.19 349.302 141.598 351.867C144.006 354.431 147.37 355.883 150.888 355.875C154.543 356.002 158.076 354.547 160.582 351.883ZM143.137 341.963L143.138 342.088L143.137 342.217V341.963ZM143.138 342.088C143.186 347.744 146.475 352.064 151.142 352.064C155.843 352.064 159.083 347.744 159.083 341.836C159.083 337.389 156.859 331.735 151.205 331.735C145.6 331.735 143.179 337.105 143.138 342.088ZM175.727 352.064C173.478 352.002 171.286 351.344 169.374 350.158V350.285L168.167 353.906C170.376 355.163 172.868 355.841 175.409 355.875C181.635 355.875 185.193 351.873 185.193 347.998C185.193 344.123 182.906 341.836 178.332 340.12C174.901 338.786 173.313 337.643 173.313 335.673C173.313 333.704 174.901 332.052 177.76 332.052C179.645 332.059 181.492 332.587 183.096 333.577L184.303 330.147C182.367 329.049 180.176 328.479 177.951 328.495C175.778 328.247 173.598 328.891 171.909 330.28C170.221 331.669 169.168 333.685 168.993 335.864C168.993 339.04 171.217 341.645 175.918 343.297C179.412 344.631 180.809 345.965 180.809 348.125C180.809 350.285 179.158 352.064 175.727 352.064ZM197.2 321.253V328.749H204.061V332.434H197.2V346.537C197.2 349.84 198.152 351.682 200.821 351.682C201.745 351.697 202.667 351.569 203.552 351.301V354.922C202.183 355.389 200.741 355.604 199.296 355.558C197.36 355.702 195.465 354.953 194.15 353.525C192.702 351.572 192.044 349.144 192.308 346.727V332.688H188.242V329.003H192.308V322.65L196.945 321.443L197.2 321.253ZM231.695 335.991V328.749L227.185 329.067V333.069C225.568 330.087 222.376 328.306 218.99 328.495C215.556 328.735 212.367 330.358 210.151 332.992C207.936 335.627 206.884 339.047 207.237 342.471C206.975 345.652 208.018 348.804 210.127 351.2C212.236 353.597 215.229 355.032 218.418 355.177C221.795 355.318 224.992 353.647 226.804 350.793V353.715C226.804 360.322 223.246 362.863 218.354 362.863C215.655 362.9 212.996 362.197 210.667 360.831L209.46 364.452C212.139 365.939 215.165 366.684 218.227 366.612C221.69 366.789 225.093 365.655 227.756 363.435C230.837 360.169 232.283 355.689 231.695 351.238V335.991ZM226.804 339.104C226.823 338.371 226.716 337.64 226.486 336.944C225.686 334.067 223.117 332.037 220.133 331.925C215.623 331.925 212.319 335.801 212.319 341.836C212.319 347.871 214.924 351.301 220.07 351.301C222.992 351.133 225.513 349.192 226.422 346.41C226.673 345.586 226.801 344.73 226.804 343.869V339.104ZM239.064 328.749V336.944L239.382 355.558H244.083V341.518C244.018 340.778 244.018 340.034 244.083 339.295C244.243 335.855 246.996 333.102 250.436 332.942H252.024V328.495C251.582 328.429 251.132 328.429 250.69 328.495C247.287 328.503 244.281 330.713 243.257 333.958V328.749H239.064ZM258.949 342.789C258.738 345.234 259.609 347.649 261.332 349.397C263.055 351.145 265.458 352.05 267.906 351.873C270.409 351.961 272.901 351.506 275.212 350.539L276.038 353.906C273.264 355.066 270.277 355.629 267.271 355.558C263.764 355.716 260.36 354.357 257.927 351.827C255.494 349.297 254.269 345.841 254.565 342.344C254.249 338.878 255.368 335.434 257.662 332.817C259.955 330.199 263.222 328.637 266.699 328.495C269.826 328.564 272.779 329.946 274.835 332.304C276.89 334.661 277.857 337.776 277.499 340.883C277.544 341.623 277.544 342.366 277.499 343.106L258.949 342.789ZM271.453 334.086C272.661 335.559 273.195 337.472 272.925 339.358H259.203C259.32 335.272 262.497 331.93 266.572 331.608C268.474 331.713 270.245 332.612 271.453 334.086Z" fill="black"/>
<path id="Shape-4" fill-rule="evenodd" clip-rule="evenodd" d="M282.999 349.546L282.962 349.523L283.026 349.459L282.999 349.546ZM281.819 353.398L282.999 349.546C285.533 351.093 288.442 351.92 291.411 351.937C296.24 351.937 299.035 349.396 299.035 345.584C299.035 341.772 297.129 340.248 292.174 338.342C286.202 336.245 282.518 333.133 282.518 327.987C282.653 325.06 284.008 322.323 286.252 320.441C288.497 318.558 291.428 317.7 294.334 318.076C297.129 317.99 299.902 318.601 302.402 319.855L301.131 323.73C298.998 322.536 296.588 321.923 294.143 321.952C289.188 321.952 287.282 324.938 287.282 327.479C287.282 330.02 289.506 332.561 294.524 334.53C300.877 336.881 303.863 339.867 303.863 345.266C303.863 350.666 299.734 355.749 291.157 355.749C287.892 355.801 284.67 354.99 281.819 353.398ZM326.479 356.384C330.735 357.908 335.563 359.37 340.455 360.64V360.195L341.853 356.257C338.74 355.685 334.801 354.859 331.18 353.906C337.974 351.052 342.174 344.164 341.598 336.817C342.12 332.137 340.635 327.456 337.511 323.932C334.387 320.409 329.917 318.374 325.208 318.331C320.351 318.396 315.743 320.495 312.507 324.118C309.271 327.741 307.702 332.555 308.183 337.389C307.724 342.003 309.188 346.601 312.23 350.1C315.272 353.599 319.623 355.688 324.255 355.876C325.018 355.93 325.768 356.101 326.479 356.384ZM336.58 336.817C336.58 329.512 332.768 321.952 325.018 321.952C317.267 321.952 313.138 329.384 313.201 337.262C313.265 345.139 317.458 352 324.827 352C332.196 352 336.58 345.203 336.58 336.817ZM352.398 318.712H347.697V355.304H368.026V351.302H352.398V318.712Z" fill="#336791"/>
</g>
</g>
</svg>
