<svg width="480" height="480" viewBox="0 0 480 480" fill="none" xmlns="http://www.w3.org/2000/svg">
<g id="Redshift">
<g id="aws-redshift-2">
<g id="REDSHIFT">
<path id="path8" fill-rule="evenodd" clip-rule="evenodd" d="M225.471 248.16H214.042V283.493H218.399V267.754H224.289C226.516 267.754 229.189 268.05 229.533 272.902L229.828 278.4C229.931 280.132 230.275 282.757 231.017 283.499H236.261C235.216 282.86 234.577 281.871 234.378 277.96L234.082 271.919C233.897 268.902 232.151 266.373 229.086 266.029V265.953C233.196 264.936 234.529 260.881 234.529 257.019C234.529 251.424 231.01 248.16 225.471 248.16ZM222.701 264.194H218.399L218.392 251.72H223.588C227.65 251.72 229.972 253.926 229.972 257.362C229.972 264.194 225.272 264.194 222.701 264.194Z" fill="black"/>
<path id="path10" d="M240.962 248.16H259.243V252.022H245.312V263.108H258.425V266.971H245.312V279.637H259.814V283.499H240.962V248.16Z" fill="black"/>
<path id="path12" fill-rule="evenodd" clip-rule="evenodd" d="M275.003 248.16H265.553V283.499H275.449C285.147 283.499 287.374 274.764 287.374 265.83C287.374 256.077 285.999 248.16 275.003 248.16ZM274.46 279.933H269.91V251.727H274.46C282.377 251.727 282.824 259.046 282.824 265.878C282.824 272.214 281.985 279.933 274.46 279.933Z" fill="black"/>
<path id="path14" d="M308.851 257.328C308.851 253.617 307.517 251.047 303.352 251.047C299.689 251.047 297.511 253.026 297.511 256.786C297.511 266.73 314.191 260.792 314.191 273.713C314.191 281.878 308.205 284.208 303.194 284.208C294.947 284.208 292.507 279.953 292.507 272.428H296.865C296.865 276.387 297.112 280.675 303.497 280.675C305.157 280.729 306.765 280.086 307.93 278.902C309.096 277.718 309.714 276.101 309.634 274.442C309.634 264.442 292.954 270.235 292.954 257.26C292.954 253.995 294.329 247.507 303.263 247.507C309.992 247.507 313.064 250.875 313.16 257.356L308.851 257.328Z" fill="black"/>
<path id="path16" d="M340.671 283.506H336.314V266.483H324.191V283.506H319.833V248.16H324.191V262.593H336.314V248.16H340.671V283.506Z" fill="black"/>
<path id="path18" d="M347.647 248.16H352.025V283.493H347.668L347.647 248.16Z" fill="black"/>
<path id="path20" d="M358.973 248.16H377.234V252.022H363.33V263.108H376.444V266.971H363.33V283.465H358.973V248.16Z" fill="black"/>
<path id="path22" d="M392.925 283.506H388.568V252.029H379.709V248.16H401.832V252.022H392.898L392.925 283.506Z" fill="black"/>
</g>
<g id="REDSHIFT-2">
<path id="polygon25" d="M174.015 185.873L117.892 199.453V277.644L174.015 291.218V185.873Z" fill="#205B98"/>
<path id="polygon27" d="M184.777 285.857L173.98 291.259V185.873L184.777 191.275V285.857Z" fill="#5294CF"/>
<path id="polygon29" d="M61.7834 185.873L117.892 199.453V277.644L61.7834 291.218V185.873Z" fill="#5294CF"/>
<path id="polygon31" d="M51 285.857L61.7833 291.259V185.873L51 191.275V285.857Z" fill="#205B98"/>
<path id="polygon33" d="M153.568 175.653L132.249 165L125.562 235.109L132.249 312.413L153.568 301.774V175.653Z" fill="#5294CF"/>
<path id="polygon35" d="M82.2092 175.653L103.535 165L110.216 234.868L103.535 312.413L82.2092 301.774V175.653Z" fill="#205B98"/>
<path id="rect37" d="M103.535 165H132.27V312.413H103.535V165Z" fill="#2D72B8"/>
</g>
<path id="Amazon" fill-rule="evenodd" clip-rule="evenodd" d="M316.624 196.188C310.274 196.188 303.257 198.649 301.724 206.69C301.652 206.986 301.703 207.299 301.865 207.558C302.026 207.816 302.285 207.999 302.583 208.064H302.693L309.208 208.848C309.857 208.703 310.324 208.137 310.342 207.473C310.852 204.952 313.159 203.205 315.724 203.398C317.173 203.334 318.563 203.98 319.449 205.13C320.178 206.673 320.45 208.392 320.232 210.085V211.047C315.97 211.229 311.756 212.018 307.717 213.391C303.259 215.282 300.43 219.727 300.604 224.566C300.604 231.7 305.057 235.253 310.583 235.253C314.858 235.511 318.987 233.657 321.634 230.291C322.599 231.986 323.861 233.495 325.359 234.744C325.869 235.018 326.495 234.944 326.926 234.559C327.376 234.156 327.931 233.649 328.522 233.108L328.523 233.107C329.738 231.996 331.108 230.742 332.047 229.961C332.531 229.435 332.531 228.625 332.047 228.098C330.448 226.376 329.551 224.118 329.531 221.769V211.405C329.531 211.059 329.533 210.715 329.535 210.372C329.556 206.3 329.575 202.467 326.59 199.577C323.805 197.262 320.264 196.056 316.645 196.188H316.624ZM229.1 196.188C222.75 196.188 215.732 198.649 214.2 206.69C214.128 206.986 214.179 207.299 214.34 207.558C214.502 207.816 214.761 207.999 215.059 208.064H215.169L221.684 208.848C222.297 208.67 222.721 208.112 222.729 207.473C223.238 204.952 225.545 203.205 228.11 203.398C229.56 203.334 230.95 203.98 231.835 205.13C232.595 206.664 232.898 208.384 232.708 210.085V211.047C228.417 211.228 224.173 212.017 220.104 213.391C215.651 215.28 212.822 219.718 212.99 224.552C212.99 231.686 217.444 235.239 222.969 235.239C227.239 235.498 231.365 233.65 234.014 230.291C234.98 231.985 236.242 233.494 237.739 234.744C238.248 235.018 238.875 234.944 239.306 234.559C239.756 234.156 240.311 233.648 240.902 233.107L240.902 233.107C242.117 231.996 243.488 230.742 244.426 229.961C244.939 229.446 244.939 228.613 244.426 228.098C242.828 226.376 241.931 224.118 241.911 221.769V211.405C241.911 210.987 241.914 210.571 241.917 210.158L241.917 210.157C241.949 206.165 241.978 202.416 239.045 199.577C236.251 197.277 232.716 196.073 229.1 196.188ZM258.598 203.02C259.713 199.112 263.325 196.449 267.388 196.539L267.408 196.573C271.58 196.573 274.192 198.608 276.254 202.999C277.457 199.689 280.354 197.287 283.83 196.717C287.306 196.147 290.818 197.498 293.016 200.25C294.848 202.849 294.803 206.474 294.761 209.828V209.828V209.829V209.829V209.829V209.829V209.829V209.829C294.754 210.325 294.748 210.815 294.748 211.295V233.645C294.73 234.347 294.165 234.912 293.463 234.93H286.776C286.106 234.86 285.586 234.317 285.546 233.645V215.02C285.644 212.789 285.582 210.554 285.36 208.332C285.11 206.447 283.394 205.11 281.504 205.329C279.713 205.44 278.163 206.616 277.573 208.312C277.023 210.496 276.821 212.752 276.975 214.999V233.624C276.957 234.326 276.392 234.891 275.69 234.909H269.003C268.334 234.84 267.813 234.296 267.773 233.624V214.999C267.773 214.56 267.782 214.097 267.792 213.621C267.867 209.891 267.958 205.377 263.697 205.377C259.081 205.377 259.091 210.498 259.099 214.515L259.099 214.999V233.624C259.081 234.326 258.516 234.891 257.814 234.909H251.127C250.477 234.844 249.962 234.33 249.897 233.679V198.498C249.915 197.795 250.48 197.23 251.182 197.212H257.367C258.028 197.256 258.554 197.782 258.598 198.443V203.02ZM381.111 196.539L381.046 196.539L380.98 196.539H381.111ZM381.046 196.539C390.99 196.577 396.382 205.285 396.382 216.319C396.382 227.061 390.423 235.61 381.111 235.61C371.386 235.61 366.08 226.93 366.08 215.982C366.08 205.058 371.465 196.577 381.046 196.539ZM410.121 203.652C412.004 198.773 414.629 196.539 419.248 196.539L419.193 196.525C422.355 196.406 425.336 198.001 426.993 200.697C428.725 203.508 428.725 208.209 428.725 211.645V233.727C428.634 234.37 428.089 234.851 427.44 234.861H420.753C420.125 234.825 419.61 234.35 419.523 233.727V214.642C419.523 214.335 419.525 214.018 419.528 213.693C419.562 209.922 419.603 205.185 415.351 205.185C413.707 205.356 412.307 206.458 411.756 208.016C410.912 210.141 410.526 212.42 410.622 214.704V233.624C410.604 234.326 410.039 234.891 409.337 234.909H402.65C401.981 234.84 401.46 234.296 401.42 233.624V198.477C401.488 197.822 402.047 197.329 402.705 197.343H408.89C409.467 197.348 409.97 197.735 410.121 198.291V203.652ZM338.967 197.144C338.288 197.144 337.737 197.694 337.737 198.374V203.418C337.706 204.091 338.22 204.663 338.892 204.704H350.417L337.359 224.05C336.731 225.085 336.41 226.277 336.431 227.487V232.607C336.412 232.997 336.592 233.37 336.908 233.598C337.224 233.827 337.634 233.881 337.998 233.741C345.244 229.885 353.934 229.885 361.18 233.741C361.554 233.89 361.978 233.842 362.31 233.615C362.642 233.388 362.84 233.01 362.836 232.607V227.274C362.796 226.487 362.344 225.779 361.647 225.411C357.809 223.355 353.48 222.39 349.132 222.621L360.513 205.858C361.323 204.974 361.893 203.898 362.17 202.731V198.443C362.201 197.771 361.687 197.198 361.015 197.157H338.967V197.144ZM385.544 207.219C385.113 205.137 383.212 203.691 381.09 203.831L380.96 203.803C376.121 203.803 375.895 210.752 375.895 214.978C375.895 219.205 375.956 228.518 381.111 228.518C386.265 228.518 386.492 220.999 386.492 216.545C386.618 213.407 386.299 210.267 385.544 207.219ZM232.639 216.587V216.607C227.841 216.61 222.66 217.64 222.736 223.404C222.736 226.387 224.241 228.449 226.811 228.449C228.804 228.336 230.572 227.134 231.409 225.322C232.469 223.056 232.895 220.546 232.639 218.057V216.607L232.66 216.607L232.639 216.587ZM320.164 218.057V216.587L320.129 216.566C315.325 216.566 310.26 217.611 310.26 223.439C310.26 226.422 311.765 228.483 314.335 228.483C316.33 228.375 318.1 227.171 318.933 225.356C320 223.081 320.426 220.557 320.164 218.057Z" fill="#201C1D"/>
</g>
</g>
</svg>
