<svg width="480" height="480" viewBox="0 0 480 480" fill="none" xmlns="http://www.w3.org/2000/svg">
<g id="Segment">
<g id="Segment_2">
<path id="Path" d="M51.31 231.165C51.1033 230.828 51.045 230.42 51.1489 230.038C53.1768 222.008 57.7139 214.836 64.1 209.564C74.2549 201.203 88.0429 198.763 100.45 203.131C100.819 203.265 101.119 203.542 101.28 203.9C101.428 204.261 101.428 204.666 101.28 205.028L99.4213 209.985C99.1639 210.72 98.36 211.108 97.6243 210.853C87.8853 207.454 77.0786 209.385 69.1194 215.946C64.159 220.098 60.637 225.711 59.0559 231.983C58.8924 232.617 58.3219 233.06 57.6678 233.062H57.3456L52.2395 231.835C51.8589 231.745 51.5318 231.503 51.3348 231.165" fill="black"/>
<path id="Path_2" d="M125.361 243.485C125.121 243.178 124.768 242.981 124.381 242.94L119.164 242.394C118.395 242.321 117.705 242.868 117.602 243.634C116.671 250.724 113.276 257.261 108.01 262.1C99.7367 269.774 87.8135 272.064 77.2864 267.999C76.9364 267.862 76.5461 267.869 76.2018 268.021C75.8576 268.172 75.5878 268.454 75.4522 268.805L73.4196 273.762C73.2646 274.122 73.2646 274.53 73.4196 274.89C73.5621 275.258 73.8554 275.546 74.2252 275.683C78.586 277.402 83.2326 278.281 87.92 278.273C97.398 278.274 106.526 274.692 113.475 268.247C120.173 262.036 124.469 253.663 125.608 244.6C125.662 244.211 125.555 243.817 125.311 243.51" fill="black"/>
<path id="Path_3" d="M96.546 250.698V245.356C96.5493 244.971 96.3996 244.601 96.13 244.327C95.8604 244.053 95.4929 243.897 95.1083 243.894H52.4377C52.0531 243.897 51.6856 244.053 51.416 244.327C51.1464 244.601 50.9968 244.971 51.0001 245.356V250.698C50.9968 251.082 51.1464 251.452 51.416 251.727C51.6856 252.001 52.0531 252.157 52.4377 252.16H95.1083C95.4929 252.157 95.8604 252.001 96.13 251.727C96.3996 251.452 96.5493 251.082 96.546 250.698Z" fill="black"/>
<path id="Path_4" d="M80.1244 225.96V231.302C80.1175 232.098 80.7537 232.751 81.5497 232.764H124.22C124.605 232.761 124.972 232.605 125.242 232.331C125.512 232.057 125.661 231.686 125.658 231.302V225.96C125.638 225.179 125.002 224.554 124.22 224.547H81.5497C80.7537 224.561 80.1175 225.214 80.1244 226.01" fill="black"/>
<path id="Path_5" d="M111.319 208.25C109.543 208.22 107.925 209.267 107.224 210.899C106.524 212.531 106.879 214.425 108.125 215.691C109.37 216.958 111.257 217.346 112.901 216.674C114.545 216.001 115.619 214.401 115.619 212.625C115.633 210.232 113.712 208.277 111.319 208.25Z" fill="black"/>
<path id="Path_6" d="M63.8272 261.146C62.0512 261.115 60.4333 262.162 59.7327 263.794C59.032 265.426 59.3878 267.32 60.6329 268.587C61.878 269.853 63.7654 270.242 65.4094 269.569C67.0533 268.896 68.1274 267.297 68.1277 265.521C68.1415 263.128 66.22 261.173 63.8272 261.146Z" fill="black"/>
<path id="Shape" fill-rule="evenodd" clip-rule="evenodd" d="M185.035 240.101C185.035 227.894 193.896 220.606 202.46 220.606H202.473C213.267 220.606 219.972 228.017 219.972 239.952C219.971 240.577 219.938 241.202 219.873 241.824C219.821 242.414 219.326 242.867 218.733 242.865H193.524C193.68 248.174 198.079 252.369 203.39 252.271C207.497 252.534 211.241 249.922 212.412 245.976C212.628 245.39 213.271 245.082 213.862 245.282L218.894 247.054C219.188 247.149 219.427 247.365 219.551 247.649C219.668 247.93 219.668 248.247 219.551 248.529C217.215 255.444 210.636 260.021 203.34 259.807C198.546 259.861 193.929 257.99 190.525 254.614C186.822 250.709 184.843 245.479 185.035 240.101ZM193.772 235.85H211.408C210.974 231.091 207.591 228.141 202.534 228.141C198.064 228.069 194.27 231.406 193.772 235.85Z" fill="black"/>
<path id="Shape_2" fill-rule="evenodd" clip-rule="evenodd" d="M253.732 221.734H259.668C260.296 221.778 260.791 222.284 260.821 222.912V255.866C261.013 260.513 259.585 265.082 256.781 268.792C253.583 272.684 248.725 274.654 242.342 274.654C233.469 274.654 226.466 269.04 225.314 261.021C225.255 260.426 225.63 259.873 226.206 259.708L232.006 258.345C232.323 258.272 232.656 258.335 232.924 258.519C233.192 258.702 233.372 258.99 233.419 259.311C233.949 263.809 237.815 267.165 242.342 267.057C249.27 267.057 252.493 263.5 252.493 256.064V253.176C249.922 256.06 246.203 257.653 242.342 257.527C232.477 257.527 225.326 249.867 225.326 239.333C225.236 234.593 226.905 229.988 230.011 226.407C233.166 222.941 237.656 220.996 242.342 221.065C246.841 221.065 250.348 222.453 252.567 225.118V222.912C252.597 222.279 253.1 221.772 253.732 221.734ZM243.371 250.177C248.998 250.177 252.79 245.815 252.79 239.333C252.79 232.839 248.998 228.476 243.371 228.476C237.521 228.476 233.803 232.641 233.803 239.333C233.803 246.025 237.472 250.177 243.371 250.177Z" fill="black"/>
<path id="Path_7" d="M309.118 220.606C304.384 220.397 299.89 222.701 297.295 226.667C295.136 222.812 291.015 220.477 286.599 220.606C282.785 220.555 279.132 222.138 276.561 224.956V222.837C276.53 222.205 276.028 221.697 275.396 221.66H269.682C269.055 221.703 268.56 222.209 268.53 222.837V258.01C268.56 258.638 269.055 259.144 269.682 259.187H275.619C276.251 259.15 276.753 258.642 276.784 258.01V236.705C276.784 231.649 279.832 228.253 284.356 228.253C290.305 228.253 291.185 232.987 291.185 235.8V258.01C291.215 258.642 291.718 259.15 292.35 259.187H298.361C298.993 259.15 299.495 258.642 299.526 258.01V236.631C299.526 231.673 302.612 228.253 306.962 228.253C312.911 228.253 313.791 232.987 313.791 235.8V258.01C313.821 258.642 314.323 259.15 314.955 259.187H320.892C321.524 259.15 322.026 258.642 322.057 258.01V235.057C322.057 225.142 315.55 220.606 309.106 220.606" fill="black"/>
<path id="Shape_3" fill-rule="evenodd" clip-rule="evenodd" d="M327.684 240.101C327.684 227.899 336.537 220.612 345.098 220.606C355.884 220.613 362.584 228.023 362.584 239.952C362.583 240.577 362.55 241.202 362.484 241.824C362.427 242.412 361.935 242.861 361.344 242.865H336.136C336.291 248.159 340.668 252.348 345.964 252.271C350.07 252.529 353.811 249.919 354.986 245.976C355.207 245.394 355.845 245.089 356.436 245.282L361.468 247.054C361.762 247.149 362.001 247.365 362.125 247.649C362.263 247.922 362.285 248.239 362.187 248.529C359.85 255.448 353.264 260.027 345.964 259.807C341.178 259.854 336.572 257.984 333.174 254.614C329.466 250.712 327.486 245.48 327.684 240.101ZM345.098 220.606C345.101 220.606 345.105 220.606 345.109 220.606H345.084C345.089 220.606 345.093 220.606 345.098 220.606ZM345.196 228.141C340.725 228.069 336.931 231.406 336.433 235.85H354.069C353.635 231.091 350.252 228.141 345.196 228.141Z" fill="black"/>
<path id="Path_8" d="M387.804 220.607C383.854 220.519 380.082 222.245 377.567 225.291V222.813C377.537 222.185 377.042 221.679 376.415 221.635H370.552C369.92 221.673 369.418 222.18 369.387 222.813V258.01C369.418 258.642 369.92 259.15 370.552 259.187H376.551C377.183 259.15 377.685 258.642 377.716 258.01V237.61C377.634 235.266 378.312 232.957 379.649 231.03C381.004 229.307 383.098 228.331 385.288 228.402C390.246 228.402 392.861 231.228 392.861 236.78V258.01C392.891 258.642 393.394 259.15 394.026 259.187H400.036C400.664 259.144 401.159 258.638 401.189 258.01V235.578C401.348 231.767 400.174 228.02 397.868 224.982C395.363 222.055 391.652 220.442 387.804 220.607Z" fill="black"/>
<path id="Path_9" d="M427.339 229.505C427.648 229.502 427.943 229.376 428.159 229.155C428.375 228.934 428.495 228.636 428.492 228.328V222.924C428.493 222.272 427.989 221.73 427.339 221.685H420.82V211.51C420.821 210.853 420.31 210.31 419.655 210.27H414.239C413.584 210.31 413.073 210.853 413.074 211.51V216.888C413.074 221.115 410.087 221.734 408.315 221.734H406.853C406.197 221.774 405.687 222.317 405.688 222.974V228.402C405.718 229.034 406.221 229.542 406.853 229.579H412.492V248.64C412.492 255.42 416.544 259.621 423.076 259.621C424.625 259.644 426.169 259.444 427.661 259.026C428.158 258.877 428.497 258.417 428.492 257.898V252.805C428.487 252.465 428.344 252.143 428.095 251.912C427.835 251.69 427.49 251.595 427.153 251.652C426.464 251.755 425.768 251.813 425.071 251.825C422.01 251.825 420.82 250.586 420.82 247.587V229.505H427.339Z" fill="black"/>
<path id="Path_10" d="M180.512 248.244C180.512 242.617 176.285 238.577 168.899 237.089L162.281 235.85C158.699 235.168 157.943 233.285 157.943 231.822C157.943 229.616 160.323 227.336 164.289 227.336C169.977 227.336 171.725 230.608 172.233 232.553C172.305 232.794 172.476 232.993 172.704 233.099C172.97 233.204 173.267 233.204 173.534 233.099L179.545 231.116C179.751 231.066 179.929 230.936 180.038 230.754C180.148 230.572 180.18 230.355 180.127 230.149C179.365 227.76 177.912 225.651 175.951 224.089C173.051 221.771 169.134 220.594 164.289 220.594C156.196 220.594 149.342 225.997 149.342 232.38C149.342 237.622 153.382 241.65 159.864 242.877L166.817 244.228C169.952 244.86 171.774 246.434 171.774 248.566C171.774 250.697 169.729 253.052 165.231 253.052C160.397 253.052 157.038 250.834 156.258 247.116C156.195 246.871 156.027 246.667 155.799 246.558C155.643 246.474 155.468 246.431 155.291 246.434C155.18 246.416 155.067 246.416 154.956 246.434L148.76 248.367C148.35 248.471 148.083 248.866 148.14 249.285C148.983 253.151 153.531 259.707 165.119 259.707C175.108 259.707 180.487 253.746 180.487 248.144" fill="black"/>
</g>
</g>
</svg>
