<svg width="480" height="480" viewBox="0 0 480 480" fill="none" xmlns="http://www.w3.org/2000/svg">
<g id="Snowflake">
<g id="Snowflake_2">
<g id="Group">
<path id="Path" d="M127.549 264.15L108.698 253.26C106.05 251.735 102.664 252.642 101.131 255.29C100.537 256.333 100.304 257.481 100.417 258.596V279.878C100.417 282.92 102.888 285.391 105.938 285.391C108.979 285.391 111.451 282.92 111.451 279.878V267.64L122.011 273.739C124.66 275.272 128.054 274.357 129.579 271.709C131.112 269.061 130.205 265.674 127.549 264.15Z" fill="#29B5E8"/>
<path id="Path_2" d="M80.6674 240.813C80.6995 238.847 79.6643 237.017 77.9631 236.03L59.1128 225.149C58.2943 224.675 57.3554 224.427 56.4165 224.427C54.4825 224.427 52.685 225.462 51.722 227.131C50.2294 229.715 51.1201 233.029 53.7041 234.522L64.5697 240.789L53.7041 247.064C52.4523 247.787 51.5535 248.95 51.1843 250.347C50.8072 251.743 50.9998 253.203 51.722 254.455C52.685 256.124 54.4825 257.16 56.4085 257.16C57.3554 257.16 58.2943 256.911 59.1128 256.437L77.9631 245.556C79.6483 244.577 80.6835 242.763 80.6674 240.813Z" fill="#29B5E8"/>
<path id="Path_3" d="M63.3897 217.437L82.24 228.319C84.4387 229.595 87.1511 229.178 88.8845 227.484C89.9839 226.473 90.666 225.029 90.666 223.424V201.612C90.666 198.563 88.1944 196.091 85.153 196.091C82.1035 196.091 79.6319 198.563 79.6319 201.612V214.027L68.9268 207.848C66.2786 206.315 62.8922 207.222 61.3594 209.87C59.8267 212.518 60.7415 215.905 63.3897 217.437Z" fill="#29B5E8"/>
<path id="Combined-Shape" fill-rule="evenodd" clip-rule="evenodd" d="M105.239 242.996C105.536 242.692 105.777 242.114 105.777 241.696V239.795C105.777 239.369 105.536 238.791 105.239 238.495L97.7682 231.015C97.4713 230.719 96.8855 230.478 96.4682 230.478H94.5663C94.149 230.478 93.5632 230.719 93.2663 231.015L85.7872 238.495C85.4903 238.791 85.2495 239.369 85.2495 239.795V241.696C85.2495 242.114 85.4903 242.692 85.7872 242.996L93.2663 250.468C93.5632 250.764 94.149 251.005 94.5663 251.005H96.4682C96.8855 251.005 97.4713 250.764 97.7682 250.468L105.239 242.996ZM99.1083 240.701V240.782C99.1083 241.095 98.9318 241.52 98.7151 241.737L96.5083 243.943C96.2916 244.16 95.8663 244.337 95.5533 244.337H95.4731C95.1682 244.337 94.7428 244.16 94.5182 243.943L92.3194 241.737C92.1027 241.52 91.9261 241.095 91.9261 240.782V240.701C91.9261 240.388 92.1027 239.963 92.3194 239.746L94.5182 237.548C94.7428 237.323 95.1682 237.146 95.4731 237.146H95.5533C95.8663 237.146 96.2916 237.323 96.5083 237.548L98.7151 239.746C98.9318 239.971 99.1083 240.396 99.1083 240.701Z" fill="#29B5E8"/>
<path id="Path_4" d="M108.698 228.319L127.549 217.437C130.197 215.913 131.112 212.518 129.579 209.87C128.046 207.222 124.66 206.315 122.011 207.848L111.451 213.946V201.612C111.451 198.563 108.979 196.091 105.938 196.091C102.888 196.091 100.417 198.563 100.417 201.612V222.99C100.312 224.098 100.529 225.253 101.131 226.297C102.664 228.945 106.05 229.852 108.698 228.319Z" fill="#29B5E8"/>
<path id="Path_5" d="M86.0196 252.618C84.7678 252.377 83.4276 252.578 82.24 253.26L63.3897 264.149C60.7415 265.674 59.8267 269.061 61.3594 271.709C62.8922 274.365 66.2786 275.272 68.9268 273.739L79.6319 267.56V279.878C79.6319 282.919 82.1035 285.391 85.153 285.391C88.1944 285.391 90.666 282.919 90.666 279.878V258.067C90.666 255.314 88.6518 253.035 86.0196 252.618Z" fill="#29B5E8"/>
<path id="Path_6" d="M139.329 227.067C137.804 224.411 134.409 223.504 131.761 225.037L112.911 235.919C111.105 236.962 110.11 238.872 110.142 240.814C110.126 242.748 111.121 244.634 112.911 245.661L131.761 256.55C134.409 258.075 137.796 257.168 139.329 254.52C140.861 251.872 139.946 248.485 137.298 246.953L126.625 240.79L137.298 234.627C139.954 233.102 140.861 229.715 139.329 227.067Z" fill="#29B5E8"/>
</g>
<path id="Combined-Shape_2" fill-rule="evenodd" clip-rule="evenodd" d="M428.992 239.521V239.513V239.497C428.615 234.602 426.336 230.373 422.957 227.556C422.925 227.532 422.893 227.506 422.861 227.48C422.829 227.454 422.797 227.428 422.765 227.404C422.693 227.348 422.62 227.292 422.556 227.235C422.51 227.201 422.464 227.165 422.417 227.129C422.334 227.065 422.25 227 422.163 226.938C422.155 226.938 422.147 226.93 422.139 226.922C419.739 225.173 416.851 224.106 413.721 223.945L413.721 223.945C413.456 223.937 413.191 223.929 412.926 223.929C403.947 223.929 396.724 231.4 396.724 240.653C396.724 249.753 403.899 257.184 412.806 257.248H413.223H414.363C414.451 257.248 414.539 257.246 414.628 257.244C414.716 257.242 414.804 257.24 414.893 257.24C414.981 257.232 415.077 257.224 415.165 257.224C415.173 257.223 415.18 257.223 415.187 257.222C415.259 257.215 415.324 257.208 415.39 257.208C415.518 257.2 415.647 257.184 415.775 257.168L415.775 257.168C415.791 257.168 415.807 257.166 415.823 257.164C415.839 257.162 415.855 257.16 415.872 257.16C417.38 256.983 418.793 256.558 420.109 255.948C420.113 255.948 420.119 255.946 420.125 255.944C420.131 255.942 420.137 255.94 420.141 255.94C420.157 255.932 420.173 255.924 420.188 255.916C420.234 255.892 420.277 255.87 420.325 255.852C423.174 254.488 425.726 252.209 427.604 249.352L427.652 249.28C427.716 249.183 427.78 249.079 427.844 248.975L427.845 248.975L427.853 248.967C428.39 248.044 428.117 246.92 427.235 246.278L427.203 246.262C427.138 246.222 427.074 246.19 427.002 246.158C426.994 246.154 426.986 246.152 426.978 246.15C426.97 246.148 426.962 246.146 426.954 246.142C426.913 246.121 426.869 246.107 426.825 246.094C426.801 246.086 426.776 246.078 426.753 246.07H426.737C426.577 246.021 426.4 245.997 426.232 245.997C426.079 245.997 425.919 246.021 425.766 246.054C425.754 246.058 425.744 246.062 425.734 246.066C425.724 246.07 425.714 246.074 425.702 246.078C425.678 246.086 425.656 246.092 425.634 246.098C425.612 246.104 425.59 246.11 425.565 246.118C425.551 246.127 425.535 246.134 425.517 246.141C425.504 246.146 425.491 246.151 425.477 246.158C425.445 246.174 425.413 246.19 425.373 246.206C425.341 246.222 425.301 246.246 425.269 246.27C425.22 246.294 425.172 246.326 425.132 246.359C425.1 246.375 425.076 246.399 425.052 246.423C425.036 246.435 425.022 246.447 425.008 246.459C424.994 246.471 424.98 246.483 424.964 246.495L424.891 246.567C424.882 246.58 424.871 246.592 424.86 246.604C424.843 246.621 424.826 246.639 424.811 246.663C424.787 246.679 424.771 246.704 424.755 246.728C424.743 246.744 424.731 246.761 424.719 246.776C424.692 246.813 424.665 246.849 424.643 246.888C424.635 246.896 424.635 246.904 424.635 246.904C424.482 247.153 424.33 247.394 424.169 247.626C424.153 247.65 424.137 247.675 424.113 247.707C424.057 247.795 423.993 247.883 423.928 247.971C423.908 248 423.888 248.026 423.868 248.052C423.848 248.078 423.828 248.104 423.808 248.132C423.768 248.188 423.728 248.244 423.68 248.309C423.653 248.344 423.624 248.379 423.594 248.416C423.57 248.446 423.544 248.477 423.519 248.509L423.423 248.63C423.37 248.69 423.322 248.75 423.27 248.814C423.26 248.827 423.249 248.841 423.238 248.854C423.226 248.87 423.212 248.886 423.198 248.902C423.184 248.918 423.17 248.934 423.158 248.951C423.094 249.023 423.03 249.095 422.957 249.167C422.933 249.199 422.909 249.231 422.877 249.255L422.685 249.472L422.596 249.56L422.404 249.753C422.388 249.769 422.372 249.787 422.356 249.805C422.34 249.823 422.323 249.841 422.307 249.857C422.275 249.885 422.245 249.913 422.215 249.942C422.185 249.97 422.155 249.998 422.123 250.026C422.083 250.066 422.043 250.106 422.002 250.138C421.978 250.162 421.952 250.186 421.926 250.21C421.9 250.234 421.874 250.259 421.85 250.283C421.794 250.323 421.746 250.371 421.698 250.419C421.678 250.435 421.655 250.453 421.633 250.471C421.611 250.489 421.589 250.507 421.569 250.523C421.505 250.58 421.441 250.636 421.377 250.684C421.36 250.696 421.346 250.708 421.332 250.72C421.318 250.732 421.304 250.744 421.288 250.756L421.288 250.756C421.208 250.82 421.128 250.885 421.056 250.941C421.045 250.948 421.036 250.955 421.028 250.961C421.017 250.969 421.008 250.976 420.999 250.981C420.911 251.053 420.815 251.125 420.727 251.189H420.719C418.977 252.441 417.027 253.22 415.093 253.372C415.085 253.38 415.077 253.38 415.069 253.38C414.957 253.388 414.844 253.396 414.732 253.396C414.604 253.404 414.483 253.404 414.363 253.404H413.809H413.592H412.822C406.988 253.356 402.077 249.087 400.849 243.349C400.721 242.747 400.64 242.137 400.592 241.512H427.074C428.133 241.512 428.992 240.749 428.992 239.722V239.521ZM424.819 237.732H400.849C402.157 231.874 407.084 227.773 412.926 227.773C418.664 227.773 423.632 231.954 424.819 237.732Z" fill="#29B5E8"/>
<path id="Combined-Shape_3" fill-rule="evenodd" clip-rule="evenodd" d="M361.832 225.655C361.784 225.189 361.584 224.788 361.287 224.491L361.279 224.483C361.264 224.464 361.245 224.448 361.224 224.431C361.21 224.42 361.195 224.408 361.182 224.395C361.174 224.391 361.168 224.385 361.162 224.379C361.156 224.373 361.15 224.367 361.142 224.363C361.118 224.338 361.094 224.322 361.07 224.306L361.07 224.306C361.058 224.298 361.046 224.288 361.034 224.278C361.022 224.268 361.01 224.258 360.998 224.25C360.994 224.248 360.99 224.246 360.985 224.244C360.971 224.238 360.954 224.23 360.942 224.218C360.91 224.202 360.869 224.178 360.837 224.154C360.834 224.154 360.831 224.153 360.827 224.151C360.821 224.149 360.815 224.146 360.805 224.146C360.765 224.122 360.717 224.098 360.669 224.074H360.661C360.548 224.025 360.428 223.993 360.308 223.969C360.298 223.969 360.292 223.967 360.286 223.964C360.282 223.963 360.279 223.961 360.276 223.961C360.247 223.957 360.221 223.953 360.195 223.949C360.169 223.945 360.143 223.941 360.115 223.937C360.084 223.937 360.053 223.935 360.021 223.933C359.987 223.931 359.952 223.929 359.914 223.929C359.882 223.929 359.85 223.931 359.818 223.933C359.786 223.935 359.754 223.937 359.722 223.937C359.666 223.945 359.61 223.953 359.561 223.961C359.557 223.961 359.551 223.963 359.545 223.965C359.539 223.967 359.533 223.969 359.529 223.969C359.409 223.993 359.289 224.025 359.176 224.074H359.168L359.024 224.146C359.02 224.146 359.016 224.148 359.012 224.15C359.008 224.152 359.004 224.154 359 224.154C358.988 224.161 358.978 224.167 358.967 224.174C358.941 224.191 358.916 224.207 358.887 224.218C358.871 224.234 358.855 224.242 358.839 224.25C358.827 224.258 358.815 224.268 358.803 224.278C358.791 224.288 358.779 224.298 358.767 224.306C358.76 224.311 358.753 224.315 358.746 224.32C358.726 224.332 358.704 224.345 358.687 224.363L358.655 224.395C358.639 224.411 358.62 224.425 358.602 224.439C358.584 224.453 358.566 224.467 358.55 224.483V224.491C358.253 224.788 358.053 225.189 358.005 225.655C357.997 225.719 357.997 225.783 357.997 225.847V229.707C357.363 228.937 356.664 228.239 355.91 227.605C353.158 225.269 349.699 223.929 346.04 223.929C340.623 223.929 335.856 226.81 333.015 231.176C333.003 231.192 332.989 231.21 332.975 231.228C332.961 231.246 332.947 231.264 332.935 231.28C332.895 231.348 332.853 231.418 332.811 231.489C332.769 231.559 332.726 231.629 332.686 231.697L332.686 231.697C332.63 231.785 332.574 231.874 332.526 231.962C332.47 232.05 332.422 232.147 332.373 232.243C332.293 232.379 332.213 232.524 332.141 232.66C332.131 232.68 332.122 232.7 332.114 232.719C332.102 232.747 332.091 232.773 332.076 232.797C331.025 234.891 330.375 237.242 330.263 239.738C330.247 240.019 330.239 240.3 330.239 240.589C330.239 240.878 330.247 241.158 330.263 241.439C330.375 243.935 331.025 246.286 332.076 248.373C332.088 248.397 332.099 248.421 332.109 248.445C332.119 248.469 332.129 248.493 332.141 248.517C332.213 248.654 332.293 248.798 332.373 248.934C332.422 249.031 332.47 249.127 332.526 249.215C332.554 249.259 332.58 249.304 332.606 249.348C332.632 249.392 332.658 249.436 332.686 249.48C332.775 249.625 332.855 249.761 332.935 249.897C332.947 249.913 332.961 249.932 332.975 249.95C332.989 249.968 333.003 249.986 333.015 250.002C335.856 254.367 340.623 257.248 346.04 257.248C349.402 257.248 352.62 256.077 355.268 254.038C355.348 253.982 355.437 253.918 355.517 253.854C355.529 253.842 355.541 253.832 355.553 253.822C355.565 253.812 355.577 253.802 355.589 253.789C356.464 253.091 357.266 252.289 357.997 251.406V255.322C357.997 256.373 358.871 257.248 359.914 257.248C360.958 257.248 361.84 256.373 361.84 255.322V225.847C361.84 225.815 361.838 225.783 361.836 225.751C361.834 225.719 361.832 225.687 361.832 225.655ZM357.997 240.589C357.997 247.659 352.628 253.404 346.04 253.404C340.543 253.404 335.856 249.384 334.492 243.895C334.476 243.863 334.468 243.831 334.46 243.799C334.444 243.722 334.428 243.648 334.412 243.574C334.396 243.5 334.38 243.425 334.364 243.349C334.357 243.304 334.346 243.26 334.333 243.211C334.33 243.199 334.327 243.186 334.323 243.173C334.311 243.108 334.301 243.044 334.291 242.98C334.281 242.916 334.271 242.852 334.259 242.787C334.252 242.72 334.24 242.652 334.227 242.579C334.224 242.566 334.222 242.552 334.219 242.539C334.211 242.483 334.205 242.424 334.199 242.366C334.193 242.308 334.187 242.25 334.179 242.194C334.175 242.148 334.17 242.103 334.164 242.057C334.158 242.005 334.151 241.952 334.147 241.897C334.131 241.776 334.123 241.648 334.115 241.52C334.115 241.476 334.111 241.433 334.107 241.389C334.103 241.343 334.099 241.296 334.099 241.247C334.091 241.03 334.083 240.813 334.083 240.589C334.083 233.479 339.499 227.709 346.04 227.709C352.628 227.709 357.997 233.487 357.997 240.589Z" fill="#29B5E8"/>
<path id="Path_7" d="M313.05 210.03H312.528C312.464 210.03 312.392 210.03 312.328 210.038C312.255 210.03 312.191 210.03 312.119 210.03C311.934 210.03 311.75 210.03 311.565 210.038C311.533 210.038 311.493 210.046 311.461 210.046C311.316 210.046 311.172 210.054 311.028 210.07C311.003 210.07 310.971 210.07 310.947 210.07C310.795 210.086 310.65 210.094 310.506 210.11C310.49 210.118 310.474 210.118 310.458 210.118C310.297 210.142 310.145 210.158 310 210.183C309.992 210.183 309.984 210.183 309.984 210.183C309.013 210.335 308.139 210.608 307.36 210.993C307.36 211.001 307.352 211.001 307.344 211.001C307.232 211.065 307.111 211.129 306.999 211.194C306.975 211.202 306.959 211.218 306.935 211.234C306.839 211.29 306.742 211.346 306.646 211.41C306.606 211.434 306.574 211.466 306.542 211.491C306.461 211.539 306.389 211.595 306.309 211.651C306.253 211.699 306.197 211.747 306.14 211.787C306.092 211.828 306.044 211.868 305.996 211.908C305.908 211.988 305.827 212.06 305.747 212.141C305.731 212.157 305.715 212.173 305.699 212.189C305.603 212.293 305.506 212.389 305.41 212.494C305.394 212.518 305.378 212.542 305.362 212.558C305.282 212.646 305.201 212.734 305.129 212.823C305.105 212.863 305.073 212.903 305.049 212.943C304.985 213.023 304.929 213.096 304.872 213.176C304.856 213.208 304.84 213.232 304.816 213.256C304.752 213.352 304.688 213.449 304.632 213.545C304.624 213.561 304.616 213.569 304.608 213.585C304.086 214.444 303.717 215.455 303.484 216.675C303.484 216.691 303.484 216.715 303.476 216.731C303.444 216.883 303.42 217.044 303.396 217.204C303.388 217.252 303.38 217.3 303.38 217.349C303.356 217.485 303.34 217.621 303.324 217.766C303.316 217.846 303.308 217.926 303.3 218.015C303.284 218.127 303.268 218.231 303.26 218.352C303.251 218.472 303.243 218.592 303.235 218.721C303.227 218.801 303.227 218.881 303.219 218.97C303.211 219.138 303.203 219.315 303.195 219.491C303.195 219.539 303.187 219.572 303.187 219.612C303.179 219.836 303.179 220.069 303.179 220.294V223.464H299.183C298.934 223.456 298.685 223.504 298.461 223.584C297.738 223.849 297.225 224.531 297.225 225.325C297.225 226.072 297.594 226.706 298.172 227.075C298.461 227.259 298.798 227.372 299.167 227.388H299.183V227.396H303.179V255.386C303.171 255.426 303.179 255.458 303.179 255.499C303.179 255.523 303.179 255.547 303.179 255.571C303.203 256.02 303.388 256.429 303.685 256.742L303.693 256.75C303.733 256.791 303.781 256.831 303.821 256.871C303.829 256.879 303.837 256.879 303.845 256.887C303.877 256.919 303.918 256.943 303.95 256.967C303.966 256.983 303.99 256.999 304.006 257.007C304.022 257.023 304.038 257.031 304.062 257.039C304.375 257.24 304.744 257.352 305.137 257.352C305.201 257.352 305.266 257.344 305.322 257.336C305.699 257.304 306.044 257.144 306.325 256.911L306.333 256.903C306.373 256.871 306.405 256.839 306.437 256.799C306.445 256.791 306.461 256.782 306.469 256.774C306.502 256.742 306.526 256.71 306.55 256.686C306.855 256.317 307.023 255.86 306.999 255.386V227.396H311.3V227.388H311.316C312.456 227.331 313.29 226.441 313.258 225.333C313.258 225.325 313.258 225.325 313.258 225.317C313.266 225.277 313.258 225.237 313.258 225.197C313.258 225.181 313.258 225.165 313.258 225.157C313.226 224.731 313.042 224.346 312.753 224.049C312.753 224.049 312.753 224.049 312.753 224.041C312.745 224.041 312.745 224.041 312.745 224.041C312.705 224.001 312.673 223.969 312.632 223.937C312.616 223.921 312.6 223.913 312.592 223.897C312.56 223.873 312.536 223.857 312.504 223.833C312.48 223.817 312.448 223.793 312.424 223.777C312.408 223.768 312.384 223.752 312.368 223.744C312.328 223.72 312.287 223.696 312.247 223.68C312.239 223.672 312.223 223.664 312.215 223.664C312.167 223.64 312.119 223.616 312.071 223.6C312.063 223.592 312.055 223.592 312.039 223.584C311.99 223.568 311.942 223.552 311.894 223.536C311.878 223.536 311.862 223.528 311.846 223.528C311.798 223.52 311.758 223.504 311.71 223.496C311.686 223.496 311.661 223.496 311.637 223.488C311.605 223.48 311.565 223.48 311.525 223.472C311.493 223.472 311.461 223.472 311.437 223.472C311.413 223.472 311.389 223.464 311.365 223.464C311.34 223.464 311.308 223.464 311.3 223.464H306.999V220.302C306.999 220.278 306.999 220.254 306.999 220.238C307.007 220.077 307.007 219.917 307.015 219.764C307.015 219.724 307.015 219.676 307.023 219.636C307.023 219.499 307.031 219.363 307.039 219.234C307.039 219.21 307.047 219.178 307.047 219.154C307.055 219.002 307.071 218.849 307.087 218.705C307.24 217.14 307.577 216.153 307.93 215.551C307.938 215.535 307.938 215.527 307.946 215.511C307.97 215.471 308.002 215.431 308.026 215.391C308.042 215.358 308.066 215.326 308.09 215.294C308.098 215.278 308.115 215.246 308.131 215.23C308.171 215.174 308.211 215.126 308.259 215.078C308.765 214.508 309.551 214.163 310.69 214.026C310.707 214.026 310.715 214.018 310.739 214.018C310.803 214.01 310.875 214.002 310.939 214.002C310.971 213.994 311.011 213.994 311.044 213.986C311.108 213.986 311.164 213.978 311.228 213.978C311.276 213.978 311.316 213.97 311.373 213.97C311.429 213.962 311.485 213.962 311.541 213.962C311.597 213.962 311.653 213.954 311.71 213.954C311.766 213.954 311.822 213.954 311.878 213.954C311.958 213.954 312.039 213.954 312.119 213.954H312.127C312.191 213.954 312.247 213.946 312.311 213.938C312.384 213.946 312.456 213.954 312.528 213.954H313.05C314.125 213.954 315.008 213.071 315.008 211.988C315.008 210.905 314.125 210.03 313.05 210.03Z" fill="#29B5E8"/>
<path id="Path_8" d="M323.402 210.087C323.402 210.087 323.394 210.078 323.386 210.078C323.346 210.062 323.314 210.046 323.265 210.038C323.249 210.03 323.225 210.022 323.201 210.014C323.169 210.006 323.137 209.998 323.105 209.99C323.073 209.982 323.041 209.966 323.017 209.966C322.977 209.958 322.944 209.95 322.904 209.95C322.872 209.942 322.848 209.942 322.816 209.934C322.752 209.926 322.68 209.926 322.615 209.926C321.572 209.926 320.689 210.801 320.689 211.844V255.322C320.689 256.374 321.572 257.248 322.615 257.248C322.68 257.248 322.752 257.248 322.816 257.24C322.824 257.24 322.84 257.232 322.848 257.232C322.904 257.224 322.96 257.216 323.017 257.208C323.025 257.208 323.041 257.2 323.057 257.2C323.105 257.184 323.153 257.176 323.201 257.16C323.209 257.16 323.217 257.16 323.225 257.152C323.964 256.919 324.509 256.293 324.59 255.523C324.598 255.459 324.606 255.395 324.606 255.322V211.844C324.606 211.78 324.598 211.716 324.59 211.651C324.517 210.945 324.052 210.359 323.402 210.087Z" fill="#29B5E8"/>
<path id="Path_9" d="M176.058 247.017C176.042 246.904 176.042 246.8 176.026 246.696C176.018 246.615 176.01 246.543 176.002 246.471C175.986 246.383 175.978 246.302 175.962 246.214C175.946 246.134 175.93 246.054 175.914 245.965C175.906 245.901 175.89 245.829 175.874 245.765C175.85 245.668 175.834 245.58 175.81 245.484C175.794 245.436 175.778 245.379 175.762 245.331C175.737 245.227 175.705 245.131 175.665 245.034C175.657 244.994 175.641 244.954 175.633 244.922C175.593 244.81 175.553 244.705 175.505 244.593C175.497 244.577 175.489 244.553 175.481 244.529C175.424 244.417 175.376 244.296 175.32 244.184C175.312 244.176 175.312 244.168 175.304 244.16C174.847 243.237 174.197 242.466 173.402 241.816C173.402 241.808 173.402 241.808 173.394 241.808C173.282 241.72 173.17 241.624 173.049 241.536C173.049 241.536 173.041 241.528 173.033 241.52C173.025 241.52 173.017 241.512 173.009 241.504C172.937 241.455 172.865 241.399 172.8 241.351C171.813 240.653 170.722 240.099 169.133 239.489C169.109 239.481 169.085 239.473 169.061 239.465C169.037 239.449 169.005 239.441 168.981 239.425C168.082 239.088 167.151 238.767 166.196 238.454C166.196 238.454 166.196 238.454 166.188 238.454C166.188 238.454 166.18 238.454 166.18 238.446C166.164 238.446 166.148 238.438 166.124 238.43C166.035 238.398 165.939 238.366 165.811 238.326C165.747 238.31 165.698 238.294 165.65 238.278C165.329 238.165 165 238.061 164.671 237.949C164.439 237.868 164.19 237.788 163.893 237.692C163.813 237.668 163.62 237.603 163.46 237.555C163.452 237.555 163.452 237.547 163.443 237.547C163.347 237.515 163.251 237.483 163.147 237.451C162.344 237.194 161.686 236.969 161.124 236.761C160.209 236.424 159.375 236.063 158.693 235.629C158.677 235.621 158.661 235.613 158.653 235.605C157.722 235.011 157.08 234.281 156.927 233.326L156.919 233.318C156.911 233.254 156.903 233.182 156.903 233.118C156.895 233.102 156.895 233.094 156.895 233.085C156.887 233.005 156.887 232.933 156.887 232.853C156.887 232.74 156.895 232.628 156.903 232.524C156.903 232.492 156.903 232.468 156.911 232.444C156.919 232.355 156.927 232.275 156.935 232.195C156.943 232.171 156.943 232.147 156.951 232.123C156.967 232.034 156.984 231.954 157 231.866C157.008 231.858 157.008 231.842 157.016 231.826C157.04 231.729 157.064 231.641 157.096 231.553C157.096 231.545 157.096 231.545 157.096 231.545C157.513 230.301 158.5 229.378 159.664 228.728C159.744 228.688 159.824 228.648 159.897 228.608C159.977 228.568 160.049 228.527 160.121 228.495C160.242 228.439 160.362 228.383 160.482 228.335C160.555 228.303 160.619 228.271 160.691 228.247C160.819 228.198 160.948 228.15 161.076 228.102C161.14 228.078 161.213 228.054 161.285 228.03C161.413 227.99 161.534 227.95 161.662 227.918C161.742 227.893 161.814 227.869 161.895 227.853C162.015 227.821 162.135 227.797 162.248 227.765C162.328 227.749 162.408 227.733 162.489 227.717C162.617 227.693 162.737 227.669 162.85 227.653C162.922 227.645 162.986 227.637 163.058 227.621C163.195 227.605 163.339 227.589 163.484 227.58C163.516 227.572 163.548 227.572 163.588 227.564C163.764 227.556 163.941 227.548 164.11 227.548C164.31 227.548 164.511 227.556 164.703 227.564C164.735 227.564 164.768 227.564 164.792 227.564C166.212 227.653 167.36 227.998 168.307 228.455C168.379 228.487 168.451 228.527 168.523 228.56C168.563 228.584 168.603 228.608 168.644 228.624C168.732 228.672 168.82 228.72 168.916 228.776C168.932 228.784 168.948 228.792 168.965 228.8C169.061 228.856 169.157 228.921 169.253 228.977C169.261 228.985 169.269 228.985 169.269 228.985C169.374 229.049 169.478 229.121 169.582 229.185C169.582 229.193 169.59 229.193 169.59 229.201C169.695 229.266 169.791 229.33 169.887 229.402C169.928 229.434 169.96 229.458 170 229.482C170.224 229.651 170.578 229.924 170.899 230.189C170.939 230.213 170.971 230.237 170.995 230.261C171.236 230.461 171.46 230.638 171.677 230.798C171.717 230.831 171.749 230.855 171.773 230.871C171.781 230.879 171.789 230.887 171.797 230.887C171.821 230.903 171.845 230.919 171.87 230.935C171.926 230.975 171.99 231.015 172.046 231.055C172.07 231.071 172.094 231.079 172.118 231.095C172.174 231.127 172.231 231.16 172.287 231.192C172.311 231.2 172.327 231.208 172.351 231.216C172.415 231.248 172.471 231.272 172.536 231.296C172.552 231.304 172.56 231.304 172.576 231.312C172.648 231.336 172.72 231.36 172.792 231.368C172.792 231.368 172.792 231.368 172.8 231.376C172.961 231.4 173.113 231.408 173.274 231.368C173.29 231.368 173.306 231.36 173.322 231.36C173.362 231.352 173.41 231.336 173.45 231.328C173.466 231.32 173.474 231.312 173.491 231.304C173.507 231.304 173.523 231.296 173.539 231.288C173.603 231.256 173.667 231.224 173.731 231.184C173.747 231.184 173.755 231.176 173.763 231.168C173.836 231.119 173.9 231.071 173.964 231.015C173.972 231.007 173.972 231.007 173.972 231.007C174.028 230.959 174.076 230.903 174.124 230.847C174.157 230.806 174.189 230.758 174.213 230.71C174.221 230.702 174.229 230.694 174.229 230.686C174.566 230.124 174.373 229.386 173.779 228.584C173.771 228.568 173.763 228.551 173.747 228.535C173.723 228.503 173.707 228.479 173.683 228.447C172.319 226.682 169.213 224.748 166.332 224.13C166.316 224.13 166.3 224.13 166.284 224.122C166.164 224.098 166.035 224.074 165.915 224.05C165.883 224.05 165.843 224.042 165.811 224.034C165.706 224.017 165.602 224.001 165.498 223.993C165.458 223.985 165.418 223.977 165.377 223.977C165.281 223.969 165.177 223.961 165.081 223.953C165.04 223.945 165 223.945 164.968 223.937C164.832 223.937 164.703 223.929 164.575 223.929C164.366 223.929 164.158 223.929 163.957 223.937C163.845 223.937 163.732 223.945 163.612 223.953C163.532 223.961 163.435 223.961 163.355 223.961C163.195 223.977 163.042 223.985 162.89 224.001C162.85 224.001 162.801 224.001 162.761 224.009C162.585 224.025 162.408 224.042 162.24 224.066C162.216 224.066 162.2 224.066 162.184 224.066C161.999 224.09 161.822 224.114 161.646 224.146C161.638 224.146 161.622 224.146 161.614 224.146C161.437 224.17 161.261 224.202 161.092 224.234C161.084 224.234 161.076 224.242 161.06 224.242C160.699 224.306 160.346 224.387 160.009 224.475C160.001 224.475 160.001 224.483 160.001 224.483C159.832 224.523 159.664 224.571 159.495 224.619C159.335 224.667 159.182 224.724 159.038 224.772C159.022 224.772 159.014 224.78 158.998 224.78C158.853 224.836 158.709 224.884 158.564 224.94C158.548 224.948 158.532 224.956 158.524 224.956C158.38 225.013 158.251 225.069 158.115 225.133C158.099 225.141 158.075 225.141 158.059 225.157C157.938 225.205 157.81 225.269 157.698 225.326C157.666 225.342 157.642 225.35 157.617 225.366C157.497 225.422 157.385 225.478 157.272 225.542C157.24 225.558 157.216 225.574 157.184 225.59C157.08 225.647 156.975 225.711 156.871 225.775C156.839 225.791 156.807 225.807 156.775 225.831C156.638 225.911 156.51 226 156.382 226.08C156.229 226.192 156.077 226.297 155.94 226.409C155.924 226.409 155.916 226.417 155.916 226.425C155.234 226.93 154.648 227.468 154.167 228.094C154.151 228.118 154.127 228.142 154.111 228.166C154.054 228.255 153.99 228.335 153.934 228.415C153.894 228.479 153.854 228.543 153.814 228.608C153.782 228.656 153.75 228.704 153.725 228.752C153.661 228.856 153.605 228.961 153.549 229.073C153.541 229.089 153.533 229.097 153.525 229.113C153.091 229.972 152.843 230.959 152.746 232.155C152.746 232.171 152.746 232.187 152.738 232.203C152.73 232.411 152.714 232.62 152.706 232.845C152.706 233.013 152.706 233.182 152.714 233.35C152.714 233.374 152.714 233.398 152.714 233.423C152.803 235.718 153.846 237.443 155.732 238.783C155.748 238.791 155.764 238.807 155.78 238.815C155.86 238.871 155.94 238.928 156.021 238.984C156.077 239.024 156.141 239.056 156.197 239.096C156.213 239.112 156.237 239.12 156.253 239.128C158.115 240.308 160.394 240.982 162.296 241.52C163.227 241.792 164.061 242.025 164.31 242.097C164.366 242.113 164.423 242.129 164.471 242.154C165.61 242.531 166.485 242.836 167.207 243.125C167.263 243.141 167.311 243.165 167.368 243.181C167.384 243.189 167.408 243.197 167.432 243.213C167.841 243.381 168.242 243.558 168.627 243.75C168.948 243.911 169.245 244.079 169.542 244.256C170.305 244.729 170.89 245.243 171.284 245.805C171.3 245.821 171.308 245.837 171.316 245.853C171.356 245.901 171.388 245.949 171.412 246.005C171.436 246.038 171.452 246.062 171.468 246.094C171.492 246.134 171.516 246.174 171.532 246.214C171.557 246.254 171.573 246.302 171.597 246.342C171.613 246.375 171.629 246.407 171.645 246.439C171.661 246.487 171.685 246.535 171.701 246.591C171.709 246.615 171.725 246.647 171.733 246.679C171.749 246.736 171.765 246.792 171.781 246.848C171.789 246.872 171.797 246.896 171.805 246.928C171.821 246.984 171.837 247.049 171.845 247.105C171.853 247.129 171.861 247.161 171.861 247.185C171.87 247.249 171.878 247.313 171.886 247.378C171.894 247.402 171.894 247.426 171.894 247.45C171.902 247.546 171.91 247.634 171.91 247.731C171.91 247.875 171.902 248.012 171.894 248.148C171.894 248.188 171.886 248.228 171.886 248.268C171.878 248.373 171.861 248.477 171.837 248.581C171.837 248.613 171.829 248.646 171.821 248.678C171.773 248.959 171.693 249.223 171.589 249.488C171.581 249.496 171.581 249.504 171.581 249.512C171.524 249.633 171.468 249.761 171.404 249.873C171.396 249.889 171.396 249.897 171.388 249.905C171.252 250.162 171.091 250.411 170.89 250.644C170.794 250.764 170.69 250.876 170.586 250.989C170.578 250.989 170.578 250.989 170.578 250.997C170.361 251.214 170.12 251.414 169.871 251.599C169.863 251.607 169.855 251.607 169.855 251.615C169.735 251.695 169.615 251.783 169.494 251.855C169.478 251.872 169.462 251.88 169.446 251.888C169.237 252.016 169.013 252.144 168.788 252.257C168.708 252.297 168.627 252.337 168.539 252.377C168.451 252.417 168.355 252.465 168.258 252.505C168.178 252.538 168.106 252.57 168.026 252.602C167.809 252.682 167.6 252.762 167.384 252.835C167.352 252.843 167.319 252.851 167.287 252.867C167.159 252.907 167.031 252.939 166.902 252.979C166.87 252.987 166.83 253.003 166.798 253.011C166.373 253.123 165.955 253.212 165.562 253.276C165.554 253.276 165.546 253.276 165.538 253.276C165.337 253.308 165.145 253.332 164.96 253.356C164.888 253.364 164.824 253.372 164.752 253.372C164.687 253.38 164.623 253.38 164.551 253.388C164.398 253.396 164.238 253.404 164.093 253.404C163.797 253.404 163.508 253.396 163.227 253.38C163.114 253.38 163.002 253.372 162.89 253.364C162.737 253.348 162.577 253.34 162.432 253.324C162.296 253.316 162.151 253.3 162.023 253.284C161.903 253.268 161.79 253.252 161.678 253.236C161.429 253.196 161.197 253.164 160.964 253.115C160.859 253.091 160.747 253.075 160.643 253.051C160.522 253.019 160.402 252.995 160.282 252.963C160.145 252.931 160.017 252.899 159.888 252.859C159.8 252.835 159.704 252.81 159.624 252.786C159.407 252.722 159.19 252.65 158.982 252.57C158.934 252.554 158.885 252.538 158.837 252.522C158.372 252.345 157.914 252.152 157.465 251.928C157.449 251.92 157.425 251.904 157.401 251.896C157.112 251.751 156.622 251.478 156.157 251.214C156.117 251.189 156.069 251.165 156.029 251.141C155.7 250.949 155.419 250.788 155.154 250.66C155.13 250.644 155.114 250.636 155.098 250.628C155.082 250.62 155.066 250.612 155.058 250.612C154.985 250.58 154.929 250.547 154.865 250.523C154.841 250.515 154.825 250.507 154.809 250.499C154.64 250.435 154.488 250.387 154.335 250.371C154.287 250.363 154.239 250.363 154.191 250.363C154.175 250.355 154.159 250.355 154.143 250.355C153.838 250.355 153.573 250.459 153.324 250.692C153.268 250.74 153.22 250.788 153.172 250.844C153.164 250.86 153.148 250.876 153.132 250.893C153.1 250.933 153.075 250.965 153.051 250.997C153.035 251.021 153.019 251.045 153.011 251.061C152.987 251.093 152.963 251.125 152.947 251.157C152.931 251.181 152.923 251.205 152.915 251.23C152.899 251.262 152.883 251.294 152.867 251.326C152.859 251.35 152.851 251.366 152.843 251.39C152.827 251.43 152.819 251.462 152.811 251.494C152.803 251.518 152.795 251.534 152.795 251.559C152.787 251.599 152.779 251.639 152.77 251.679C152.77 251.695 152.762 251.711 152.762 251.727C152.754 251.783 152.754 251.831 152.754 251.88C152.754 251.888 152.754 251.896 152.754 251.904C152.754 251.968 152.762 252.024 152.779 252.088C152.779 252.096 152.779 252.112 152.779 252.12C152.795 252.168 152.803 252.225 152.819 252.273C152.827 252.297 152.835 252.321 152.843 252.345C152.859 252.385 152.867 252.433 152.891 252.473C152.899 252.497 152.907 252.514 152.915 252.53C153.019 252.77 153.188 253.019 153.404 253.26C153.637 253.517 153.934 253.773 154.279 254.038C154.287 254.038 154.287 254.038 154.287 254.046C154.383 254.11 154.48 254.183 154.584 254.255C154.608 254.271 154.624 254.287 154.648 254.295C154.929 254.488 155.226 254.672 155.563 254.865C155.643 254.913 155.724 254.961 155.804 255.001C155.884 255.049 155.964 255.089 156.045 255.13C156.141 255.186 156.253 255.242 156.358 255.298C156.43 255.33 156.494 255.37 156.566 255.402C156.727 255.483 156.895 255.563 157.064 255.643C157.088 255.659 157.104 255.667 157.128 255.675C157.313 255.764 157.497 255.844 157.682 255.916C157.762 255.948 157.834 255.98 157.914 256.012C157.93 256.02 157.946 256.028 157.963 256.028C159.68 256.702 161.798 257.152 163.668 257.232C163.805 257.24 163.949 257.248 164.085 257.248H164.093C164.158 257.248 164.214 257.248 164.278 257.24C164.423 257.24 164.567 257.24 164.711 257.24C164.727 257.24 164.743 257.24 164.76 257.232C167.801 257.136 170.297 256.349 172.423 254.793C172.423 254.785 172.423 254.785 172.423 254.785C174.783 253.003 176.083 250.491 176.083 247.723C176.083 247.546 176.075 247.37 176.066 247.201C176.066 247.137 176.058 247.073 176.058 247.017Z" fill="#29B5E8"/>
<path id="Path_10" d="M195.679 223.994C195.671 223.994 195.663 223.994 195.655 223.994C191.915 223.994 188.384 225.518 185.833 228.215V225.92C185.833 224.86 185.014 223.994 183.979 223.994C183.907 223.994 183.842 224.002 183.778 224.002C183.321 224.05 182.92 224.25 182.623 224.547C182.615 224.547 182.615 224.547 182.607 224.555C182.583 224.587 182.55 224.62 182.526 224.652C182.51 224.66 182.494 224.676 182.486 224.692C182.462 224.716 182.446 224.74 182.43 224.764C182.414 224.788 182.398 224.812 182.374 224.836C182.366 224.852 182.358 224.868 182.35 224.884C182.326 224.925 182.302 224.965 182.278 224.997C182.278 225.005 182.278 225.013 182.27 225.021C182.245 225.069 182.221 225.117 182.197 225.165C182.157 225.286 182.117 225.406 182.093 225.526C182.093 225.534 182.093 225.542 182.085 225.542C182.077 225.607 182.069 225.663 182.061 225.719C182.061 225.783 182.053 225.847 182.053 225.92V255.724L182.029 255.852L182.125 255.932C182.125 255.972 182.133 256.029 182.157 256.085C182.157 256.093 182.165 256.109 182.165 256.117C182.181 256.157 182.205 256.205 182.245 256.245C182.494 256.719 182.952 257.08 183.489 257.24L183.529 257.248H183.979C184.051 257.248 184.123 257.248 184.196 257.24C184.244 257.232 184.292 257.216 184.34 257.208C184.364 257.208 184.38 257.208 184.404 257.2C184.468 257.184 184.533 257.168 184.597 257.144C184.597 257.144 184.597 257.144 184.605 257.144C184.942 257.024 185.231 256.815 185.423 256.534C185.431 256.526 185.439 256.518 185.447 256.51C185.576 256.374 185.648 256.229 185.72 256.029C185.728 256.005 185.736 255.989 185.736 255.972C185.744 255.964 185.744 255.964 185.744 255.956C185.776 255.86 185.8 255.764 185.825 255.668L185.833 255.635V237.596C185.961 232.219 190.359 227.846 195.639 227.838C195.647 227.838 195.647 227.838 195.655 227.838C201.032 227.838 205.405 232.211 205.405 237.588V255.322C205.405 255.395 205.413 255.459 205.421 255.523C205.461 255.989 205.662 256.39 205.959 256.687C205.959 256.687 205.967 256.687 205.967 256.695C205.999 256.727 206.031 256.751 206.063 256.783C206.079 256.799 206.087 256.807 206.103 256.815C206.127 256.839 206.151 256.855 206.175 256.871C206.199 256.895 206.224 256.911 206.248 256.927C206.272 256.935 206.288 256.943 206.304 256.96C206.336 256.984 206.376 257 206.408 257.024C206.416 257.024 206.424 257.032 206.44 257.032C206.48 257.056 206.529 257.08 206.577 257.104H206.585C206.697 257.152 206.817 257.184 206.938 257.208C206.954 257.208 206.962 257.216 206.97 257.216C207.026 257.224 207.074 257.232 207.13 257.24C207.195 257.248 207.259 257.248 207.331 257.248C207.395 257.248 207.459 257.248 207.524 257.24C207.58 257.232 207.636 257.224 207.684 257.216C207.692 257.216 207.708 257.208 207.716 257.208C207.845 257.184 207.957 257.152 208.077 257.104C208.125 257.08 208.174 257.056 208.222 257.032C208.23 257.032 208.238 257.024 208.246 257.024C208.286 257 208.318 256.984 208.358 256.96C208.374 256.943 208.39 256.935 208.406 256.927C208.43 256.911 208.454 256.895 208.479 256.871C208.503 256.855 208.535 256.839 208.559 256.815C208.567 256.807 208.583 256.799 208.591 256.783C208.623 256.751 208.663 256.727 208.695 256.695C208.695 256.687 208.695 256.687 208.695 256.687C209 256.39 209.201 255.989 209.241 255.523C209.249 255.459 209.249 255.395 209.249 255.322V237.588C209.249 230.101 203.166 224.01 195.679 223.994Z" fill="#29B5E8"/>
<path id="Combined-Shape_4" fill-rule="evenodd" clip-rule="evenodd" d="M246.099 240.589C246.099 231.4 239.013 223.929 230.298 223.929C230.025 223.929 229.76 223.937 229.495 223.953C229.475 223.953 229.457 223.955 229.439 223.957C229.421 223.959 229.403 223.961 229.383 223.961L229.383 223.961C229.15 223.977 228.918 223.993 228.693 224.017H228.669C225.21 224.395 221.984 225.984 219.424 228.568C219.4 228.591 219.376 228.615 219.351 228.64C219.277 228.712 219.202 228.786 219.135 228.864C219.131 228.864 219.129 228.866 219.127 228.868C219.125 228.87 219.123 228.872 219.119 228.872L218.943 229.073C218.822 229.201 218.71 229.322 218.598 229.45C218.55 229.51 218.501 229.569 218.453 229.627C218.405 229.685 218.357 229.743 218.309 229.803C218.267 229.86 218.222 229.914 218.178 229.967C218.155 229.996 218.131 230.024 218.108 230.052C217.964 230.237 217.827 230.421 217.691 230.614C217.675 230.63 217.659 230.654 217.651 230.678C216.086 232.869 215.067 235.397 214.682 238.077C214.642 238.326 214.617 238.574 214.593 238.823L214.593 238.823C214.589 238.836 214.587 238.851 214.585 238.867C214.583 238.881 214.581 238.896 214.577 238.911C214.553 239.136 214.537 239.369 214.529 239.602C214.521 239.65 214.521 239.698 214.521 239.754C214.505 240.027 214.497 240.308 214.497 240.589C214.497 240.87 214.505 241.15 214.521 241.423C214.521 241.479 214.521 241.528 214.529 241.576C214.537 241.808 214.553 242.033 214.577 242.266C214.581 242.281 214.583 242.296 214.585 242.31C214.587 242.326 214.589 242.341 214.593 242.354C214.617 242.603 214.642 242.852 214.682 243.1C215.067 245.781 216.086 248.309 217.651 250.499L217.699 250.572C217.827 250.756 217.964 250.941 218.108 251.117C218.18 251.205 218.253 251.294 218.317 251.382C218.356 251.428 218.394 251.475 218.432 251.522C218.487 251.59 218.541 251.657 218.598 251.719C218.718 251.855 218.838 251.992 218.959 252.12C218.979 252.143 218.998 252.166 219.016 252.188C219.05 252.229 219.083 252.269 219.119 252.305C219.123 252.305 219.125 252.307 219.127 252.309C219.129 252.311 219.131 252.313 219.135 252.313C219.208 252.397 219.289 252.477 219.369 252.556C219.396 252.582 219.422 252.608 219.448 252.634C222.008 255.21 225.226 256.783 228.669 257.16H228.693C228.918 257.184 229.15 257.208 229.383 257.216C229.423 257.224 229.455 257.224 229.495 257.224C229.76 257.24 230.025 257.248 230.298 257.248C239.013 257.248 246.099 249.777 246.099 240.589ZM242.191 239.265V239.281C242.207 239.465 242.223 239.65 242.231 239.842C242.231 239.858 242.233 239.874 242.235 239.891C242.237 239.907 242.239 239.923 242.239 239.939C242.247 240.155 242.255 240.372 242.255 240.589C242.255 247.642 236.83 253.404 230.298 253.404C223.766 253.404 218.341 247.642 218.341 240.589C218.341 240.372 218.349 240.155 218.357 239.939L218.357 239.939C218.357 239.923 218.359 239.907 218.361 239.891C218.363 239.874 218.365 239.858 218.365 239.842C218.373 239.65 218.389 239.465 218.405 239.281L218.405 239.281V239.265C218.686 236.376 219.882 233.76 221.655 231.745C221.698 231.698 221.739 231.65 221.779 231.604C221.813 231.565 221.846 231.526 221.88 231.489L222.032 231.336C222.082 231.287 222.129 231.238 222.175 231.19C222.219 231.143 222.262 231.098 222.305 231.055C222.349 231.011 222.395 230.969 222.442 230.927C222.488 230.885 222.534 230.843 222.578 230.798C222.606 230.774 222.632 230.75 222.658 230.726C222.684 230.702 222.71 230.678 222.739 230.654C222.883 230.526 223.027 230.405 223.172 230.285C223.172 230.285 223.18 230.285 223.18 230.277C224.857 228.921 226.871 228.03 229.038 227.781C229.051 227.781 229.062 227.779 229.072 227.776C229.08 227.775 229.087 227.773 229.094 227.773C229.263 227.749 229.423 227.741 229.592 227.733C229.632 227.725 229.664 227.725 229.696 227.725C229.897 227.709 230.097 227.709 230.298 227.709C230.499 227.709 230.699 227.709 230.9 227.725C230.932 227.725 230.964 227.725 231.004 227.733C231.173 227.741 231.333 227.749 231.502 227.773C231.509 227.773 231.516 227.775 231.524 227.776C231.534 227.779 231.545 227.781 231.558 227.781C233.724 228.03 235.739 228.921 237.416 230.277C237.416 230.285 237.424 230.285 237.424 230.285L237.424 230.285C237.568 230.405 237.713 230.526 237.857 230.654C237.885 230.678 237.911 230.704 237.938 230.73C237.964 230.756 237.99 230.782 238.018 230.806C238.046 230.832 238.075 230.858 238.104 230.884C238.167 230.939 238.231 230.995 238.291 231.055C238.339 231.103 238.385 231.152 238.431 231.2C238.477 231.248 238.523 231.296 238.571 231.344L238.716 231.489C238.756 231.533 238.794 231.577 238.832 231.621C238.87 231.665 238.908 231.709 238.949 231.753C240.722 233.768 241.91 236.376 242.191 239.265Z" fill="#29B5E8"/>
<path id="Path_11" d="M292.538 224.756C292.522 224.74 292.514 224.724 292.498 224.708C292.305 224.467 292.048 224.274 291.759 224.154C291.759 224.154 291.759 224.154 291.751 224.154C291.719 224.13 291.679 224.122 291.647 224.106C291.631 224.106 291.615 224.098 291.591 224.09C291.334 224.001 291.053 223.985 290.78 224.025H290.772C290.219 224.114 289.689 224.451 289.392 224.948C289.392 224.948 289.392 224.948 289.384 224.948C289.344 225.029 289.296 225.109 289.264 225.189L289.256 225.197V225.205L280.059 250.379L272.837 233.19C272.765 233.029 272.669 232.885 272.556 232.748C272.163 232.291 271.561 232.002 270.943 232.002C270.847 232.002 270.759 232.002 270.662 232.026C270.654 232.026 270.646 232.026 270.63 232.026C269.988 232.139 269.386 232.588 269.114 233.19C269.114 233.198 269.114 233.198 269.114 233.198L261.891 250.387L258.392 240.878L252.631 225.205C252.598 225.117 252.566 225.045 252.526 224.964C252.518 224.956 252.518 224.956 252.51 224.948C252.334 224.619 252.053 224.362 251.716 224.202C251.716 224.202 251.708 224.202 251.708 224.194C251.539 224.122 251.363 224.066 251.178 224.033C251.162 224.033 251.154 224.033 251.138 224.025C251.05 224.017 250.953 224.009 250.865 224.009H250.857C250.833 224.009 250.817 224.009 250.801 224.009C250.761 224.009 250.721 224.009 250.681 224.017C250.656 224.017 250.624 224.025 250.6 224.025C250.56 224.033 250.528 224.033 250.496 224.042C250.472 224.05 250.448 224.05 250.424 224.058C250.384 224.066 250.344 224.074 250.303 224.09C250.287 224.098 250.271 224.098 250.255 224.106C250.215 224.122 250.175 224.13 250.135 224.154C250.135 224.154 250.135 224.154 250.127 224.154C249.798 224.298 249.533 224.547 249.34 224.836C249.332 224.852 249.324 224.86 249.316 224.876C249.308 224.892 249.3 224.908 249.292 224.924C249.148 225.165 249.06 225.446 249.027 225.727C248.995 226.024 249.035 226.337 249.156 226.625L255.824 244.545L260.102 256.036C260.102 256.036 260.102 256.036 260.102 256.044C260.278 256.478 260.535 256.775 260.888 256.935C260.896 256.943 260.912 256.951 260.92 256.959C260.928 256.967 260.936 256.975 260.952 256.983C260.952 256.991 260.96 256.991 260.968 256.999C260.984 257.007 260.992 257.015 261.008 257.031C261.017 257.031 261.017 257.031 261.025 257.031C261.089 257.072 261.169 257.104 261.273 257.112C261.281 257.112 261.289 257.12 261.297 257.12C261.329 257.128 261.362 257.144 261.394 257.152C261.41 257.152 261.426 257.16 261.442 257.16C261.642 257.224 261.771 257.248 261.931 257.248C262.02 257.248 262.1 257.24 262.188 257.224C262.252 257.216 262.325 257.2 262.389 257.176C262.405 257.168 262.421 257.168 262.437 257.16C262.501 257.144 262.565 257.12 262.629 257.088C262.654 257.08 262.678 257.072 262.702 257.056C262.742 257.031 262.79 257.007 262.838 256.983C262.87 256.959 262.91 256.935 262.95 256.911C262.975 256.895 262.999 256.871 263.023 256.855C263.079 256.815 263.127 256.775 263.183 256.726C263.191 256.718 263.199 256.71 263.207 256.694C263.263 256.638 263.32 256.582 263.376 256.518C263.376 256.51 263.384 256.502 263.392 256.494C263.44 256.43 263.488 256.357 263.528 256.285C263.568 256.205 263.609 256.117 263.641 256.028L263.649 256.004L263.673 255.972L263.697 255.916L270.943 238.615L278.254 255.98C278.31 256.157 278.398 256.317 278.519 256.47C278.535 256.494 278.551 256.51 278.567 256.534C278.607 256.582 278.647 256.63 278.695 256.678C278.719 256.694 278.743 256.718 278.767 256.735C278.807 256.775 278.856 256.815 278.904 256.855C278.928 256.871 278.944 256.887 278.968 256.895C279.024 256.935 279.08 256.975 279.136 257.007C279.153 257.015 279.169 257.023 279.185 257.031C279.249 257.064 279.305 257.096 279.377 257.12C279.393 257.128 279.409 257.136 279.433 257.136C279.49 257.16 279.546 257.184 279.61 257.2C279.69 257.216 279.77 257.232 279.843 257.248H280.083C280.18 257.248 280.268 257.24 280.356 257.224C280.38 257.224 280.396 257.224 280.42 257.216C280.501 257.2 280.573 257.184 280.645 257.16C280.669 257.152 280.685 257.144 280.701 257.136C280.782 257.112 280.862 257.072 280.934 257.031C280.942 257.031 280.95 257.023 280.958 257.023C281.046 256.967 281.135 256.911 281.207 256.855C281.528 256.614 281.761 256.301 281.921 255.916V255.908L286.439 243.742L292.795 226.625C293.043 226.024 292.947 225.366 292.602 224.852C292.586 224.82 292.562 224.788 292.538 224.756Z" fill="#29B5E8"/>
<path id="Path_12" d="M394.589 225.294C394.589 225.261 394.581 225.221 394.573 225.189C394.573 225.165 394.565 225.141 394.557 225.117C394.549 225.077 394.541 225.037 394.533 225.005C394.525 224.981 394.517 224.956 394.509 224.94C394.501 224.892 394.485 224.852 394.461 224.812C394.461 224.796 394.453 224.788 394.445 224.772C394.421 224.716 394.397 224.668 394.365 224.619C394.365 224.611 394.365 224.611 394.365 224.611C394.268 224.443 394.148 224.298 394.012 224.17C394.004 224.162 394.004 224.162 394.004 224.162C393.996 224.154 393.996 224.154 393.996 224.154C393.313 223.472 392.35 223.384 391.596 223.913C391.572 223.929 391.556 223.945 391.532 223.953C391.5 223.977 391.468 224.002 391.436 224.026C391.387 224.074 391.339 224.114 391.291 224.162C391.291 224.162 391.283 224.162 391.283 224.17L372.481 242.499V211.844C372.481 211.78 372.481 211.716 372.473 211.651C372.401 210.945 371.927 210.359 371.285 210.087C371.277 210.087 371.277 210.078 371.269 210.078C371.229 210.062 371.189 210.046 371.149 210.038C371.133 210.03 371.109 210.022 371.085 210.014C371.053 210.006 371.021 209.998 370.98 209.99C370.956 209.982 370.924 209.974 370.892 209.966C370.86 209.958 370.82 209.95 370.788 209.95C370.756 209.942 370.732 209.942 370.7 209.934C370.627 209.926 370.563 209.926 370.499 209.926C369.448 209.926 368.573 210.801 368.573 211.844V255.322C368.573 256.374 369.448 257.248 370.499 257.248C370.563 257.248 370.635 257.248 370.7 257.24C370.708 257.24 370.716 257.232 370.732 257.232C370.788 257.224 370.844 257.224 370.892 257.208C370.908 257.208 370.924 257.2 370.94 257.2C370.988 257.184 371.037 257.176 371.085 257.16C371.093 257.16 371.101 257.152 371.109 257.152C371.847 256.919 372.393 256.285 372.473 255.523C372.481 255.459 372.481 255.395 372.481 255.322V247.988L378.813 241.664L391.115 256.51C391.195 256.638 391.283 256.751 391.396 256.839C391.42 256.863 391.436 256.879 391.46 256.895C391.492 256.919 391.524 256.943 391.556 256.959C391.596 256.991 391.636 257.008 391.676 257.032C391.692 257.04 391.717 257.056 391.733 257.064C391.789 257.088 391.837 257.104 391.893 257.128C391.909 257.136 391.925 257.136 391.933 257.144C391.997 257.16 392.054 257.176 392.118 257.192C392.126 257.192 392.142 257.2 392.158 257.2C392.222 257.216 392.278 257.224 392.35 257.232C392.367 257.232 392.383 257.232 392.399 257.24C392.479 257.24 392.559 257.248 392.647 257.248C392.776 257.248 392.896 257.24 393.009 257.224C393.017 257.224 393.017 257.224 393.017 257.224C393.241 257.192 393.45 257.12 393.642 257.024C393.65 257.024 393.65 257.016 393.65 257.016C393.739 256.967 393.827 256.911 393.915 256.847L393.939 256.823C394.67 256.093 394.782 255.098 394.252 254.271C394.204 254.199 394.156 254.127 394.1 254.054L381.605 238.879L394.012 226.89C394.341 226.553 394.541 226.144 394.589 225.703C394.589 225.695 394.589 225.687 394.597 225.679C394.597 225.639 394.597 225.59 394.597 225.55C394.597 225.526 394.605 225.502 394.605 225.486C394.605 225.47 394.605 225.462 394.605 225.454C394.605 225.422 394.597 225.398 394.597 225.366C394.597 225.342 394.589 225.318 394.589 225.294Z" fill="#29B5E8"/>
</g>
</g>
</svg>
