<svg width="480" height="480" viewBox="0 0 480 480" fill="none" xmlns="http://www.w3.org/2000/svg">
<g id="Sqlserver">
<g id="microsoft-sql-server">
<g id="Group">
<path id="Shape" fill-rule="evenodd" clip-rule="evenodd" d="M303.46 188.545L303.46 188.544V188.545H303.46ZM303.46 188.545V188.545L304.448 190.883C299.562 192.292 299.203 192.412 299.083 192.502C299.023 192.532 299.053 193.102 299.173 193.731C299.922 198.018 300.402 202.394 300.672 207.789C300.851 211.087 300.762 220.829 300.552 223.737C299.743 234.138 298.514 242.921 296.955 249.515C294.347 260.396 289.551 273.135 282.897 286.715C280.948 290.701 279.27 293.908 279.029 294.058C278.91 294.148 275.972 294.148 273.784 294.058C262.963 293.638 243.299 290.851 233.138 288.273C227.023 286.744 218.9 284.017 214.074 281.888C204.602 277.721 196.478 271.607 192.402 265.612C189.224 260.905 188.415 255.81 190.063 250.774C190.993 247.986 193.151 244.359 195.879 240.941C197.707 238.664 201.304 235.067 203.732 233.148C205.92 231.41 208.768 229.012 211.826 226.374C214.613 223.976 217.191 221.608 219.649 219.269L229.301 216.721L263.803 201.494L303.46 188.545ZM295.966 208.868C295.726 203.053 294.767 193.85 294.408 193.85C294.078 193.85 284.186 197.028 280.019 198.437C277.561 199.276 277.531 199.306 277.832 199.516C278.731 200.235 284.426 204.012 287.424 205.901C290.87 208.059 295.697 210.906 295.936 210.906C295.996 210.906 296.026 210.097 295.966 208.868ZM274.204 200.505C274.474 200.505 275.163 200.894 276.812 201.914C282.987 205.781 291.38 210.457 294.977 212.016C295.061 212.052 295.14 212.085 295.212 212.115C295.511 212.239 295.7 212.318 295.724 212.431C295.765 212.622 295.336 212.914 294.182 213.698C294.022 213.807 293.847 213.925 293.658 214.054C288.203 217.771 281.398 221.428 273.065 225.115C271.596 225.774 270.367 226.284 270.337 226.284C270.278 226.284 270.457 225.535 270.696 224.635C272.705 217.171 273.844 209.617 273.904 203.562V203.562C273.93 200.995 273.934 200.626 274.104 200.517C274.132 200.499 274.165 200.488 274.204 200.475C274.144 200.505 274.174 200.505 274.204 200.505ZM269.858 210.816C270.098 208.988 270.217 202.273 270.038 202.094C269.918 201.974 254.121 208.089 253.641 208.418C253.551 208.508 254.63 211.146 255.32 212.495C256.669 215.133 258.497 217.83 260.835 220.528C262.184 222.087 266.29 226.104 266.411 225.954C266.47 225.894 266.771 224.964 267.1 223.856C268.479 219.269 269.318 215.193 269.858 210.816ZM250.434 209.797C250.463 209.797 250.493 209.797 250.524 209.827C250.583 209.887 250.794 210.367 250.973 210.906C251.932 213.514 254.09 217.351 255.949 219.809C257.988 222.507 260.656 225.384 262.873 227.273C263.593 227.872 264.252 228.442 264.342 228.532L264.349 228.539C264.374 228.564 264.396 228.585 264.399 228.609C264.418 228.744 263.854 228.958 260.113 230.381L260.113 230.381L260.113 230.381L260.113 230.381L259.696 230.54C254.031 232.698 247.856 234.856 240.781 237.134C239.091 237.679 237.403 238.229 235.716 238.783C235.446 238.873 235.536 238.723 236.315 237.494C239.822 232.009 245.158 221.248 248.156 213.634C248.665 212.315 249.175 210.996 249.265 210.696C249.385 210.277 249.534 210.127 249.924 209.917L249.942 209.912C250.145 209.854 250.346 209.797 250.434 209.797ZM241.501 218.49C243 215.552 244.529 212.345 244.439 212.285C244.319 212.165 231.909 217.981 228.072 219.929L228.048 219.941C227.728 220.101 227.528 220.201 227.385 220.354C227.148 220.606 227.065 221.003 226.845 222.055L226.813 222.207C226.304 224.725 226.213 228.801 226.663 231.139C227.113 233.508 227.952 236.086 228.972 238.094C229.451 239.023 229.511 239.083 229.661 238.873C229.751 238.754 230.44 237.674 231.16 236.505C235.416 229.731 238.593 224.155 241.501 218.49ZM296.146 214.384V215.643C296.146 222.327 295.427 231.499 294.377 238.184C294.197 239.353 294.047 240.312 294.018 240.342C294.018 240.342 293.148 240.103 292.129 239.803C287.633 238.394 282.747 236.325 278.341 233.898C275.433 232.309 271.206 229.701 271.326 229.581C271.347 229.56 271.949 229.242 272.802 228.791C273.188 228.587 273.626 228.355 274.084 228.112C279.96 225.055 285.594 221.758 290.481 218.49C292.309 217.261 295.066 215.283 295.667 214.743L296.146 214.384ZM221.717 224.575C221.897 223.496 221.927 223.256 221.807 223.256C221.777 223.256 221.747 223.256 221.747 223.286C221.388 223.406 216.681 226.014 213.624 227.752C209.368 230.18 206.879 232.069 203.762 235.306C199.086 240.162 195.729 245.917 195.039 250.323C194.949 250.833 194.979 250.863 195.189 250.803C195.251 250.788 195.715 250.66 196.405 250.469C197.048 250.292 197.889 250.06 198.786 249.814C205.021 248.106 224.865 242.29 225.075 242.11C225.105 242.08 224.625 241.061 224.026 239.832C221.867 235.396 221.148 232.158 221.388 227.782C221.448 226.793 221.597 225.354 221.717 224.575ZM268.569 231.619C268.599 231.589 269.318 231.979 270.187 232.488C276.602 236.206 285.535 239.653 293.148 241.421L293.838 241.571L292.878 242.11C288.892 244.329 275.793 249.784 262.394 254.79C260.445 255.509 258.527 256.229 258.167 256.379C257.807 256.528 257.477 256.618 257.477 256.589C257.477 256.558 258.017 255.509 258.706 254.22C262.453 247.206 266.23 238.663 268.149 232.728C268.291 232.392 268.401 232.076 268.474 231.868L268.474 231.868L268.474 231.868L268.474 231.867C268.524 231.724 268.556 231.631 268.569 231.619ZM263.293 234.557C263.593 233.837 263.833 233.208 263.803 233.178C263.773 233.178 262.813 233.568 261.644 234.048C253.401 237.585 245.098 240.462 235.326 243.13L232.598 243.879L233.138 244.539C236.825 249.185 242.46 253.981 248.815 257.878C249.894 258.537 250.793 259.077 250.823 259.077C250.853 259.077 251.783 257.488 252.892 255.51C257.268 247.776 260.685 240.881 263.293 234.557ZM293.418 243.519C293.448 244.209 291.919 250.384 290.66 254.85C289.611 258.597 288.712 261.535 287.063 266.72C286.344 268.999 285.715 270.887 285.685 270.887C285.655 270.887 285.475 270.857 285.295 270.797C276.393 269.178 268.419 266.93 260.925 263.933C258.827 263.093 255.829 261.744 255.649 261.594C255.59 261.534 257.388 260.695 259.666 259.706C273.305 253.741 287.453 246.966 292.309 244.059C292.878 243.699 293.328 243.519 293.418 243.519ZM215.962 258.867C221.298 251.403 225.105 245.917 225.045 245.858C225.015 245.858 223.606 246.187 221.867 246.607C220.128 247.027 215.303 248.166 211.136 249.125C203.642 250.864 195.638 252.752 195.189 252.872C194.889 252.962 194.889 253.681 195.219 255.12C195.909 258.208 197.647 261.595 200.225 264.802C201.454 266.361 204.211 269.178 205.8 270.497L207.149 271.636L208.409 269.688C209.098 268.609 210.327 266.81 211.136 265.671C211.399 265.302 211.803 264.731 212.293 264.039L212.296 264.035L212.304 264.023L212.307 264.019L212.311 264.013L212.312 264.012L212.318 264.002L212.319 264.001C213.338 262.563 214.717 260.614 215.962 258.867ZM228.881 247.326L229.84 248.405C234.157 253.232 238.564 256.799 243.899 259.916C244.859 260.456 245.578 260.935 245.517 260.966C245.308 261.115 226.993 267.619 218.51 270.557C213.744 272.236 209.817 273.584 209.788 273.584C209.758 273.584 209.488 273.405 209.187 273.195L208.648 272.805L209.517 271.546C212.335 267.47 215.873 263.004 223.576 253.711L228.881 247.326ZM255.769 265.492C254.15 264.892 252.832 264.412 252.802 264.442C252.802 264.458 252.558 264.823 252.178 265.391C251.853 265.876 251.429 266.509 250.973 267.2C247.406 272.656 243.12 278.411 238.803 283.567C237.934 284.586 237.215 285.515 237.215 285.575C237.215 285.695 238.204 285.965 238.504 285.904C238.623 285.875 240.662 285.305 243.03 284.616C255.859 280.929 271.596 276.282 276.752 274.664C279.99 273.645 284.395 272.176 284.606 272.056C284.726 271.966 284.366 271.906 283.707 271.846C279.36 271.487 271.986 270.228 266.89 268.939C262.753 267.889 259.666 266.96 255.769 265.492ZM247.526 264.592C247.556 264.622 245.428 268.039 241.711 273.914C240.671 275.543 239.554 277.313 238.73 278.619L238.729 278.619C238.295 279.308 237.941 279.867 237.724 280.209C237.277 280.924 236.664 281.939 236.17 282.757L236.169 282.758C236 283.037 235.846 283.293 235.716 283.506L234.846 285.035L234.397 284.915C233.318 284.616 225.734 281.947 223.726 281.138C221.237 280.149 218.66 278.95 216.741 277.931C214.343 276.642 211.346 274.723 211.586 274.664C211.625 274.644 213.4 274.162 216.009 273.452L216.017 273.45C217.39 273.077 218.994 272.64 220.698 272.176C233.827 268.608 241.111 266.54 245.877 265.042C246.747 264.772 247.496 264.562 247.526 264.592ZM284.875 273.345H284.845C284.635 273.375 283.856 273.704 282.927 274.124C277.022 276.882 271.177 279.13 265.271 280.928C260.595 282.367 255.979 283.536 246.387 285.694L241.921 286.714L242.64 286.864C245.787 287.583 258.317 289.771 265.781 290.91C270.068 291.54 277.112 292.529 277.621 292.559C277.832 292.589 277.981 292.349 278.37 291.39C280.139 287.133 284.995 273.645 284.875 273.345Z" fill="url(#paint0_linear_0_623)"/>
<path id="Shape_2" fill-rule="evenodd" clip-rule="evenodd" d="M262.574 96.1004C261.914 96.011 251.273 99.8478 244.409 102.635C235.146 106.412 227.953 110.01 223.516 113.126C221.868 114.296 219.799 116.364 219.47 117.173C219.35 117.473 219.29 117.833 219.29 118.192L223.306 121.999L232.868 125.057L255.62 129.133L281.638 133.6L281.908 131.352C281.863 131.352 281.825 131.344 281.788 131.337C281.751 131.329 281.713 131.322 281.669 131.322L278.251 130.782L277.562 129.553C274.025 123.318 270.128 115.585 267.85 110.369C266.081 106.322 264.403 101.646 263.473 98.289C262.964 96.2507 262.904 96.1308 262.575 96.101V96.1003H262.574V96.1004ZM262.094 97.6296H262.125C262.154 97.6592 262.274 98.4991 262.394 99.4877C262.903 103.685 263.833 107.731 265.302 112.107L265.459 112.574L265.459 112.574L265.459 112.574C266.021 114.241 266.229 114.856 266.05 115.004C265.945 115.091 265.707 115.017 265.331 114.9C265.266 114.879 265.196 114.858 265.122 114.835C262.064 113.996 248.366 111.628 238.444 110.249C236.855 110.039 235.506 109.83 235.506 109.8C235.386 109.68 242.67 105.873 245.878 104.374C249.984 102.485 261.255 97.7793 262.094 97.6296ZM234.367 111.448L233.198 111.058L234.757 112.467C236.346 113.966 240.482 117.923 245.758 123.048L248.755 125.986L249.954 126.166C250.272 126.209 250.583 126.26 250.833 126.3L250.833 126.3L250.833 126.3C251.102 126.344 251.301 126.376 251.363 126.376C251.483 126.376 252.352 125.896 253.311 125.297C256.549 123.288 261.225 120.68 265.481 118.552C266.56 118.043 267.399 117.593 267.369 117.563C267.359 117.563 267.247 117.552 267.062 117.533L267.061 117.533L267.061 117.533C266.725 117.499 266.149 117.441 265.511 117.383C256.698 116.664 240.722 113.606 234.367 111.448ZM231.999 111.987L236.226 117.263C238.106 119.632 240.006 121.961 240.921 123.083C241.13 123.338 241.287 123.531 241.382 123.648L241.556 123.863C241.983 124.39 242.307 124.791 242.281 124.817C242.161 124.907 236.166 123.738 232.988 123.019C229.721 122.269 228.372 121.909 226.364 121.28L224.715 120.74V120.32C224.745 118.312 227.293 115.315 231.609 112.258L231.999 111.987ZM268.539 120.261C268.179 119.451 268.029 119.182 267.909 119.182C267.88 119.152 267.819 119.182 267.789 119.241C267.729 119.287 267.539 119.447 267.277 119.667C267.02 119.883 266.693 120.158 266.351 120.441C263.533 122.809 260.356 125.027 257.208 126.765C256.819 126.975 256.519 127.185 256.519 127.215C256.519 127.275 259.786 127.814 269.948 129.463C272.954 129.954 273.61 130.08 273.651 129.972C273.668 129.928 273.584 129.845 273.514 129.733C272.736 128.564 269.558 122.509 268.539 120.261Z" fill="url(#paint1_linear_0_623)"/>
<path id="Shape_3" fill-rule="evenodd" clip-rule="evenodd" d="M219.679 116.754C219.679 116.754 219.02 117.803 219.649 119.362C220.039 120.321 221.178 121.49 222.467 122.689C222.467 122.689 235.806 135.698 237.424 137.557C244.798 146.07 248.006 154.463 248.305 166.034C248.485 173.468 247.076 180.002 243.569 187.586C237.334 201.195 224.175 216.213 203.882 232.879L206.85 231.89C208.768 230.451 211.376 228.922 217.491 225.565C231.609 217.831 247.496 210.727 266.98 203.413C295.036 192.861 341.169 180.511 367.427 176.495L370.155 176.075L369.735 175.416C367.337 171.698 365.688 169.391 363.71 166.933C357.955 159.798 350.971 154.014 342.427 149.217C330.677 142.653 315.479 137.527 296.236 133.72C292.609 133.001 284.635 131.622 278.161 130.633C264.432 128.505 255.559 127.036 245.787 125.357C242.28 124.758 237.034 123.859 233.557 123.109C231.759 122.719 228.312 121.91 225.614 120.981C225.356 120.881 225.085 120.78 224.806 120.677C222.746 119.916 220.259 118.998 219.679 116.754ZM227.413 124.248C227.434 124.227 227.692 124.315 228.072 124.445C228.216 124.494 228.378 124.55 228.552 124.608C229.691 124.997 231.16 125.447 232.899 125.927C234.214 126.289 235.533 126.638 236.855 126.976C238.068 127.279 239.145 127.568 239.726 127.725C240.007 127.8 240.172 127.845 240.182 127.845C240.392 128.055 243.42 137.736 244.439 141.453C244.828 142.862 245.129 144.061 245.099 144.061C245.068 144.092 244.738 143.582 244.349 142.892C240.842 136.717 235.296 130.453 228.881 125.416C228.043 124.818 227.413 124.278 227.413 124.248ZM243.779 128.594C242.97 128.415 242.311 128.325 242.161 128.325C242.151 128.325 242.144 128.328 242.139 128.33L242.139 128.331C242.133 128.313 242.13 128.301 242.13 128.295C242.13 128.322 242.13 128.331 242.133 128.332L242.135 128.332L242.139 128.331C242.186 128.484 242.434 129.055 242.73 129.673C244.768 134.019 247.017 140.194 248.095 144.361C248.246 144.991 248.425 145.5 248.425 145.5C248.425 145.5 249.175 144.781 250.044 143.911C252.202 141.753 255.2 139.355 258.527 137.137C259.846 136.238 263.833 133.87 264.822 133.361C265.271 133.12 265.631 132.911 265.631 132.851C265.631 132.791 264.852 132.611 263.862 132.461C258.018 131.472 248.875 129.733 243.779 128.594ZM268.119 133.271C268.299 133.33 268.599 134.35 269.198 136.598C270.307 140.944 270.817 145.8 270.637 150.326C270.577 151.585 270.517 152.754 270.457 152.905L270.367 153.204L268.809 152.695C265.601 151.675 260.386 150.146 255.92 148.888C253.371 148.198 251.303 147.569 251.303 147.509C251.303 147.329 255.02 143.612 256.609 142.203C259.636 139.535 267.849 133.18 268.119 133.271ZM288.203 136.688C282.597 135.608 270.277 133.481 270.187 133.57C270.157 133.6 270.337 134.05 270.547 134.53C272.646 139.385 273.785 145.141 273.785 150.836C273.785 151.885 273.815 152.754 273.845 152.754C273.874 152.754 275.164 151.915 276.692 150.896C282.537 146.999 288.412 143.792 296.326 140.225C298.334 139.325 298.964 138.966 298.784 138.906C298.424 138.756 292.37 137.497 288.203 136.688ZM302.051 139.865C302.141 139.955 301.751 142.383 301.391 143.822C300.313 148.288 297.405 154.913 293.838 161.148C293.208 162.257 292.639 163.156 292.579 163.186C292.519 163.216 291.71 162.766 290.78 162.226C287.303 160.188 283.347 158.27 279.03 156.471C278.682 156.323 278.347 156.183 278.046 156.057L278.045 156.057L278.045 156.057C277.308 155.748 276.773 155.525 276.752 155.482C276.542 155.302 286.194 148.917 291.29 145.86C295.337 143.402 301.931 139.745 302.051 139.865ZM312.902 142.563C310.054 141.724 304.599 140.225 304.329 140.225C304.239 140.225 304.15 140.674 304.119 141.244C303.61 147.299 301.542 154.403 298.334 161.207C297.945 162.047 297.645 162.736 297.705 162.736C297.764 162.736 298.544 162.437 299.413 162.077C310.054 157.761 321.086 154.343 333.975 151.376L335.503 151.016L333.315 150.027C328.039 147.629 319.946 144.661 312.902 142.563ZM250.014 152.695C250.104 152.604 254.271 153.594 256.519 154.223C259.936 155.182 267.19 157.61 267.19 157.79C267.19 157.811 266.809 158.142 266.26 158.619C266.009 158.837 265.723 159.086 265.422 159.349C261.495 162.616 257.718 166.063 253.191 170.44C251.842 171.729 250.704 172.778 250.644 172.778C250.584 172.778 250.554 172.598 250.584 172.358C251.273 167.322 251.123 160.848 250.164 154.283C250.144 154.091 250.123 153.906 250.104 153.733L250.104 153.732L250.104 153.732C250.039 153.15 249.991 152.718 250.014 152.695ZM334.394 157.73C335.653 155.962 337.631 152.844 337.572 152.785C337.512 152.724 333.645 153.834 330.018 154.972C323.093 157.101 313.861 160.398 307.087 163.156C303.219 164.714 298.124 166.903 298.124 166.993C298.124 167.023 298.394 167.262 298.724 167.502C299.054 167.742 300.042 168.551 300.942 169.301C305.708 173.257 309.725 177.664 313.082 182.7C313.502 183.359 313.891 183.898 313.921 183.898C313.942 183.898 314.42 183.298 315.109 182.432L315.112 182.429C315.42 182.042 315.77 181.603 316.14 181.141C317.308 179.642 320.846 175.176 323.993 171.219C329.958 163.726 332.596 160.308 334.394 157.73ZM339.88 153.384C339.999 153.354 340.719 153.714 341.588 154.223C348.873 158.389 356.006 163.755 361.642 169.271C363.231 170.83 367.157 174.906 367.097 174.936C367.097 174.936 365.718 175.056 364.1 175.176C351.48 176.135 335.324 178.803 319.796 182.549C318.747 182.789 317.818 182.999 317.758 182.999C317.699 182.999 318.867 181.83 320.337 180.421C329.449 171.639 333.616 166.093 338.531 156.201C339.22 154.733 339.82 153.474 339.88 153.384ZM280.379 163.606C277.442 162.137 273.545 160.308 273.125 160.219C273.035 160.219 272.915 160.518 272.796 160.967C271.566 166.693 269.408 172.568 266.71 177.484C265.901 178.952 265.871 179.073 265.991 179.073C266.021 179.073 267.22 178.353 268.659 177.484C273.695 174.426 278.521 171.759 284.156 168.941C285.924 168.072 287.363 167.322 287.333 167.292C287.124 167.113 283.077 164.954 280.379 163.606ZM269.228 160.938C269.318 161.028 268.299 164.714 267.67 166.723C266.44 170.53 264.372 175.296 262.364 178.893C262.155 179.257 261.902 179.696 261.649 180.131L261.649 180.132C261.321 180.698 260.995 181.26 260.775 181.65L260.026 182.849L258.347 181.231C256.399 179.342 254.81 178.173 252.772 177.124C251.962 176.705 251.333 176.345 251.333 176.285C251.333 176.045 256.459 171.399 260.386 168.042C263.203 165.614 269.138 160.848 269.228 160.938ZM294.528 171.699L293.059 170.74L292.009 172.358C286.794 180.181 279.78 188.215 271.866 195.499L271.324 195.999L271.323 195.999C269.326 197.841 268.997 198.144 269.03 198.19C269.036 198.199 269.057 198.199 269.082 198.198L269.108 198.197C269.198 198.197 270.367 197.777 271.746 197.268C284.126 192.711 294.737 189.324 308.466 185.517L310.893 184.828L310.534 184.438C309.874 183.719 306.577 180.751 304.869 179.342C301.841 176.795 297.884 173.887 294.528 171.699ZM286.794 172.298C286.854 172.358 282.747 178.143 280.289 181.411C277.351 185.308 272.136 191.842 268.539 196.098C267.04 197.867 265.751 199.336 265.691 199.366C265.601 199.396 265.571 198.946 265.571 198.257C265.571 194.629 264.642 190.763 263.023 187.466C262.334 186.087 262.214 185.757 262.364 185.607C262.934 185.097 271.656 180.121 277.172 177.154C280.889 175.176 286.703 172.238 286.794 172.298ZM250.464 182.37C249.684 181.95 248.995 181.591 248.905 181.591C248.845 181.591 248.545 182.25 248.305 183.12C247.646 185.128 246.717 187.436 245.788 189.384C244.738 191.572 243.75 193.281 241.771 196.309C241.472 196.758 241.561 196.698 244.199 194.6C246.717 192.592 251.033 189.324 253.881 187.286C254.9 186.537 255.679 185.907 255.619 185.847C254.091 184.588 252.382 183.419 250.464 182.37ZM260.127 190.915L260.127 190.915L260.146 190.943C261.854 193.49 263.173 196.908 263.503 199.666L263.563 200.266L259.457 201.854C252.112 204.702 245.338 207.52 240.751 209.617C239.463 210.217 237.215 211.296 235.746 212.016C234.277 212.765 233.078 213.334 233.078 213.305C233.078 213.275 234.007 212.585 235.146 211.746C244.109 205.241 251.873 198.107 257.688 190.973L258.026 190.57L258.026 190.57C258.509 189.992 258.898 189.528 258.947 189.504L259.007 189.504C259.155 189.475 259.334 189.74 260.127 190.915ZM248.725 196.998C251.064 194.63 254.481 190.763 254.361 190.643C254.241 190.523 244.079 197.417 239.673 200.595C238.024 201.764 237.814 201.974 236.675 203.443C234.966 205.661 233.468 207.459 231.489 209.588C228.372 212.975 228.102 213.275 228.312 213.155C228.369 213.117 228.709 212.902 229.178 212.606C229.455 212.431 229.776 212.227 230.111 212.016C237.215 207.52 242.94 202.903 248.725 196.998Z" fill="url(#paint2_radial_0_623)"/>
</g>
<path id="Shape_4" fill-rule="evenodd" clip-rule="evenodd" d="M161.909 309.346H164.2V296.94H167.556V295.011H164.2V292.799C164.2 290.787 164.979 289.775 166.592 289.775C167.135 289.775 167.688 289.912 168.099 290.144V288.074C167.688 287.89 167.135 287.848 166.444 287.848C165.206 287.848 164.195 288.217 163.367 288.996C162.403 289.913 161.893 291.103 161.893 292.716V295.065H159.469V296.993H161.893V309.353L161.909 309.346ZM88.7243 291.34C89.1461 291.34 89.5041 291.197 89.7779 290.918C90.0573 290.644 90.2419 290.286 90.2419 289.865C90.2419 289.454 90.1047 289.085 89.7835 288.811C89.499 288.532 89.1354 288.389 88.7192 288.389C88.3087 288.389 87.9399 288.532 87.6654 288.811C87.387 289.085 87.2021 289.454 87.2021 289.865C87.2021 290.323 87.3445 290.644 87.6654 290.918C87.9822 291.197 88.3084 291.34 88.7192 291.34H88.7243ZM64.3805 295.886C64.3805 294.095 64.328 292.762 64.2858 291.977H64.328C64.5122 292.904 64.7388 293.594 64.9232 294.052L71.7714 309.351H72.92L79.7682 293.916C79.9531 293.495 80.1375 292.862 80.3639 291.982H80.4164C80.2796 293.51 80.2322 294.837 80.2322 295.896V309.399H82.576V289.327H79.6366L73.3415 303.287C73.1095 303.84 72.7881 304.668 72.3773 305.764H72.2821C72.1453 305.221 71.8239 304.394 71.3657 303.382L65.2123 289.279H62.0887V309.35H64.3434V295.896L64.3805 295.886ZM183.033 299.979C184.182 299.979 185.141 299.611 185.931 298.82C186.71 298.04 187.121 297.124 187.121 295.975C187.121 294.827 186.71 293.868 185.931 293.13C185.141 292.393 184.229 292.024 183.086 292.024C181.927 292.024 180.968 292.393 180.188 293.172C179.398 293.952 179.04 294.911 179.04 296.018C179.04 297.177 179.409 298.135 180.188 298.863C180.926 299.6 181.885 299.969 183.033 299.969V299.979ZM67.1361 329.28C66.7199 333.231 70.1232 336.582 77.7932 341.228L77.7937 341.222C89.3147 348.108 92.3549 352.517 91.475 360.925C90.4637 369.881 79.7638 375.396 68.006 373.052C63.2652 372.136 60.1042 370.808 60.1042 370.808C60.1042 370.808 59.914 365.198 60.283 362.853C60.3778 362.853 62.1691 363.733 64.2865 364.787C74.5749 369.976 84.5471 367.089 84.5471 358.818C84.5471 354.815 81.3339 351.142 74.0642 346.913C61.115 339.379 57.5323 332.625 61.5786 323.67C64.3334 317.601 70.2126 314.619 79.3052 314.756C85.232 314.851 89.3676 316.642 89.3676 316.642L89.3144 323.996C81.8341 319.861 68.3264 318.349 67.1361 329.28ZM123.727 314.788C124.004 314.775 124.281 314.761 124.558 314.761L124.558 314.756C141.463 314.618 151.615 326.656 150.65 345.911C150.282 352.38 149.913 353.987 147.342 359.186C144.165 365.661 139.624 369.885 134.156 371.54C132.497 372.046 131.127 372.646 131.127 372.92C131.127 373.194 134.024 376.313 137.607 379.895L144.087 386.428H134.341L128.967 380.132C124.6 375.033 123.088 373.795 120.833 373.426C110.176 371.725 103.792 367.221 99.8403 358.686C96.4425 349.952 96.0312 338.604 99.7981 329.923C104.202 320.325 111.735 315.409 122.904 314.814C123.177 314.814 123.452 314.801 123.727 314.788ZM116.983 366.22C121.477 367.868 128.361 367.41 133.103 365.114L133.108 365.109C140.409 361.568 144.224 353.024 143.528 341.634C142.648 327.99 135.905 320.73 124.052 320.73C116.061 320.73 110.592 324.365 106.457 332.267C103.886 337.23 103.565 348.251 105.814 354.225C107.837 359.688 112.336 364.513 116.983 366.22ZM301.459 331.208C297.371 331.208 294.242 332.863 292.135 336.123L290.48 338.705V331.993H283.406V372.241H290.476V359.377C290.476 347.613 290.623 346.238 292.267 343.019C294.532 338.604 298.43 336.403 302.197 337.456L304.726 338.194V331.219H301.459V331.208ZM255.575 331.346C257.039 331.024 258.509 330.839 259.895 330.839H259.889C269.582 330.66 276.241 337.646 276.241 348.709V354.135H247.715C248.31 358.223 249.601 361.805 252.535 364.792C257.134 368.701 262.876 368.701 270.499 365.383L273.855 363.644V369.976C273.855 369.976 272.106 370.766 270.499 371.451C261.08 374.849 254.1 374.343 246.382 368.011C242.615 363.917 241.098 360.014 241.098 352.207C240.771 342.882 246.108 333.821 255.575 331.346ZM248.357 348.487L248.358 348.486V348.487H248.357ZM248.366 348.435H248.358V348.486L248.366 348.435ZM248.366 348.435H269.63C269.63 348.435 269.03 341.681 265.447 338.926C263.703 337.593 261.591 336.908 259.473 336.908C257.361 336.908 255.201 337.551 253.32 338.879C249.61 341.449 248.472 347.795 248.366 348.435ZM364.076 330.745C362.695 330.745 361.231 330.934 359.703 331.256C350.247 333.732 344.92 342.793 345.284 352.118C345.284 359.914 346.796 363.781 350.563 367.869C358.281 374.207 365.261 374.717 374.728 371.314C376.329 370.63 378.073 369.851 378.073 369.851V363.508L374.722 365.256C367.084 368.565 361.341 368.565 356.758 364.656C353.808 361.674 352.528 358.134 351.933 353.998H380.412V348.572C380.412 337.562 373.753 330.571 364.059 330.756L364.076 330.745ZM352.546 348.345L352.538 348.393L352.544 348.345H352.546ZM352.546 348.345C352.648 347.732 353.792 341.368 357.506 338.741C359.382 337.409 361.541 336.766 363.654 336.766C365.761 336.766 367.884 337.451 369.628 338.789C373.211 341.544 373.811 348.345 373.811 348.345H352.546ZM222.86 341.318C215.19 336.682 211.797 333.321 212.208 329.369C213.398 318.433 226.906 319.95 234.386 324.086L234.439 316.732C234.439 316.732 230.304 314.94 224.377 314.856C215.284 314.719 209.405 317.701 206.645 323.77C202.605 332.725 206.234 339.479 219.141 347.012C226.401 351.238 229.614 354.862 229.614 358.865C229.614 367.137 219.647 370.071 209.358 364.834C207.251 363.78 205.46 362.911 205.355 362.911C204.985 365.255 205.176 370.866 205.176 370.866C205.176 370.866 208.299 372.146 213.025 373.11C224.794 375.46 235.498 369.949 236.505 360.993C237.379 352.627 234.345 348.218 222.86 341.328V341.318H222.86ZM396.321 336.034C398.392 332.773 401.558 331.114 405.646 331.114V331.114H408.911V338.104L406.383 337.367C402.616 336.308 398.718 338.515 396.453 342.925C394.804 346.138 394.662 347.518 394.662 359.277V372.141H387.592V331.904H394.667V338.605L396.321 336.034ZM166.597 341.086V315.451H159.464V372.231H189.461V365.525H166.597V341.086H166.597ZM325.671 364.376L331.551 349.077L331.545 349.083C334.758 340.032 337.841 331.951 337.841 331.951H344.821L336.734 352.296L328.795 372.231C328.045 372.231 327.295 372.237 326.545 372.242C325.044 372.254 323.541 372.266 322.042 372.231C316.852 359.002 311.706 345.359 306.975 331.946H314.276L320.018 348.993L325.671 364.376ZM183.086 292.446C182.022 292.446 181.189 292.762 180.505 293.447C179.82 294.132 179.504 294.964 179.504 295.975C179.504 296.987 179.873 297.861 180.558 298.546C181.242 299.241 182.069 299.557 183.086 299.557C184.087 299.557 184.92 299.23 185.615 298.546C186.3 297.861 186.669 296.987 186.669 295.975C186.669 294.964 186.3 294.132 185.615 293.447C184.92 292.762 184.087 292.446 183.086 292.446ZM182.206 296.344H182.67C182.997 296.344 183.318 296.66 183.592 297.261L184.145 298.504H185.014L184.33 297.123C184.05 296.571 183.777 296.249 183.455 296.159C183.861 296.064 184.182 295.928 184.414 295.653C184.645 295.417 184.73 295.095 184.73 294.731C184.73 294.31 184.598 293.994 184.319 293.762C184.003 293.499 183.497 293.357 182.844 293.357H181.38V298.504H182.117V296.344L182.206 296.344ZM182.849 293.952H182.206H182.196V295.702H182.986C183.671 295.702 184.04 295.422 184.04 294.827C184.04 294.501 183.992 294.321 183.818 294.184C183.639 294.047 183.313 293.952 182.849 293.952ZM89.7361 295.923H87.7128V308.424H89.7361V295.923ZM104.16 306.496V308.698C103.054 309.34 101.774 309.667 100.21 309.71C98.187 309.71 96.5375 309.015 95.247 307.646C94.0086 306.313 93.4134 304.569 93.4134 302.493C93.4134 300.159 94.0982 298.226 95.4261 296.804C96.7641 295.381 98.5548 294.643 100.852 294.643C102.095 294.643 103.196 294.875 104.16 295.381V297.725C103.101 296.987 101.953 296.618 100.757 296.618C99.2925 296.618 98.0963 297.124 97.1744 298.135C96.2158 299.189 95.7523 300.57 95.7523 302.308C95.7523 303.967 96.2158 305.301 97.0848 306.26C97.9593 307.229 99.1558 307.734 100.63 307.734C101.863 307.734 103.054 307.323 104.16 306.496ZM109.949 302.034C109.949 300.385 110.318 299.052 111.003 298.135C111.646 297.308 112.425 296.892 113.347 296.892C114.127 296.892 114.68 297.034 115.085 297.356V294.964C114.77 294.827 114.311 294.78 113.716 294.78C112.889 294.78 112.152 295.058 111.504 295.57C110.819 296.112 110.271 296.94 109.95 297.993H109.897V295.059H107.606V309.388H109.902V302.034H109.949ZM128.324 307.597C127.034 308.977 125.296 309.672 123.135 309.672V309.667C120.981 309.667 119.279 308.977 117.994 307.597C116.75 306.264 116.16 304.473 116.16 302.313C116.16 299.832 116.887 297.898 118.267 296.528C119.558 295.285 121.296 294.642 123.456 294.642C125.616 294.642 127.271 295.285 128.461 296.617C129.663 297.951 130.252 299.742 130.252 302.086C130.252 304.383 129.61 306.227 128.324 307.597ZM119.869 297.998C120.744 297.076 121.893 296.618 123.314 296.618C124.79 296.618 125.896 297.076 126.718 297.998C127.545 298.962 127.956 300.338 127.956 302.176C127.956 303.925 127.587 305.3 126.807 306.222C126.028 307.186 124.879 307.697 123.362 307.697C121.887 307.697 120.744 307.185 119.869 306.222C119 305.252 118.584 303.925 118.584 302.176C118.494 300.438 118.953 299.015 119.869 297.998ZM141.648 305.484C141.648 306.686 141.184 307.645 140.31 308.424L140.298 308.429C139.381 309.256 138.049 309.673 136.347 309.762C135.02 309.762 133.819 309.488 132.817 308.887V306.412C133.924 307.328 135.162 307.782 136.542 307.782C138.334 307.782 139.25 307.091 139.25 305.753C139.25 305.21 139.066 304.752 138.655 304.383C138.239 304.014 137.459 303.557 136.311 303.05C135.11 302.551 134.245 301.992 133.74 301.444C133.139 300.801 132.823 299.927 132.823 298.873C132.823 297.683 133.281 296.672 134.246 295.891C135.163 295.107 136.406 294.701 137.881 294.701C139.029 294.701 140.036 294.923 140.963 295.386V297.683C139.994 296.992 138.935 296.666 137.697 296.666C136.907 296.666 136.317 296.845 135.853 297.213C135.4 297.582 135.168 298.041 135.168 298.636C135.168 299.284 135.394 299.742 135.763 300.111C136.132 300.432 136.817 300.843 137.923 301.306C139.172 301.812 140.035 302.313 140.594 302.866C141.279 303.556 141.648 304.43 141.648 305.484ZM151.246 294.642C149.086 294.642 147.348 295.285 146.057 296.529C144.687 297.899 143.95 299.832 143.95 302.313C143.95 304.473 144.545 306.265 145.783 307.597C147.074 308.977 148.77 309.667 150.93 309.667C153.142 309.667 154.829 308.972 156.119 307.592C157.41 306.222 158.052 304.378 158.052 302.081C158.052 299.737 157.452 297.946 156.261 296.613C155.018 295.28 153.364 294.637 151.256 294.637L151.246 294.642ZM154.554 306.222C155.334 305.3 155.703 303.925 155.703 302.176H155.697C155.697 300.337 155.286 298.962 154.549 297.951C153.722 297.034 152.578 296.571 151.156 296.571C149.729 296.571 148.58 297.034 147.711 297.951C146.789 298.91 146.33 300.332 146.33 302.176C146.33 303.925 146.747 305.253 147.616 306.222C148.49 307.186 149.633 307.697 151.109 307.697C152.626 307.697 153.775 307.186 154.554 306.222ZM175.089 309.667C172.561 309.667 171.322 308.24 171.322 305.437L171.317 305.432V296.934H168.841V295.006H171.317V291.519C171.5 291.461 171.685 291.403 171.872 291.345C172.437 291.169 173.021 290.987 173.614 290.782V295.006H177.249V296.934H173.614V305.021C173.614 305.979 173.799 306.675 174.125 307.086C174.447 307.502 174.995 307.687 175.774 307.687C176.327 307.687 176.828 307.539 177.249 307.223V309.193C176.696 309.52 176.006 309.667 175.089 309.667ZM417.868 331.851C417.088 331.114 416.166 330.745 415.023 330.745C413.864 330.745 412.905 331.114 412.125 331.904C411.346 332.678 410.977 333.642 410.977 334.749C410.977 335.897 411.346 336.856 412.12 337.593C412.9 338.331 413.858 338.7 415.017 338.7C416.16 338.7 417.124 338.331 417.915 337.551C418.689 336.761 419.1 335.849 419.1 334.707C419.058 333.547 418.642 332.588 417.862 331.851L417.868 331.851ZM414.97 338.278C415.982 338.278 416.814 337.962 417.499 337.277C418.236 336.582 418.552 335.76 418.552 334.696C418.552 333.694 418.184 332.863 417.499 332.167C416.804 331.483 415.971 331.166 414.97 331.166C413.912 331.166 413.084 331.483 412.399 332.167C411.704 332.863 411.388 333.694 411.388 334.696C411.388 335.712 411.757 336.582 412.442 337.277C413.137 337.962 413.97 338.278 414.97 338.278ZM416.398 334.427C416.174 334.651 415.852 334.834 415.448 334.929C415.719 335.027 415.984 335.302 416.215 335.886L416.899 337.266H416.024L415.477 336.028C415.193 335.428 414.877 335.112 414.56 335.112H414.102V337.272H413.364V332.13H414.829C415.477 332.13 415.988 332.273 416.304 332.536C416.583 332.763 416.714 333.089 416.714 333.5C416.714 333.868 416.63 334.19 416.398 334.427ZM414.138 334.469H414.928L414.923 334.47C415.608 334.47 415.977 334.196 415.977 333.6C415.977 333.274 415.934 333.094 415.75 332.958C415.566 332.815 415.244 332.731 414.786 332.731H414.138V334.469ZM286.762 294.416H287.404V289.269H289.105V288.626H285.06V289.269H286.762V294.416ZM290.623 289.407C290.66 289.638 290.66 290.049 290.66 290.55L290.623 290.555V294.422H289.975V288.627H290.902L292.694 292.673C292.727 292.753 292.758 292.824 292.786 292.889C292.87 293.082 292.929 293.219 292.957 293.358H293.01C293.064 293.164 293.139 292.984 293.198 292.841C293.236 292.751 293.268 292.675 293.284 292.62L295.075 288.626H295.902V294.411H295.217V290.513C295.217 290.233 295.217 289.865 295.259 289.407C295.21 289.536 295.176 289.649 295.145 289.746C295.12 289.827 295.099 289.897 295.075 289.959L293.094 294.416H292.778L290.802 290.002C290.79 289.963 290.774 289.92 290.756 289.873C290.71 289.753 290.653 289.602 290.623 289.407Z" fill="#231F1F"/>
</g>
</g>
<defs>
<linearGradient id="paint0_linear_0_623" x1="223.69" y1="281.107" x2="237.269" y2="271.552" gradientUnits="userSpaceOnUse">
<stop stop-color="#909CA9"/>
<stop offset="1" stop-color="#EDEDEE"/>
</linearGradient>
<linearGradient id="paint1_linear_0_623" x1="219.395" y1="118.247" x2="230.933" y2="118.247" gradientUnits="userSpaceOnUse">
<stop stop-color="#939FAB"/>
<stop offset="1" stop-color="#DCDEE1"/>
</linearGradient>
<radialGradient id="paint2_radial_0_623" cx="0" cy="0" r="1" gradientUnits="userSpaceOnUse" gradientTransform="translate(277.618 167.711) rotate(-171.457) scale(14.8762 10.6303)">
<stop stop-color="#EE352C"/>
<stop offset="1" stop-color="#A91D22"/>
</radialGradient>
</defs>
</svg>
