<svg width="169" height="33" viewBox="0 0 169 33" fill="none" xmlns="http://www.w3.org/2000/svg">
<path d="M166.801 15.3364C167.789 16.3844 168.286 17.8054 168.286 19.6057V29.0764H164.621V20.6794C164.621 19.6185 164.322 18.7827 163.723 18.1719C163.123 17.561 162.314 17.2524 161.288 17.2524C160.077 17.2717 159.114 17.6896 158.407 18.4998C157.699 19.3099 157.342 20.3515 157.342 21.6181V29.0764H153.703V8.03241H157.342V16.7959C158.369 14.8092 160.172 13.7997 162.747 13.7612C164.456 13.7612 165.813 14.282 166.801 15.3364ZM145.608 17.021C144.397 17.021 143.409 17.4389 142.657 18.2683C141.905 19.1041 141.523 20.1779 141.523 21.5024C141.523 22.8654 141.905 23.9585 142.657 24.7943C143.416 25.6237 144.397 26.0417 145.615 26.0417C147.406 26.0417 148.751 25.4437 149.649 24.2542L151.918 26.1574C151.249 27.1411 150.331 27.9255 149.261 28.427C148.158 28.9543 146.883 29.2179 145.424 29.2179C143.951 29.2179 142.638 28.8964 141.491 28.2534C140.363 27.6298 139.432 26.6846 138.82 25.5466C138.183 24.3828 137.864 23.0455 137.864 21.5345C137.864 20.0043 138.189 18.6476 138.833 17.4775C139.451 16.3266 140.388 15.3878 141.523 14.7578C142.67 14.1148 143.989 13.7933 145.487 13.7933C146.851 13.7933 148.069 14.0312 149.139 14.5134C150.21 14.9956 151.083 15.6836 151.759 16.5709L149.547 18.6991C148.521 17.5803 147.215 17.021 145.608 17.021ZM135.538 13.9026V29.0764H131.898V26.6653C131.382 27.4755 130.662 28.1377 129.814 28.5813C128.966 29.025 127.991 29.25 126.889 29.25C125.467 29.25 124.224 28.9221 123.147 28.2727C122.076 27.6233 121.235 26.7039 120.642 25.5209C120.05 24.3378 119.75 22.9812 119.75 21.4509C119.75 19.94 120.05 18.6026 120.649 17.4389C121.242 16.2751 122.083 15.375 123.154 14.732C124.224 14.0891 125.461 13.7676 126.863 13.7676C127.966 13.7676 128.947 13.9926 129.801 14.4363C130.656 14.8799 131.382 15.5357 131.898 16.3523V13.9155L135.538 13.9026ZM130.579 25.0322C131.344 24.2864 131.784 23.2962 131.898 22.0682V20.9944C131.784 19.76 131.35 18.7762 130.585 18.0304C129.821 17.2846 128.852 16.9117 127.673 16.9117C126.423 16.9117 125.404 17.3424 124.62 18.204C123.836 19.0656 123.434 20.1779 123.415 21.5345C123.434 22.8976 123.836 24.0035 124.62 24.865C125.404 25.7266 126.423 26.1574 127.673 26.1574C128.845 26.1574 129.814 25.7845 130.579 25.0322ZM116.085 15.8572C117.29 17.2396 117.889 19.1749 117.889 21.6695C117.889 22.1582 117.876 22.5311 117.863 22.7754H106.805C107.047 23.8556 107.544 24.6979 108.303 25.3151C109.055 25.9324 109.985 26.2345 111.088 26.2345C111.84 26.2345 112.592 26.0867 113.287 25.7909C113.982 25.508 114.606 25.0772 115.123 24.5307L117.079 26.601C116.321 27.4433 115.39 28.0991 114.345 28.5299C113.274 28.9864 112.082 29.2114 110.776 29.2114C109.246 29.2114 107.895 28.89 106.728 28.247C105.588 27.6298 104.644 26.6846 104.026 25.5402C103.389 24.3764 103.076 23.039 103.076 21.5281C103.076 20.0171 103.395 18.6734 104.045 17.5032C104.67 16.3523 105.607 15.4007 106.748 14.7642C107.908 14.1084 109.221 13.7869 110.693 13.7869C113.083 13.7869 114.881 14.4813 116.085 15.8572ZM114.562 20.3129C114.524 19.1942 114.16 18.3069 113.472 17.6446C112.784 16.9824 111.866 16.648 110.725 16.648C109.66 16.648 108.768 16.976 108.048 17.6253C107.328 18.2747 106.888 19.1684 106.716 20.3065H114.562V20.3129ZM99.1182 14.5713C99.985 14.0505 100.998 13.7805 102.159 13.7612V17.336C100.61 17.2396 99.3732 17.6061 98.449 18.429C97.5248 19.252 97.0595 20.3643 97.0595 21.7596V29.0764H93.4201V13.9026H97.0595V16.8216C97.5694 15.8379 98.2514 15.0857 99.1182 14.5713ZM90.6921 28.1377C89.5002 28.8771 88.2446 29.2436 86.938 29.2436C85.6505 29.2436 84.5924 28.8578 83.7766 28.0927C82.9544 27.3276 82.5465 26.196 82.5465 24.7043V10.3535L86.1604 9.91628V14.5199H90.4435V17.2139H86.1604V24.0549C86.1604 24.7557 86.2879 25.2508 86.5492 25.5402C86.8105 25.8359 87.1993 25.9774 87.722 25.9774C88.2828 25.9774 88.9903 25.7716 89.8508 25.3537L90.6921 28.1377ZM75.803 13.9026H79.4169V22.4089C79.4169 27.3726 75.9942 29.2179 72.5206 29.2179C69.0469 29.2179 65.6305 27.3726 65.6305 22.4089V13.9026H69.2444V22.5375C69.2444 24.4407 70.6467 25.9838 72.5269 25.9838C74.4072 25.9838 75.8094 24.4407 75.8094 22.5375L75.803 13.9026ZM58.1414 10.3021C59.7029 11.1572 61.0032 12.4238 61.9083 13.9605C62.8261 15.51 63.2786 17.2331 63.2786 19.1234C63.2786 21.0137 62.8197 22.7369 61.9083 24.2992C61.0032 25.8488 59.7029 27.1283 58.1414 28.0027C56.5416 28.9092 54.776 29.3657 52.832 29.3657C50.888 29.3657 49.1225 28.9092 47.5291 28.0027C45.9675 27.1283 44.6673 25.8488 43.7622 24.2992C42.8507 22.7369 42.3918 21.0137 42.3918 19.1234C42.3918 17.2331 42.8507 15.51 43.7622 13.9605C44.6673 12.4174 45.9675 11.1572 47.5291 10.3021C49.1225 9.41477 50.8944 8.97113 52.832 8.97113C54.776 8.9647 56.5479 9.40834 58.1414 10.3021ZM49.5623 13.2661C48.5489 13.8448 47.7075 14.687 47.1275 15.7029C46.5284 16.7381 46.2288 17.8761 46.2288 19.1234C46.2288 20.3708 46.5348 21.5152 47.1403 22.5568C47.7267 23.5791 48.568 24.4278 49.575 25.0258C50.5948 25.6302 51.6975 25.9324 52.8958 25.9324C54.0494 25.9388 55.1839 25.6237 56.1719 25.0258C57.1726 24.4278 57.9948 23.5791 58.5684 22.5568C59.1612 21.5088 59.4607 20.3258 59.448 19.1234C59.448 17.8761 59.1548 16.7381 58.5684 15.7029C58.0011 14.6935 57.1726 13.8512 56.1719 13.2661C55.1776 12.6746 54.0494 12.3659 52.8958 12.3724C51.723 12.3659 50.5757 12.6746 49.5623 13.2661ZM14.9656 0.458374C20.1219 0.458374 27.9107 2.05934 31.531 5.73063C32.4488 6.66291 33.6534 8.48248 33.6534 11.1572C33.6534 15.9022 29.8738 23.1869 25.7053 27.4176C23.551 29.6036 20.1219 32.4584 15.5073 32.4584C10.9947 32.4584 7.5529 29.3593 6.55859 28.3434C2.73434 24.4728 0 18.5962 0 13.1246C0 9.66553 0.975184 6.64363 3.45457 4.12966C5.74912 1.80859 9.70722 0.458374 14.9656 0.458374ZM21.3457 19.3935C23.0857 17.6318 23.5574 15.4586 23.5574 14.2627C23.5574 13.3947 23.3343 12.1281 22.2635 11.0415C20.6255 9.3762 18.8026 8.90684 16.8267 8.90684C14.3218 8.90684 12.6391 9.71053 11.5174 10.8421C10.6378 11.7423 9.87932 13.1054 9.87932 15.0535C9.87932 16.9952 10.9055 18.8727 12.0145 20.0043C13.0471 21.0459 14.666 21.8174 16.2913 21.8174C17.923 21.8174 19.6057 21.1552 21.3457 19.3935Z" fill="#5952FF"/>
</svg>
